<?xml version="1.0" encoding="UTF-8"?> <svg xmlns="http://www.w3.org/2000/svg" width="45" height="46" viewBox="0 0 45 46" fill="none"><path fill-rule="evenodd" clip-rule="evenodd" d="M21.6078 4.0808L19.7794 0.913902L16.7165 1.01122C8.69387 1.26611 4.68254 1.39356 2.2694 3.96507C-0.143729 6.53657 -0.0162806 10.5479 0.238617 18.5706L0.394374 23.4729H2.30845L0.494213 26.6153L0.564804 28.8371C0.819701 36.8597 0.94715 40.871 3.51866 43.2842C6.09016 45.6973 10.1015 45.5699 18.1242 45.315L22.1592 45.1868L23.4997 42.865L24.7919 45.1031L28.3906 44.9888C36.4133 44.7339 40.4246 44.6064 42.8378 42.0349C45.2509 39.4634 45.1234 35.4521 44.8685 27.4294L44.7128 22.5269H42.799L44.613 19.3851L44.5424 17.1629C44.2875 9.14028 44.16 5.12895 41.5885 2.71582C39.017 0.302682 35.0057 0.43013 26.983 0.685028L23.5045 0.795546L21.6078 4.0808Z" fill="url(#paint0_linear_9_911)"></path><path d="M22.3549 10.0084C18.8708 10.2045 15.6609 11.7973 13.3286 14.4888C10.9093 17.2823 9.72576 20.9832 10.0537 24.7295C10.2708 27.2136 11.1517 29.5874 12.5998 31.5902C13.8008 33.2527 15.3535 34.6073 17.1423 35.5504C20.3522 37.2453 24.1357 37.4641 27.5358 36.1532C28.9824 35.5942 30.3291 34.7661 31.4952 33.7145C31.9895 33.2689 32.1163 33.0923 32.186 32.7504C32.3032 32.1752 31.9879 31.5708 31.4572 31.3569C31.2496 31.2726 31.0452 31.2515 30.8297 31.2904C30.5762 31.3374 30.4178 31.4282 30.1294 31.6955C29.0758 32.6678 27.9636 33.3645 26.6929 33.8523C24.5334 34.6803 22.1758 34.758 19.9577 34.0726C18.3131 33.5638 16.8064 32.6402 15.5896 31.3974C15.2156 31.015 15.0889 30.8659 15.1095 30.8335C15.1174 30.8189 16.358 28.7789 17.8632 26.3013C19.3683 23.8237 20.6105 21.7853 20.6216 21.7724C20.6406 21.7529 20.6437 22.1143 20.6437 24.0409C20.6437 25.4976 20.6501 26.4018 20.6596 26.5201C20.7784 27.852 21.2696 28.6201 22.1457 28.8404C22.3184 28.8842 22.6369 28.8874 22.808 28.8485C23.3879 28.7157 23.9266 28.2879 24.4447 27.5506C24.5588 27.387 25.061 26.5622 27.2078 23.0038C27.5643 22.4108 27.8939 21.8712 27.9382 21.8048L28.0191 21.6832L28.0286 23.2226C28.0349 24.2807 28.0428 24.8122 28.0571 24.924C28.149 25.6953 28.3185 26.2835 28.6084 26.8441C29.0077 27.6138 29.6272 28.2133 30.356 28.5342C31.4651 29.0235 32.7373 28.9377 33.7593 28.3041C34.4897 27.852 35.0379 27.233 35.434 26.4147C35.6383 25.9918 35.754 25.658 35.8554 25.1913C35.9663 24.6858 35.9964 24.3342 35.9996 23.5062C36.0028 22.8467 35.9885 22.5825 35.9251 21.9911C35.6288 19.2656 34.5324 16.6941 32.7833 14.6184C30.6269 12.0582 27.6277 10.4313 24.4067 10.0749C24.2498 10.057 24.0185 10.0344 23.8917 10.0246C23.5749 10.0003 22.6718 9.99223 22.3549 10.0084ZM23.7254 12.473C26.2271 12.6496 28.5641 13.7304 30.3782 15.5501C32.2129 17.3892 33.3394 19.802 33.5882 22.4205C33.6436 23.0103 33.6563 23.9712 33.6119 24.3082C33.5485 24.8041 33.398 25.24 33.1715 25.5802C33.0511 25.7601 32.7991 26.0113 32.6217 26.1295C32.3508 26.3078 32.1178 26.3807 31.8136 26.3791C31.0579 26.3742 30.5889 25.8525 30.4257 24.8349C30.4004 24.6825 30.3972 24.4557 30.3877 22.7446C30.3782 20.8925 30.3766 20.8163 30.3433 20.6105C30.234 19.9122 30.0249 19.4325 29.6668 19.0534C29.4418 18.8135 29.1867 18.658 28.8794 18.5705C28.6797 18.5138 28.3502 18.4992 28.149 18.5381C27.4392 18.6758 26.7611 19.2511 26.0639 20.3059C25.8881 20.5733 25.831 20.6673 24.8503 22.2909C24.5302 22.8207 23.9868 23.7233 23.6414 24.2953C23.2944 24.8689 23.0076 25.3372 23.0013 25.3372C22.995 25.3372 22.9871 23.9939 22.9839 22.3508C22.9791 19.5492 22.9775 19.3548 22.9506 19.1879C22.8555 18.6045 22.6924 18.2075 22.4262 17.9191C22.2836 17.7635 22.1679 17.6777 21.9841 17.5918C21.344 17.2904 20.6643 17.4881 20.1019 18.1379C19.9324 18.3323 19.8072 18.5203 19.3968 19.196C19.1877 19.5395 18.3448 20.9249 17.5225 22.2747C16.7002 23.6244 15.9476 24.8608 15.8494 25.0212C15.7528 25.1816 15.5278 25.5494 15.3519 25.8395C15.0224 26.3807 14.8845 26.6076 14.0844 27.9217C13.8293 28.3397 13.6186 28.6865 13.6154 28.6897C13.6059 28.6995 13.3556 28.1631 13.2463 27.9006C12.7773 26.7712 12.5222 25.7018 12.4018 24.365C12.3717 24.0198 12.3764 22.952 12.4097 22.5663C12.4699 21.9036 12.5571 21.3592 12.6996 20.7758C13.4665 17.6404 15.5309 14.9992 18.3305 13.5716C19.6963 12.8765 21.1064 12.5119 22.6876 12.4487C22.8856 12.4422 23.4719 12.4552 23.7254 12.473Z" fill="#92785E"></path><defs><linearGradient id="paint0_linear_9_911" x1="23.2572" y1="45.1519" x2="21.8496" y2="0.848171" gradientUnits="userSpaceOnUse"><stop stop-color="#23180D"></stop><stop offset="1" stop-color="#342414"></stop></linearGradient></defs></svg> 