<?xml version="1.0" encoding="UTF-8"?> <svg xmlns="http://www.w3.org/2000/svg" width="67" height="68" viewBox="0 0 67 68" fill="none"><path fill-rule="evenodd" clip-rule="evenodd" d="M32.3031 5.90841L29.5909 1.21084L25.0474 1.35519C13.1474 1.73328 7.19741 1.92233 3.618 5.73665C0.0386002 9.55096 0.227645 15.501 0.605734 27.401L0.836767 34.6726H3.6766L0.984894 39.3347L1.08957 42.6293C1.46766 54.5293 1.6567 60.4793 5.47102 64.0587C9.28534 67.6381 15.2354 67.4491 27.1354 67.071L33.1213 66.8808L35.1095 63.437L37.0262 66.7567L42.3637 66.5871C54.2637 66.2091 60.2137 66.02 63.7931 62.2057C67.3725 58.3914 67.1834 52.4414 66.8054 40.5413L66.5743 33.2696H63.736L66.4263 28.6099L66.3215 25.3131C65.9434 13.413 65.7544 7.46303 61.9401 3.88363C58.1257 0.304225 52.1757 0.49327 40.2757 0.871359L35.1166 1.03528L32.3031 5.90841Z" fill="url(#paint0_linear_10_2357)"></path><path d="M33.411 14.7004C28.2431 14.9913 23.4817 17.3539 20.0223 21.3461C16.4337 25.4898 14.6782 30.9794 15.1647 36.5363C15.4866 40.2208 16.7933 43.742 18.9413 46.7127C20.7227 49.1787 23.0258 51.188 25.6791 52.5869C30.4404 55.1009 36.0525 55.4254 41.0958 53.481C43.2415 52.6518 45.2391 51.4236 46.9688 49.8637C47.702 49.2027 47.89 48.9408 47.9934 48.4336C48.1674 47.5804 47.6997 46.6839 46.9124 46.3666C46.6045 46.2416 46.3014 46.2104 45.9817 46.2681C45.6057 46.3378 45.3707 46.4724 44.943 46.8689C43.3802 48.311 41.7304 49.3445 39.8456 50.068C36.6424 51.2962 33.1454 51.4116 29.8552 50.3949C27.4158 49.6402 25.1809 48.2702 23.376 46.4267C22.8213 45.8595 22.6333 45.6383 22.6639 45.5903C22.6756 45.5686 24.5158 42.5426 26.7484 38.8677C28.981 35.1927 30.8235 32.1691 30.8399 32.1499C30.8681 32.121 30.8728 32.657 30.8728 35.5148C30.8728 37.6755 30.8822 39.0167 30.8963 39.1921C31.0726 41.1678 31.8011 42.3071 33.1007 42.634C33.3569 42.6989 33.8293 42.7037 34.0831 42.646C34.9432 42.4489 35.7423 41.8144 36.5108 40.7208C36.68 40.478 37.425 39.2546 40.6094 33.9765C41.1381 33.0969 41.627 32.2965 41.6928 32.1979L41.8126 32.0177L41.8267 34.301C41.8361 35.8705 41.8479 36.6589 41.869 36.8247C42.0053 37.9688 42.2568 38.8412 42.6869 39.6728C43.2791 40.8145 44.198 41.7038 45.2791 42.1797C46.9241 42.9056 48.8113 42.7782 50.3271 41.8384C51.4105 41.1678 52.2237 40.2497 52.8112 39.0359C53.1143 38.4086 53.2859 37.9135 53.4363 37.2213C53.6008 36.4714 53.6455 35.9498 53.6502 34.7216C53.6549 33.7434 53.6337 33.3516 53.5397 32.4744C53.1002 28.4317 51.474 24.6173 48.8794 21.5384C45.6809 17.7409 41.2322 15.3278 36.4544 14.799C36.2217 14.7725 35.8786 14.7389 35.6906 14.7245C35.2206 14.6884 33.881 14.6764 33.411 14.7004ZM35.4438 18.3562C39.1547 18.6182 42.6211 20.2213 45.312 22.9204C48.0334 25.6484 49.7043 29.2272 50.0733 33.1113C50.1555 33.9862 50.1744 35.4114 50.1085 35.9114C50.0145 36.6468 49.7913 37.2934 49.4552 37.7981C49.2766 38.0649 48.9029 38.4374 48.6397 38.6129C48.2379 38.8773 47.8924 38.9854 47.4412 38.983C46.3202 38.9758 45.6245 38.2019 45.3825 36.6925C45.3449 36.4666 45.3402 36.1301 45.3261 33.592C45.312 30.8448 45.3096 30.7318 45.2603 30.4266C45.0981 29.3907 44.7879 28.6792 44.2568 28.1168C43.923 27.7611 43.5447 27.5303 43.0887 27.4006C42.7926 27.3164 42.3038 27.2948 42.0053 27.3525C40.9525 27.5568 39.9466 28.41 38.9126 29.9747C38.6517 30.3713 38.5671 30.5107 37.1124 32.919C36.6377 33.7049 35.8316 35.0437 35.3193 35.8921C34.8046 36.743 34.3792 37.4376 34.3698 37.4376C34.3604 37.4376 34.3487 35.4451 34.344 33.0079C34.3369 28.8523 34.3346 28.5639 34.2946 28.3163C34.1536 27.451 33.9115 26.8622 33.5167 26.4343C33.3052 26.2036 33.1337 26.0762 32.861 25.9488C31.9116 25.5018 30.9034 25.795 30.0691 26.7588C29.8176 27.0472 29.632 27.326 29.0233 28.3283C28.7131 28.8379 27.4628 30.8928 26.2431 32.895C25.0234 34.8971 23.9071 36.731 23.7614 36.9689C23.618 37.2069 23.2843 37.7524 23.0234 38.1827C22.5346 38.9854 22.3302 39.3219 21.1434 41.2712C20.765 41.8913 20.4524 42.4056 20.4477 42.4104C20.4336 42.4249 20.0623 41.6293 19.9001 41.2399C19.2045 39.5647 18.8261 37.9784 18.6475 35.9955C18.6029 35.4835 18.6099 33.8996 18.6593 33.3276C18.7486 32.3446 18.8778 31.537 19.0894 30.6717C20.2268 26.0209 23.289 22.1032 27.4417 19.9857C29.4675 18.9546 31.5591 18.4139 33.9045 18.3201C34.1983 18.3105 35.0678 18.3297 35.4438 18.3562Z" fill="white"></path><defs><linearGradient id="paint0_linear_10_2357" x1="34.7493" y1="66.8291" x2="32.6613" y2="1.11335" gradientUnits="userSpaceOnUse"><stop stop-color="#C98F00"></stop><stop offset="1" stop-color="#FF6C17"></stop></linearGradient></defs></svg> 