<?xml version="1.0" encoding="UTF-8"?> <svg xmlns="http://www.w3.org/2000/svg" width="242" height="83" viewBox="0 0 242 83" fill="none"><path d="M240.764 40.7228V40.7349C240.764 40.7349 240.752 40.7349 240.727 40.747C239.976 41.0136 227.92 45.2058 227.872 47.411C227.848 48.247 229.568 48.8043 234.281 48.7316C234.718 48.7316 235.178 48.7195 235.663 48.7074C235.166 49.3011 234.657 49.9069 234.112 50.537C233.906 50.7914 233.676 51.0458 233.445 51.3003C233.167 51.6274 232.876 51.9546 232.573 52.2817C231.967 52.9602 231.337 53.6508 230.683 54.3536C230.428 54.6201 230.186 54.8746 229.932 55.1411L229.241 55.8681C229.108 56.0135 228.975 56.1589 228.841 56.2922H228.829C228.829 56.2922 228.805 56.2922 228.769 56.3043C228.502 56.377 227.399 56.692 225.824 57.1524C223.183 57.9279 219.209 59.1516 215.586 60.4723C207.65 63.3923 201.398 66.8333 214.496 67.2695C215.38 67.2937 216.361 67.3059 217.428 67.3059C217.379 67.3543 217.331 67.4028 217.282 67.4513C216.761 67.9117 216.252 68.3721 215.744 68.8325C215.489 69.0506 215.247 69.2808 214.992 69.4989C214.75 69.717 214.496 69.9351 214.253 70.1532C213.805 70.553 213.357 70.9407 212.908 71.3406C212.872 71.3648 212.824 71.4012 212.787 71.4375C212.303 71.8495 211.83 72.2614 211.357 72.6613C211.127 72.8672 210.897 73.0611 210.667 73.255C210.303 73.5579 209.952 73.8608 209.613 74.1516C209.286 74.4181 208.958 74.6847 208.643 74.9512C208.425 75.133 208.207 75.3026 208.001 75.4843C207.359 76.0053 206.753 76.5021 206.16 76.9625C205.845 77.217 205.542 77.4472 205.251 77.6895C205.166 77.738 205.093 77.7986 205.021 77.8591C204.657 78.1378 204.318 78.4044 203.991 78.6588C203.979 78.6588 203.967 78.6588 203.967 78.6709C203.458 79.0586 202.973 79.41 202.537 79.7129C202.246 79.9189 201.967 80.1128 201.713 80.2824C201.022 80.7549 200.441 81.0942 200.029 81.2759C200.017 81.288 200.005 81.288 199.992 81.3002C199.726 81.4213 199.169 81.5304 198.357 81.6394C198.223 81.6515 198.09 81.6758 197.945 81.6879C197.799 81.7 197.642 81.7242 197.472 81.7363C197.46 81.7363 197.46 81.7363 197.448 81.7363C197.278 81.7606 197.097 81.7727 196.903 81.7848C196.769 81.7969 196.636 81.809 196.503 81.8211C196.236 81.8454 195.97 81.8575 195.679 81.8817C193.922 82.0029 191.693 82.1119 189.064 82.1846C189.051 82.1968 189.051 82.1968 189.039 82.1968V82.1846C189.039 82.1846 189.039 82.1846 189.027 82.1846L189.015 82.1968H188.967C187.973 82.2331 186.919 82.2573 185.816 82.2816C184.714 82.3179 183.551 82.3422 182.339 82.3664H182.327C182.315 82.3543 182.315 82.3543 182.315 82.3543C182.315 82.3543 182.315 82.3543 182.303 82.3664C182.303 82.3543 182.278 82.3664 182.278 82.3664L182.266 82.3543C182.254 82.3543 182.254 82.3543 182.242 82.3543C180.013 82.4027 177.614 82.4391 175.081 82.4512C174.27 82.4633 173.446 82.4754 172.61 82.4754C170.017 82.4997 167.291 82.5239 164.455 82.5239C162.238 82.5481 159.936 82.5481 157.573 82.536C155.647 82.536 153.696 82.536 151.709 82.5239C151.649 82.536 151.588 82.536 151.515 82.5239C151.503 82.536 151.491 82.536 151.467 82.5239C151.309 82.536 151.176 82.536 151.018 82.5239C150.413 82.536 149.783 82.536 149.177 82.5239H148.002C146.96 82.5239 145.905 82.5239 144.851 82.5118C143.785 82.5118 142.707 82.5118 141.616 82.4997C139.447 82.4876 137.254 82.4754 135.037 82.4633C133.935 82.4512 132.832 82.4512 131.717 82.4391C130.99 82.427 130.251 82.427 129.512 82.4148H128.155C127.876 82.4027 127.598 82.4027 127.307 82.4027C125.829 82.3906 124.351 82.3785 122.872 82.3664C121.225 82.3543 119.577 82.33 117.929 82.3179H117.759C116.948 82.3058 116.136 82.2937 115.312 82.2937C114.876 82.2816 114.439 82.2816 114.003 82.2695C107.691 82.2089 101.439 82.1362 95.3927 82.0514C94.3749 78.4649 87.3354 78.1015 80.0899 78.7315C72.0446 79.4464 63.7208 81.385 63.1028 81.5304C63.0786 81.5425 63.0665 81.5425 63.0665 81.5425H63.0301C62.6545 81.5425 62.2668 81.5304 61.9033 81.5182C61.2006 81.5061 60.5221 81.494 59.8436 81.4819C58.5956 81.4577 57.3961 81.4334 56.245 81.4213C55.3484 81.3971 54.4882 81.385 53.6522 81.3607H53.5552C53.0948 81.3607 52.6465 81.3486 52.1982 81.3365C51.4591 81.3123 50.7564 81.3002 50.09 81.288C49.7871 81.2759 49.4963 81.2759 49.2176 81.2759C48.7451 81.2517 48.2968 81.2517 47.8606 81.2396H47.6909C47.6667 81.2275 47.6546 81.2275 47.6304 81.2396C47.5456 81.2275 47.4729 81.2275 47.388 81.2275C47.2184 81.2275 47.0488 81.2153 46.8792 81.2153C46.1158 81.1911 45.4131 81.179 44.7709 81.1669C44.3347 81.1548 43.947 81.1426 43.5835 81.1305C43.1231 81.1184 42.699 81.1063 42.3356 81.0942C42.2144 81.0942 42.1054 81.0821 41.9963 81.0821C41.0876 81.0457 40.6029 81.0215 40.6029 81.0215C35.3081 80.7186 18.6119 64.6888 8.33732 53.8932C8.88255 53.9416 9.19757 53.9053 9.34297 53.8083C10.0336 53.3358 6.81067 51.4941 5.68386 50.8762C5.59904 50.8277 5.52635 50.7914 5.47788 50.7672C5.42942 50.7429 5.39307 50.7187 5.3446 50.6945C5.33249 50.6824 5.33249 50.6824 5.32037 50.6702C2.63056 47.7502 0.728305 45.5572 0.134608 44.6606C0.0134456 44.4788 -0.0229014 44.2365 0.0134474 43.9336C0.0255637 43.7882 0.0619101 43.6186 0.110375 43.4368C1.0191 40.2745 7.10146 32.7503 14.1289 24.8262C14.1289 24.8262 15.6192 28.9337 16.8793 22.2334C16.8793 22.0516 16.8914 21.8699 16.9035 21.7002C16.9278 21.676 16.952 21.6397 16.9883 21.6154C18.0546 20.428 19.1329 19.2527 20.1991 18.0775C20.1991 18.0775 20.502 18.3562 20.9503 18.5985C21.9802 19.1801 23.7371 19.5799 23.8946 15.7996V15.7633C23.9188 15.2907 23.9067 14.7334 23.8704 14.1155C27.2387 10.5048 30.3647 7.22129 32.7516 4.74957C35.6353 1.76897 39.5852 0.0848109 43.7168 0.0726946C45.3404 0.0726946 47.2548 0.060585 49.3993 0.060585C49.3993 0.060585 49.4115 0.0727117 49.4236 0.10906C49.7992 0.799688 54.4034 8.9418 59.371 0.0363473C62.7394 0.0242311 66.3985 0.0242377 70.2999 0.0242377V0.060585C70.2999 0.0727013 70.2999 0.0727065 70.2999 0.0848227C70.409 0.230218 70.8451 0.775446 71.5963 1.40549C73.6925 3.15023 78.2118 5.5129 84.7425 1.38125C85.3604 0.993533 85.9905 0.545231 86.6447 0.0363473C86.6569 0.0242311 86.669 0.0121281 86.6811 0.0121281V0C86.6932 0 86.6932 0 86.6932 0H89.9404C89.9525 0 89.9525 0 89.9646 0C89.9646 0 90.3039 0.605814 91.0308 1.34491C92.8483 3.22293 97.1253 5.92487 104.468 1.35703C105.098 0.969314 105.752 0.521011 106.431 0.0121281C106.443 0.0121281 106.443 0.0121281 106.455 0.0121281C137.969 0.0363606 172.173 0.181749 190.021 0.630051C190.033 0.630051 190.033 0.630051 190.033 0.630051C190.033 0.630051 191.523 2.55654 194.613 4.49514C197.472 6.28835 201.725 8.09368 207.444 8.39658C209.019 8.4814 210.715 8.44504 212.521 8.27541H212.569C214.483 9.95957 216.495 11.8255 218.542 13.8004C218.542 13.8004 218.542 13.8004 218.53 13.8126C218.47 13.9337 218.106 14.7092 217.924 15.6785C217.573 17.5928 217.973 20.2342 223.062 19.9313C223.51 19.907 223.995 19.8586 224.528 19.7859C226.66 21.9789 228.744 24.1841 230.671 26.2802C230.671 26.2802 230.659 26.2802 230.647 26.2923C230.392 26.4498 228.369 27.7463 227.399 28.9337C226.224 30.3513 226.576 31.6477 233.239 30.7632C233.639 30.7026 234.075 30.6421 234.536 30.5694C237.504 33.9377 239.746 36.6638 240.739 38.1057C241.163 38.7115 241.139 39.6081 240.764 40.7228Z" fill="url(#paint0_linear_3_15448)"></path><path opacity="0.5" d="M210.849 11.5468C204.912 11.2439 200.49 9.43857 197.522 7.64536C194.311 5.70676 192.76 3.78029 192.76 3.78029C192.76 3.78029 192.76 3.78029 192.748 3.78029C174.198 3.33199 138.649 3.18658 105.898 3.16235C105.886 3.16235 105.886 3.16235 105.874 3.16235C105.171 3.67123 104.493 4.11953 103.839 4.50725C96.2053 9.07508 91.7587 6.37316 89.8685 4.49514C89.1173 3.75605 88.7659 3.15024 88.7659 3.15024C88.7538 3.15024 88.7538 3.15024 88.7417 3.15024H85.3613C85.3613 3.15024 85.3613 3.15024 85.3492 3.15024V3.16235C85.337 3.16235 85.3249 3.17447 85.3128 3.18658C84.6343 3.69547 83.98 4.14377 83.3379 4.53149C76.5527 8.66314 71.8516 6.30047 69.6707 4.55573C68.8953 3.92568 68.447 3.38044 68.3258 3.23504C68.3258 3.22292 68.3258 3.22294 68.3258 3.21082V3.17447C64.279 3.17447 60.4745 3.17447 56.9729 3.18658C51.8113 12.092 47.0254 3.94991 46.6377 3.25928C46.6256 3.22293 46.6134 3.21082 46.6134 3.21082C44.3841 3.21082 42.3849 3.22293 40.7007 3.22293C37.3324 3.23505 34.0731 4.27706 31.3833 6.16719C31.868 5.67043 32.3163 5.19788 32.7524 4.74957C35.6361 1.76897 39.586 0.0848109 43.7177 0.0726946C45.3412 0.0726946 47.2556 0.060585 49.4002 0.060585C49.4002 0.060585 49.4123 0.0727117 49.4244 0.10906C49.8 0.799688 54.4042 8.9418 59.3719 0.0363473C62.7402 0.0242311 66.3993 0.0242377 70.3008 0.0242377V0.060585C70.3008 0.0727013 70.3008 0.0727065 70.3008 0.0848227C70.4098 0.230218 70.846 0.775446 71.5972 1.40549C73.6933 3.15023 78.2127 5.5129 84.7433 1.38125C85.3613 0.993533 85.9913 0.545231 86.6456 0.0363473C86.6577 0.0242311 86.6698 0.0121281 86.6819 0.0121281V0C86.6941 0 86.6941 0 86.6941 0H89.9412C89.9533 0 89.9533 0 89.9655 0C89.9655 0 90.3047 0.605814 91.0317 1.34491C92.8491 3.22293 97.1262 5.92487 104.469 1.35703C105.099 0.969314 105.753 0.521011 106.431 0.0121281C106.444 0.0121281 106.444 0.0121281 106.456 0.0121281C137.97 0.0363606 172.174 0.181749 190.022 0.630051C190.034 0.630051 190.034 0.630051 190.034 0.630051C190.034 0.630051 191.524 2.55654 194.614 4.49514C197.473 6.28835 201.726 8.09368 207.445 8.39658C209.02 8.4814 210.716 8.44504 212.521 8.27541H212.57C213.697 9.26895 214.86 10.3231 216.035 11.4378C214.194 11.5953 212.461 11.6316 210.849 11.5468Z" fill="#8E2D0B"></path><path opacity="0.5" d="M217.428 67.3058C217.379 67.3543 217.331 67.4027 217.282 67.4512C216.761 67.9116 216.252 68.372 215.744 68.8324C215.489 69.0505 215.247 69.2808 214.992 69.4988C214.75 69.7169 214.496 69.935 214.253 70.1531C213.805 70.553 213.357 70.9407 212.908 71.3405C212.872 71.3648 212.824 71.4011 212.787 71.4375C212.303 71.8494 211.83 72.2614 211.357 72.6612C211.127 72.8672 210.897 73.061 210.667 73.2549C210.303 73.5578 209.952 73.8607 209.613 74.1515C209.286 74.418 208.958 74.6846 208.643 74.9512C208.425 75.1329 208.207 75.3025 208.001 75.4843C207.359 76.0053 206.753 76.5021 206.16 76.9625C205.845 77.2169 205.542 77.4471 205.251 77.6895C205.166 77.7379 205.093 77.7985 205.021 77.8591C204.657 78.1378 204.318 78.4043 203.991 78.6587C203.979 78.6587 203.967 78.6588 203.967 78.6709C203.458 79.0465 202.973 79.3978 202.537 79.7129C202.246 79.9188 201.967 80.1127 201.713 80.2823C201.022 80.7549 200.441 81.0941 200.029 81.2759C200.017 81.288 200.005 81.288 199.992 81.3001C199.726 81.4213 199.169 81.5303 198.357 81.6394C198.223 81.6515 198.09 81.6757 197.945 81.6878C197.799 81.6999 197.642 81.7242 197.472 81.7363C197.46 81.7363 197.46 81.7363 197.448 81.7363C197.4 81.7484 197.351 81.7484 197.29 81.7605C197.169 81.7605 197.036 81.7726 196.903 81.7847C196.769 81.7969 196.636 81.809 196.503 81.8211C196.236 81.8453 195.97 81.8574 195.679 81.8817C193.922 82.0028 191.693 82.1119 189.064 82.1846C189.051 82.1967 189.051 82.1967 189.039 82.1967C189.027 82.1967 189.027 82.1967 189.015 82.1967H188.967C188.639 82.2088 188.3 82.2209 187.961 82.2209C187.464 82.2452 186.955 82.2573 186.434 82.2573C186.228 82.2694 186.022 82.2815 185.816 82.2815C185.598 82.2936 185.368 82.2936 185.15 82.2936C184.605 82.3057 184.035 82.3179 183.466 82.33L182.339 82.3663H182.327C182.315 82.3542 182.315 82.3542 182.315 82.3542C182.315 82.3542 182.315 82.3542 182.303 82.3663C182.303 82.3542 182.278 82.3663 182.278 82.3663C182.266 82.3542 182.254 82.3542 182.242 82.3542C180.013 82.4027 177.614 82.439 175.081 82.4511C174.27 82.4633 173.446 82.4754 172.61 82.4754C170.017 82.4996 167.291 82.5238 164.455 82.5238C162.226 82.5359 159.924 82.536 157.573 82.536C155.647 82.536 153.696 82.5359 151.709 82.5238C151.649 82.5359 151.588 82.5359 151.515 82.5238C151.503 82.5359 151.491 82.5359 151.467 82.5238C151.309 82.5359 151.176 82.5359 151.018 82.5238H148.002C147.614 82.5238 147.226 82.5117 146.838 82.5117H144.851C143.785 82.5117 142.707 82.5117 141.616 82.4996C139.447 82.4875 137.254 82.4754 135.037 82.4632C133.935 82.4511 132.832 82.4511 131.717 82.439C130.542 82.4269 129.355 82.4148 128.155 82.4148C127.876 82.4027 127.598 82.4027 127.307 82.4027C125.829 82.3906 124.351 82.3784 122.872 82.3663C121.225 82.3542 119.577 82.33 117.929 82.3179H117.759C117.25 82.3057 116.729 82.3057 116.208 82.2936H115.312C114.876 82.2815 114.439 82.2815 114.003 82.2694C107.691 82.2088 101.439 82.1361 95.3927 82.0513C94.3749 78.4649 87.3354 78.1014 80.0899 78.7315C72.0446 79.4463 63.7208 81.3849 63.1028 81.5303C63.0786 81.5424 63.0665 81.5424 63.0665 81.5424H63.0301C62.6545 81.5424 62.2668 81.5303 61.9033 81.5182C61.2006 81.5061 60.5221 81.4939 59.8436 81.4818C58.5956 81.4576 57.3961 81.4334 56.245 81.4212C55.3484 81.397 54.4882 81.3849 53.6522 81.3607H53.5552C53.0948 81.3607 52.6465 81.3486 52.1982 81.3364C51.4591 81.3122 50.7564 81.3001 50.09 81.288C49.7871 81.2759 49.4963 81.2759 49.2176 81.2759C48.7451 81.2516 48.2968 81.2516 47.8606 81.2395H47.6909C47.6667 81.2274 47.6546 81.2274 47.6304 81.2395C47.5456 81.2274 47.4729 81.2274 47.388 81.2274C47.2184 81.2274 47.0488 81.2153 46.8792 81.2153C46.1158 81.191 45.4131 81.1789 44.7709 81.1668C44.3347 81.1547 43.947 81.1426 43.5835 81.1305C43.1231 81.1184 42.699 81.1062 42.3356 81.0941C42.2144 81.0941 42.1054 81.082 41.9963 81.082C41.0876 81.0456 40.6029 81.0214 40.6029 81.0214C35.3081 80.7185 18.6119 64.6887 8.33732 53.8931C8.88255 53.9416 9.19757 53.9052 9.34297 53.8083C10.0336 53.3358 6.81067 51.4941 5.68386 50.8762C5.59904 50.8277 5.52635 50.7913 5.47788 50.7671C5.42942 50.7429 5.39307 50.7186 5.3446 50.6944C5.33249 50.6823 5.33249 50.6823 5.32037 50.6702C2.63056 47.7502 0.728305 45.5571 0.134608 44.6605C0.0134456 44.4788 -0.0229014 44.2364 0.0134474 43.9335C0.0255637 43.7881 0.0619101 43.6185 0.110375 43.4368C2.15802 45.6904 5.07805 48.7437 8.42214 52.0999L8.43425 52.112C9.13699 52.8148 9.85186 53.5296 10.5909 54.2445C10.8575 54.5231 11.1241 54.7776 11.4027 55.0442C21.5683 65.0037 34.1692 76.1507 38.6886 76.4051C38.737 76.4051 38.7976 76.4172 38.8703 76.4172C38.9309 76.4172 39.0036 76.4294 39.0763 76.4294C39.1611 76.4294 39.2459 76.4294 39.3307 76.4415C39.5125 76.4415 39.7184 76.4536 39.9487 76.4657C40.0698 76.4657 40.191 76.4657 40.3121 76.4778C40.5666 76.4778 40.8453 76.4899 41.1482 76.502C41.3057 76.502 41.4632 76.5142 41.6207 76.5142C42.0327 76.5263 42.481 76.5384 42.9535 76.5505C45.0981 76.599 47.9454 76.6717 51.3743 76.7323C52.1013 76.7565 52.8646 76.7686 53.6522 76.7807C54.8759 76.805 56.1481 76.8292 57.493 76.8534C57.8686 76.8655 58.2442 76.8655 58.6319 76.8776C62.6545 76.9503 67.1376 77.0352 71.9841 77.1079C72.4808 77.12 72.9776 77.1321 73.4865 77.1321C74.0802 77.1442 74.686 77.1563 75.3039 77.1563H75.316C75.316 77.1563 75.316 77.1563 75.3282 77.1563H75.3524C75.3524 77.1563 75.3524 77.1563 75.3645 77.1563C78.0301 77.2048 80.7805 77.2411 83.6157 77.2896C84.6698 77.3017 85.736 77.326 86.8144 77.3381C87.2506 77.3381 87.6868 77.3502 88.135 77.3502C89.4315 77.3744 90.7522 77.3865 92.085 77.4108C92.9331 77.4229 93.7934 77.435 94.6657 77.4471C96.1076 77.4713 97.5615 77.4835 99.0276 77.5077H99.0397C99.1245 77.4956 99.2093 77.5077 99.2941 77.5077C101.584 77.544 103.91 77.5683 106.249 77.5925C107.085 77.5925 107.909 77.6046 108.745 77.6167C109.532 77.6289 110.332 77.6289 111.132 77.641C113.519 77.6652 115.93 77.6894 118.329 77.7137C119.128 77.7258 119.94 77.7258 120.74 77.7379C121.54 77.75 122.339 77.75 123.139 77.7621C124.75 77.7743 126.35 77.7864 127.949 77.7985C132.735 77.8348 137.497 77.8712 142.149 77.8954C143.7 77.8954 145.239 77.9075 146.766 77.9075C175.59 78.0166 199.496 77.75 201.895 76.6959C203.652 75.9205 208.147 72.5643 213.575 68.0328C213.878 67.7783 214.181 67.5239 214.496 67.2695C215.38 67.2937 216.361 67.3058 217.428 67.3058Z" fill="#FFD048" fill-opacity="0.12"></path><path opacity="0.5" d="M235.663 48.7073C235.166 49.301 234.657 49.9068 234.112 50.5368C233.906 50.7913 233.676 51.0457 233.445 51.3002C233.167 51.6273 232.876 51.9544 232.573 52.2816C231.967 52.9601 231.337 53.6507 230.683 54.3535C230.428 54.62 230.186 54.8745 229.932 55.141L229.241 55.868C229.108 56.0134 228.974 56.1588 228.841 56.2921H228.829C228.829 56.2921 228.805 56.2921 228.768 56.3042C228.502 56.3769 227.399 56.6919 225.824 57.1523C225.945 57.0433 226.067 56.9221 226.188 56.8131C228.878 54.2686 231.483 51.6879 233.845 49.204C233.991 49.0465 234.148 48.889 234.281 48.7315C234.718 48.7315 235.178 48.7194 235.663 48.7073Z" fill="#FFD048" fill-opacity="0.12"></path><path opacity="0.5" d="M215.368 41.6557C215.683 41.1589 215.961 40.6864 216.192 40.2502C216.264 40.1048 216.337 39.9594 216.398 39.814C216.604 39.3657 216.749 38.9538 216.822 38.5903C216.846 38.4933 216.858 38.4085 216.87 38.3237C216.894 38.1662 216.894 38.0087 216.882 37.8633C216.858 38.8205 216.301 40.1169 215.368 41.6557Z" fill="#FFD048" fill-opacity="0.12"></path><path opacity="0.5" d="M201.894 76.696C201.894 76.696 200.513 80.8398 200.029 81.276C200.016 81.2881 200.004 81.2881 199.992 81.3002C199.726 81.4214 199.168 81.5304 198.357 81.6395C198.223 81.6516 198.09 81.6758 197.945 81.6879C197.799 81.7 197.642 81.7243 197.472 81.7364C197.46 81.7364 197.46 81.7364 197.448 81.7364C197.399 81.7485 197.351 81.7485 197.29 81.7606C197.169 81.7606 197.036 81.7727 196.903 81.7849C196.769 81.797 196.636 81.8091 196.503 81.8212C196.236 81.8454 195.97 81.8576 195.679 81.8818C193.922 82.003 191.693 82.112 189.063 82.1847C189.063 82.1847 189.051 82.1847 189.039 82.1847C189.039 82.1847 189.039 82.1847 189.027 82.1847C188.676 82.1968 188.324 82.2089 187.961 82.221C187.464 82.2453 186.955 82.2574 186.434 82.2574C186.01 82.2695 185.586 82.2816 185.15 82.2937C184.605 82.3059 184.035 82.318 183.466 82.3301C183.09 82.3422 182.702 82.3422 182.315 82.3543H182.266C182.254 82.3543 182.254 82.3543 182.242 82.3543C180.012 82.4028 177.613 82.4391 175.081 82.4513C174.269 82.4634 173.445 82.4755 172.609 82.4755C170.017 82.4997 167.29 82.5239 164.455 82.5239C162.226 82.5361 159.924 82.5361 157.573 82.5361C155.647 82.5361 153.696 82.5361 151.709 82.5239C151.648 82.5361 151.588 82.5361 151.515 82.5239C151.503 82.5361 151.491 82.5361 151.467 82.5239H148.001C147.614 82.5239 147.226 82.5118 146.838 82.5118H144.851C143.785 82.5118 142.707 82.5118 141.616 82.4997C139.447 82.4876 137.254 82.4755 135.037 82.4634C133.934 82.4512 132.832 82.4513 131.717 82.4391C130.99 82.427 130.251 82.427 129.512 82.4149C128.785 82.4149 128.046 82.4028 127.307 82.4028C125.829 82.3907 124.35 82.3786 122.872 82.3664C121.224 82.3543 119.577 82.3301 117.929 82.318H117.759C117.25 82.3059 116.729 82.3059 116.208 82.2937C115.469 82.2937 114.73 82.2816 114.003 82.2695C107.691 82.2089 101.439 82.1362 95.3925 82.0514C94.3747 78.465 87.3352 78.1015 80.0897 78.7316C72.0445 79.4464 63.7206 81.385 63.1026 81.5304C63.0784 81.5425 63.0663 81.5425 63.0663 81.5425H63.03C62.6543 81.5425 62.2666 81.5304 61.9031 81.5183C61.2004 81.5062 60.5219 81.4941 59.8434 81.4819C58.5954 81.4577 57.3959 81.4335 56.2448 81.4214C55.3482 81.3971 54.488 81.385 53.652 81.3608H53.555C53.0946 81.3487 52.6342 81.3366 52.198 81.3366C51.4589 81.3123 50.7562 81.3002 50.0898 81.2881C49.7869 81.276 49.4961 81.276 49.2174 81.276C48.7449 81.2517 48.2966 81.2517 47.8604 81.2396H47.6908C47.6665 81.2275 47.6544 81.2275 47.6302 81.2396C47.5454 81.2275 47.4727 81.2275 47.3878 81.2275C47.2182 81.2275 47.0486 81.2154 46.879 81.2154C46.1156 81.1912 45.4129 81.179 44.7707 81.1669C44.3346 81.1548 43.9468 81.1427 43.5833 81.1306C43.1229 81.1185 42.6989 81.1064 42.3354 81.0942C42.2142 81.0942 42.1052 81.0821 41.9961 81.0821C41.0874 81.0458 40.6027 81.0215 40.6027 81.0215C40.6027 81.0215 38.9792 79.0587 38.8701 76.4174C38.9307 76.4174 39.0034 76.4295 39.0761 76.4295C39.1609 76.4295 39.2457 76.4295 39.3305 76.4416C39.5123 76.4416 39.7183 76.4537 39.9485 76.4658C40.0696 76.4658 40.1908 76.4658 40.312 76.4779C40.5664 76.4779 40.8451 76.49 41.148 76.5022C41.3055 76.5022 41.463 76.5143 41.6205 76.5143C42.0325 76.5264 42.4808 76.5385 42.9533 76.5506C45.0979 76.5991 47.9452 76.6718 51.3741 76.7324C52.1011 76.7566 52.8644 76.7687 53.652 76.7809C54.8757 76.8051 56.1479 76.8293 57.4928 76.8535C57.8684 76.8657 58.244 76.8656 58.6318 76.8778C62.6544 76.9505 67.1374 77.0353 71.9839 77.108C72.4806 77.1201 72.9774 77.1322 73.4863 77.1322C74.08 77.1443 74.6858 77.1565 75.3037 77.1565H75.3158C75.3158 77.1565 75.3158 77.1565 75.328 77.1565H75.3522C75.3522 77.1565 75.3522 77.1565 75.3643 77.1565C78.0299 77.2049 80.7803 77.2413 83.6155 77.2897C84.6696 77.3018 85.7358 77.3261 86.8142 77.3382C87.2504 77.3382 87.6866 77.3503 88.1349 77.3503C89.4313 77.3745 90.752 77.3867 92.0848 77.4109C92.9329 77.423 93.7932 77.4351 94.6655 77.4472C96.1074 77.4715 97.5613 77.4836 99.0274 77.5078H99.0395C99.1243 77.4957 99.2091 77.5078 99.2939 77.5078C101.584 77.5442 103.91 77.5684 106.249 77.5926C107.085 77.5926 107.909 77.6047 108.745 77.6169C109.532 77.629 110.332 77.629 111.132 77.6411C113.518 77.6653 115.93 77.6896 118.329 77.7138C119.128 77.7259 119.94 77.7259 120.74 77.738C121.539 77.7501 122.339 77.7501 123.139 77.7623C124.75 77.7744 126.35 77.7865 127.949 77.7986C132.735 77.835 137.497 77.8713 142.149 77.8955C143.7 77.8955 145.239 77.9077 146.765 77.9077C175.59 78.0167 199.495 77.7501 201.894 76.696Z" fill="#FFD048" fill-opacity="0.12"></path><path opacity="0.4" d="M212.521 8.27549C211.418 8.39665 210.279 8.52992 209.14 8.68744C208.777 8.7359 208.401 8.78437 208.038 8.84495C204.669 9.34172 201.168 9.99599 197.606 10.7714C196.891 10.9289 196.176 11.0865 195.449 11.2561C194.213 11.5469 192.965 11.8498 191.717 12.1648C170.926 17.4112 150.061 26.3166 146.96 32.3626C141.471 43.0613 130.36 51.3003 113.907 63.6347C110.55 66.1428 107.618 68.6751 105.074 71.1226C105.074 71.1226 105.062 71.1226 105.062 71.1347C104.371 71.789 103.705 72.4553 103.075 73.0975C102.699 73.4731 102.348 73.8366 102.008 74.2122C100.918 75.3511 99.9244 76.4537 99.0399 77.5078H99.0278C97.6102 79.1435 96.4106 80.6702 95.3929 82.0514C94.3751 78.465 87.3356 78.1015 80.09 78.7316C72.0448 79.4464 63.721 81.385 63.103 81.5304C66.8591 80.2703 70.9786 78.8164 75.3162 77.1565C75.3162 77.1565 75.3162 77.1565 75.3283 77.1565H75.3526C75.3526 77.1565 75.3526 77.1565 75.3647 77.1565C78.006 76.1508 80.7322 75.0846 83.4826 73.9335H83.4947C84.3671 73.5822 85.2395 73.2066 86.1118 72.8431C87.5537 72.2251 89.0076 71.5951 90.4616 70.9287C90.4616 70.9287 90.4616 70.9287 90.4737 70.9287C109.811 62.2413 129.294 50.4159 135.716 36.2035C141.725 22.8998 155.041 13.9459 168.369 8.0574C169.229 7.66968 170.09 7.3062 170.938 6.94271C170.95 6.94271 170.95 6.94271 170.95 6.94271C172.598 6.25208 174.233 5.62203 175.857 5.02834H175.869C177.129 4.56792 178.389 4.1196 179.625 3.70765C183.321 2.45967 186.859 1.44192 190.021 0.630127C190.033 0.630127 190.033 0.630127 190.033 0.630127C190.033 0.630127 191.523 2.55662 194.613 4.49522C197.472 6.28843 201.725 8.09375 207.444 8.39666C209.019 8.48147 210.715 8.44512 212.521 8.27549Z" fill="#FFD048" fill-opacity="0.12"></path><path opacity="0.4" d="M194.612 4.49522C193.074 4.43464 191.305 4.38617 189.342 4.3377C189.342 4.3377 189.342 4.3377 189.33 4.3377C188.167 4.64061 186.967 4.95563 185.719 5.31912C183.829 5.85223 181.842 6.44594 179.806 7.12445C178.752 7.4637 177.686 7.82718 176.608 8.2149C176.123 8.37241 175.638 8.55417 175.142 8.73591H175.129C173.506 9.32961 171.87 9.95966 170.222 10.6503C170.222 10.6503 170.222 10.6503 170.21 10.6503C169.362 11.0138 168.502 11.3773 167.642 11.765C154.314 17.6535 140.998 26.6074 134.988 39.9111C129.415 52.2454 114.003 62.7866 97.3794 71.0256C96.0466 71.692 94.7138 72.3342 93.381 72.9642C92.6056 73.3277 91.818 73.6912 91.0305 74.0547C90.5943 74.2486 90.1702 74.4424 89.7462 74.6363C89.734 74.6363 89.734 74.6363 89.734 74.6363C88.2801 75.3027 86.8261 75.9327 85.3843 76.5507C84.7906 76.793 84.209 77.0474 83.6153 77.2897C83.3366 77.4109 83.0459 77.5321 82.7672 77.6411H82.7551C81.8585 78.0167 80.974 78.3802 80.0895 78.7316C72.0443 79.4464 63.7204 81.385 63.1025 81.5304C63.0782 81.5426 63.0661 81.5426 63.0661 81.5426H63.0298C66.7979 80.2825 70.9417 78.8164 75.3036 77.1565H75.3157C75.3157 77.1565 75.3157 77.1565 75.3278 77.1565H75.352C77.9934 76.1508 80.6953 75.0846 83.4457 73.9335H83.4578C84.3302 73.5822 85.2025 73.2066 86.0749 72.8431C87.5168 72.2252 88.9707 71.5951 90.4247 70.9287C90.4247 70.9287 90.4247 70.9287 90.4368 70.9287C109.774 62.2413 129.257 50.4159 135.679 36.2035C141.689 22.8998 155.004 13.9459 168.332 8.0574C169.192 7.66968 170.053 7.3062 170.901 6.94271C170.913 6.94271 170.913 6.94271 170.913 6.94271C172.561 6.25208 174.197 5.62203 175.82 5.02834H175.832C177.104 4.5558 178.377 4.1196 179.625 3.70765C183.32 2.45968 186.858 1.44192 190.02 0.630127C190.032 0.630127 190.032 0.630127 190.032 0.630127C190.032 0.630127 191.523 2.55662 194.612 4.49522Z" fill="#FFD048" fill-opacity="0.12"></path><path opacity="0.4" d="M214.496 67.2696C215.38 67.2938 216.361 67.3059 217.428 67.3059C216.168 67.5483 214.883 67.7906 213.575 68.0329C206.547 69.3172 198.866 70.5167 191.281 71.3043C189.197 71.5103 187.125 71.7041 185.065 71.8495C176.838 72.4432 168.975 72.4311 162.468 71.4012C162.444 71.4012 162.42 71.4012 162.396 71.3891H162.383C154.823 70.1896 149.116 67.5967 146.826 62.9562C146.342 61.9748 146.051 60.9691 145.966 59.9514C145.808 58.4126 146.087 56.8375 146.729 55.2624C146.826 55.0443 146.923 54.814 147.032 54.596C147.238 54.1598 147.468 53.7236 147.723 53.2874C147.856 53.0693 147.989 52.8512 148.135 52.621C148.413 52.1848 148.716 51.7486 149.043 51.3125C149.043 51.3125 149.056 51.3125 149.056 51.3004C149.395 50.8642 149.746 50.428 150.122 49.9918C150.122 49.9918 150.122 49.9797 150.134 49.9797C150.51 49.5435 150.909 49.0952 151.333 48.659C152.279 47.6776 153.321 46.6962 154.472 45.7148C154.738 45.4724 155.029 45.2301 155.32 44.9999C166.612 35.6825 185.938 26.7164 201.131 20.4887C202.21 20.0525 203.252 19.6284 204.282 19.2165C204.851 18.9863 205.408 18.7682 205.966 18.5501C211.042 16.5388 215.416 14.9152 218.53 13.8126C218.47 13.9338 218.106 14.7092 217.924 15.6785C217.573 17.5929 217.973 20.2342 223.062 19.9313C223.51 19.9071 223.995 19.8586 224.528 19.7859C224.152 19.9192 223.752 20.0525 223.328 20.1979C220.457 21.2035 216.398 22.6333 211.648 24.4144C211.115 24.6203 210.558 24.8263 210.013 25.0323C208.995 25.42 207.941 25.8077 206.874 26.2197C185.683 34.3739 155.162 47.6776 148.329 58.9821C147.602 60.1937 147.408 61.2114 147.699 62.0475V62.0596C147.723 62.1323 147.759 62.205 147.795 62.2777C147.808 62.3504 147.844 62.4231 147.892 62.4837C147.941 62.5685 147.989 62.6533 148.05 62.726C148.086 62.7987 148.147 62.8593 148.22 62.932C148.28 63.0047 148.341 63.0652 148.401 63.1379C148.535 63.2712 148.68 63.3924 148.85 63.5135C149.431 63.9255 150.195 64.2769 151.127 64.5555C151.261 64.604 151.394 64.6404 151.539 64.6767C159.245 66.7849 177.068 65.0159 194.964 62.3019C194.964 62.3019 194.964 62.3019 194.976 62.3019C195.582 62.2171 196.2 62.1202 196.818 62.0232C199.047 61.6719 201.277 61.3205 203.482 60.957C211.733 59.5757 219.645 58.0976 226.188 56.8132C227.072 56.6315 227.945 56.474 228.769 56.3044C228.502 56.3771 227.399 56.6921 225.824 57.1525C223.183 57.9279 219.209 59.1517 215.586 60.4724C207.65 63.3924 201.398 66.8334 214.496 67.2696Z" fill="#FFD048" fill-opacity="0.12"></path><path opacity="0.4" d="M234.282 48.7316C234.718 48.7316 235.178 48.7194 235.663 48.7073C235.069 48.8648 234.463 49.0345 233.845 49.2041C226.951 51.07 218.458 53.2146 209.601 55.129C207.25 55.6257 204.875 56.1225 202.501 56.5708C202.489 56.5829 202.489 56.5829 202.489 56.5829C202.052 56.6677 201.628 56.7525 201.192 56.8252C185.768 59.7695 170.393 61.49 161.281 59.2848C159.415 58.8365 158.313 58.2307 157.889 57.5037C157.852 57.4432 157.816 57.3705 157.78 57.3099C157.452 56.5466 157.816 55.65 158.749 54.6685C158.846 54.5595 158.955 54.4504 159.076 54.3414C165.425 48.2469 192.105 38.7114 212.363 32.0838C212.375 32.0838 212.375 32.0838 212.375 32.0838C213.466 31.7203 214.52 31.3811 215.562 31.0297C216.119 30.8601 216.665 30.6783 217.21 30.5087C222.565 28.7761 227.242 27.3342 230.647 26.2922C230.392 26.4497 228.369 27.7462 227.4 28.9336C226.224 30.3512 226.576 31.6476 233.24 30.7631C233.639 30.7026 234.076 30.642 234.536 30.5693C234.185 30.6783 233.797 30.7995 233.385 30.9207C230.465 31.8051 226.079 33.1622 220.857 34.7858C220.336 34.9554 219.815 35.1129 219.282 35.2825C218.228 35.6097 217.137 35.961 216.022 36.3124C216.022 36.3124 216.022 36.3124 216.01 36.3124C195.352 42.8309 166.418 52.4149 162.044 56.2073C161.838 56.389 161.717 56.5466 161.693 56.6798C161.257 58.8729 186.58 53.4933 210.158 48.0288L210.17 48.0167C210.328 47.9925 210.485 47.9561 210.643 47.9198V47.9077C213.078 47.3624 215.489 46.793 217.864 46.2235C226.745 44.1395 234.9 42.1646 240.727 40.747C239.976 41.0135 227.921 45.2057 227.872 47.4109C227.848 48.2469 229.568 48.8043 234.282 48.7316Z" fill="#FFD048" fill-opacity="0.12"></path><path opacity="0.4" d="M205.966 18.5501C211.042 16.5388 215.416 14.9152 218.53 13.8126C218.47 13.9338 218.106 14.7092 217.924 15.6785C215.114 16.6842 211.406 18.0654 207.141 19.7375C206.753 19.8829 206.366 20.0404 205.966 20.1979C205.796 20.2585 205.639 20.3312 205.469 20.3917C205.081 20.5493 204.681 20.7068 204.282 20.8643C203.627 21.1308 202.949 21.3368 202.27 21.6034C201.883 21.7488 201.495 21.9184 201.131 22.1365C177.747 35.6582 147.226 46.5144 145.966 59.9514C145.821 58.4126 146.099 56.8496 146.729 55.2624C146.826 55.0443 146.923 54.8141 147.032 54.596C147.238 54.1598 147.468 53.7236 147.723 53.2874C147.856 53.0693 147.989 52.8512 148.135 52.621C148.413 52.1848 148.716 51.7486 149.044 51.3125C149.044 51.3125 149.056 51.3125 149.056 51.3004C149.395 50.8642 149.746 50.428 150.122 49.9918C150.122 49.9918 150.122 49.9797 150.134 49.9797C150.51 49.5435 150.909 49.0952 151.333 48.659C152.279 47.6776 153.321 46.6962 154.472 45.7148C154.75 45.4724 155.029 45.2301 155.32 44.9999C166.612 35.6825 185.938 26.7164 201.131 20.4887C202.21 20.0525 203.252 19.6284 204.282 19.2165C204.851 18.9863 205.408 18.7682 205.966 18.5501Z" fill="#FFD048" fill-opacity="0.12"></path><path opacity="0.4" d="M228.769 56.3042C228.502 56.3769 227.4 56.6919 225.824 57.1523C223.183 57.9278 219.209 59.1515 215.586 60.4722C211.721 61.1871 207.65 61.9019 203.482 62.6047C202.743 62.7258 202.004 62.847 201.265 62.956C199.787 63.1984 198.308 63.4407 196.818 63.6709C196.2 63.7678 195.582 63.8647 194.976 63.9496C194.964 63.9496 194.964 63.9496 194.964 63.9496C194.867 63.9617 194.758 63.9859 194.661 63.998C193.959 64.1071 193.256 64.204 192.553 64.3131C168.672 67.8147 145.7 69.4019 147.699 62.0594C147.723 62.1321 147.759 62.2048 147.796 62.2775C147.82 62.3502 147.856 62.4229 147.893 62.4835C147.941 62.5683 147.99 62.6531 148.05 62.7258C148.099 62.7985 148.159 62.8712 148.22 62.9318C148.28 63.0045 148.341 63.0651 148.402 63.1378C148.535 63.2589 148.692 63.3922 148.85 63.5134C149.431 63.9253 150.195 64.2767 151.128 64.5554C151.261 64.6038 151.394 64.6402 151.54 64.6765C159.246 66.7848 177.069 65.0158 194.964 62.3017C194.964 62.3017 194.964 62.3017 194.976 62.3017C195.582 62.2169 196.2 62.12 196.818 62.0231C199.048 61.6717 201.277 61.3203 203.482 60.9568C211.733 59.5756 219.645 58.0974 226.188 56.8131C227.072 56.6313 227.945 56.4738 228.769 56.3042Z" fill="#FFD048" fill-opacity="0.12"></path><path opacity="0.4" d="M217.21 30.5087C222.577 28.7761 227.266 27.3222 230.671 26.2802C230.671 26.2802 228.429 27.6614 227.4 28.9336C224.782 29.7454 221.717 30.7026 218.349 31.7931C217.973 31.9142 217.598 32.0354 217.21 32.1565C217.04 32.205 216.883 32.2656 216.713 32.314C216.337 32.4352 215.95 32.5564 215.562 32.6775C214.883 32.9077 214.205 33.1258 213.514 33.356C213.139 33.4772 212.763 33.5984 212.375 33.7317C212.375 33.7317 212.375 33.7317 212.363 33.7317C190.324 40.9287 160.724 51.5789 157.889 57.5038C157.852 57.4432 157.816 57.3705 157.78 57.3099C157.452 56.5466 157.816 55.65 158.749 54.6686C158.846 54.5595 158.955 54.4505 159.076 54.3414C165.425 48.2469 192.105 38.7115 212.363 32.0839C212.375 32.0839 212.375 32.0839 212.375 32.0839C213.466 31.7204 214.52 31.3811 215.562 31.0297C216.119 30.8601 216.665 30.6784 217.21 30.5087Z" fill="#FFD048" fill-opacity="0.12"></path><path opacity="0.4" d="M240.727 40.7471C239.976 41.0136 227.92 45.2059 227.872 47.411C219.802 49.8706 212.218 51.0701 210.606 51.4336C210.606 51.4336 166.564 60.0967 162.044 57.8552C161.705 57.6856 161.293 56.9223 161.681 56.68H161.693C161.257 58.873 186.58 53.4934 210.158 48.0289L210.17 48.0168C210.328 47.9926 210.485 47.9562 210.643 47.9199V47.9078C213.078 47.3626 215.489 46.7931 217.864 46.2236C226.745 44.1396 234.899 42.1647 240.727 40.7471Z" fill="#FFD048" fill-opacity="0.12"></path><path opacity="0.4" d="M106.455 0.0121281C105.704 1.42973 104.88 2.96848 103.983 4.57995C103.632 5.23423 103.256 5.8885 102.88 6.56701C102.662 6.94262 102.444 7.33035 102.226 7.71807C93.4177 23.13 79.5809 43.6186 66.5559 48.7801C56.354 52.8269 47.1699 55.6985 38.7854 57.0797C38.4825 57.1282 38.1917 57.1767 37.8888 57.213C36.1683 57.4796 34.472 57.6734 32.8242 57.8067C26.3178 58.3277 20.296 57.8067 14.6135 56.0983C13.5109 55.7712 12.4447 55.4198 11.4027 55.0442C10.3486 54.6807 9.3308 54.293 8.33726 53.8932C8.8825 53.9416 9.19752 53.9053 9.34291 53.8083C10.0335 53.3358 6.81061 51.4941 5.6838 50.8762C5.59899 50.8277 5.52629 50.7914 5.47783 50.7672C5.42936 50.7429 5.39301 50.7187 5.34455 50.6945C5.33243 50.6824 5.33243 50.6824 5.32031 50.6702C5.56264 50.8035 5.80497 50.9247 6.04729 51.0458C6.7985 51.4093 7.58606 51.7607 8.42208 52.0999L8.43419 52.1121C8.95519 52.3059 9.48831 52.5119 10.0335 52.7058C15.0618 54.4384 21.5319 55.4804 29.674 54.7171C29.6861 54.7171 29.6861 54.7171 29.6982 54.7171C30.3525 54.6444 31.0189 54.5717 31.6974 54.4869C32.7637 54.3536 33.8057 54.2203 34.8113 54.0991C35.0536 54.0628 35.296 54.0264 35.5262 54.0022C35.5383 54.0022 35.5383 54.0022 35.5504 54.0022C46.6731 52.5725 55.0455 51.3488 61.6125 49.083C63.9388 48.2712 66.0349 47.3383 67.9372 46.2236C72.1294 43.764 75.4129 40.3835 78.2118 35.5128C82.5009 28.0613 85.9056 16.7205 88.1592 7.73018C88.244 7.34246 88.341 6.95475 88.4379 6.57914C88.6075 5.90063 88.765 5.23424 88.9226 4.59208C89.3103 2.92003 89.6616 1.36914 89.9646 0C89.9646 0 90.3038 0.605814 91.0308 1.34491C92.8482 3.22293 97.1253 5.92487 104.468 1.35703C105.098 0.969314 105.752 0.521011 106.431 0.0121281C106.443 0.0121281 106.443 0.0121281 106.455 0.0121281Z" fill="#FFD048" fill-opacity="0.12"></path><path opacity="0.4" d="M86.681 0.012085C86.1721 1.26006 85.5057 2.79882 84.6939 4.59203C84.4031 5.22208 84.1002 5.88847 83.7731 6.5791C83.6034 6.9547 83.4096 7.34242 83.2278 7.73014C75.3401 24.075 57.9654 52.4513 33.7935 48.6831C32.1578 48.4287 30.6553 48.1015 29.262 47.7259C29.0923 47.6775 28.9348 47.629 28.7652 47.5805C24.258 46.272 20.9987 44.3092 18.7087 41.9586C18.5875 41.8495 18.4785 41.7284 18.3694 41.6072V41.5951C13.9712 36.8334 13.3412 30.5572 14.1288 24.8262C14.1288 24.8262 15.6191 28.9336 16.8791 22.2333C16.8549 22.4999 16.8428 22.7664 16.8307 23.0451C16.8307 23.1178 16.8186 23.1905 16.8186 23.2632C16.7822 24.0871 16.7701 24.911 16.7943 25.747V25.9045C16.8186 26.789 16.8792 27.6614 16.9761 28.5459C17.0367 29.0548 17.0972 29.5637 17.1821 30.0725C17.2305 30.3754 17.2911 30.6784 17.3517 30.9813C17.4486 31.5023 17.5698 32.0111 17.7152 32.52C17.8 32.8351 17.8848 33.138 17.9938 33.4409C18.0787 33.7074 18.1756 33.974 18.2725 34.2405C18.3695 34.5071 18.4785 34.7736 18.5875 35.0402C18.7087 35.3068 18.8178 35.5612 18.9389 35.8156C19.3145 36.579 19.7386 37.3181 20.2354 38.0208C20.405 38.2752 20.5867 38.5176 20.7806 38.7478C21.7014 39.911 22.8161 40.9529 24.161 41.8253C27.1416 43.7639 31.249 44.8907 36.8104 44.709C42.4808 44.5272 47.2304 42.6371 51.1924 39.7171C51.6044 39.4142 52.0042 39.0992 52.404 38.7841C52.4767 38.7114 52.5494 38.663 52.6221 38.6024C52.9856 38.2874 53.337 37.9723 53.6884 37.6573C53.7005 37.6452 53.7126 37.6331 53.7247 37.621C53.9307 37.4392 54.1245 37.2454 54.3184 37.0515C54.5123 36.8698 54.694 36.688 54.8636 36.5063C55.1666 36.1912 55.4695 35.8762 55.7602 35.5491C56.2085 35.0523 56.6447 34.5556 57.0688 34.0346C57.3111 33.7195 57.5656 33.4045 57.8079 33.0895C58.0745 32.7502 58.3289 32.3867 58.5833 32.0354C58.8257 31.6961 59.068 31.3569 59.2861 31.0055C59.5405 30.6541 59.7707 30.3027 59.9888 29.9393C60.3038 29.4667 60.5946 28.9942 60.8612 28.5095C61.1399 28.0491 61.4064 27.5887 61.6488 27.1283C61.673 27.0798 61.6972 27.0192 61.7336 26.9708C63.2602 24.1719 64.5445 21.2519 65.6108 18.3682C66.3862 16.2963 67.0405 14.2487 67.5978 12.2859C67.828 11.5104 68.034 10.735 68.24 9.99588C68.24 9.99588 68.24 9.98377 68.24 9.97166C68.4339 9.20833 68.6156 8.46924 68.7852 7.75438C68.8822 7.36666 68.967 6.97892 69.0518 6.60332C69.1245 6.26406 69.1972 5.93693 69.2699 5.60979C69.282 5.59768 69.2699 5.58556 69.2699 5.58556C69.3426 5.25842 69.4153 4.93127 69.4759 4.61625C69.5486 4.26488 69.6213 3.91351 69.694 3.57425C69.9484 2.27781 70.1423 1.10255 70.2998 0.0847796C70.4088 0.230175 70.845 0.775402 71.5962 1.40545C73.6923 3.15019 78.2117 5.51286 84.7423 1.38121C85.3603 0.99349 85.9903 0.545187 86.6446 0.0363042C86.6567 0.0241879 86.6688 0.012085 86.681 0.012085Z" fill="#FFD048" fill-opacity="0.12"></path><path opacity="0.4" d="M43.4256 38.8206C36.689 40.2745 31.8182 38.4086 28.3045 35.0766C27.42 34.2285 26.6204 33.2955 25.9055 32.302C25.6874 32.0233 25.4935 31.7325 25.2997 31.4296C22.7795 27.6009 21.3013 23.0088 20.4289 19.168C20.3441 18.7924 20.2714 18.4289 20.1987 18.0775C20.1987 18.0775 20.5016 18.3562 20.9499 18.5985C21.9798 19.1801 23.7367 19.5799 23.8942 15.7997V15.7633C23.9184 15.2908 23.9063 14.7334 23.87 14.1155C24.0759 17.8473 24.912 23.6752 27.8804 28.3763C28.0622 28.6913 28.2682 28.9942 28.4741 29.285C29.1769 30.2665 29.9766 31.1752 30.8974 31.987C33.769 34.5556 37.7915 36.1913 43.4256 35.9126C43.9224 35.8884 44.3949 35.8399 44.8432 35.7794C44.9038 35.7672 44.9765 35.7551 45.0492 35.743C45.3763 35.6945 45.7035 35.634 46.0064 35.5492C46.2487 35.5007 46.5031 35.428 46.7455 35.3553C46.8909 35.3068 47.0363 35.2584 47.1695 35.2099C48.054 34.8949 48.8416 34.4829 49.5443 33.9862C49.6897 33.8892 49.823 33.7802 49.9563 33.6711C50.0896 33.5621 50.235 33.4409 50.3561 33.3198C50.5015 33.1986 50.6348 33.0532 50.7681 32.9199C50.9013 32.7866 51.0346 32.6534 51.1437 32.508C51.2043 32.4474 51.2648 32.3747 51.3133 32.302C51.4223 32.1808 51.5072 32.0597 51.6041 31.9264C52.0403 31.3085 52.4159 30.6421 52.7309 29.9272C52.8521 29.6485 52.9611 29.3699 53.0702 29.0791C53.1307 28.8852 53.1913 28.6913 53.2519 28.5096C53.3246 28.2915 53.3852 28.0613 53.4458 27.8311C53.5427 27.4797 53.6154 27.1162 53.6881 26.7406C53.7002 26.7164 53.7002 26.6922 53.7002 26.6679C53.785 26.2802 53.8456 25.8925 53.8941 25.4927V25.4563C53.9425 25.0565 53.991 24.6445 54.0152 24.2447C54.0395 23.8085 54.0637 23.3602 54.0758 22.9119C54.1849 18.7318 53.4094 14.0791 52.3432 9.77786C52.1251 8.86914 51.8828 7.97253 51.6404 7.10016C51.4829 6.50646 51.3133 5.93701 51.1437 5.36754C50.5621 3.42894 49.9563 1.63574 49.4232 0.10909C49.7988 0.799717 54.403 8.94183 59.3706 0.036377C59.516 1.35705 59.6493 2.92006 59.7341 4.62845C59.7705 5.27061 59.8068 5.92489 59.8189 6.61552C59.831 6.99112 59.8432 7.37884 59.8432 7.76656C60.0128 19.483 57.6016 35.7551 43.4256 38.8206Z" fill="#FFD048" fill-opacity="0.12"></path><path opacity="0.4" d="M89.9643 0C89.9643 0 90.3036 0.605814 91.0306 1.34491C90.5217 0.728188 90.0964 0.465265 89.9401 1.34491C89.722 2.33844 89.4797 3.42891 89.201 4.59208C89.1041 5.02826 89.0071 5.47656 88.8981 5.93698C88.8496 6.14296 88.7891 6.36105 88.7406 6.57914C88.6558 6.95475 88.5588 7.34246 88.4619 7.73018C88.4498 7.79077 88.4256 7.86347 88.4135 7.92405C88.3165 8.29965 88.2196 8.68737 88.1348 9.07509C85.8812 18.0654 82.4765 29.4062 78.1873 36.8577C70.6631 49.9432 59.6858 52.209 36.786 55.1896C36.3741 55.2381 35.95 55.2986 35.526 55.3471C35.2958 55.3713 35.0534 55.4077 34.8111 55.444C33.8054 55.5652 32.7634 55.6985 31.6972 55.8318C31.4307 55.8681 31.1641 55.8923 30.9097 55.9287C30.4856 55.9772 30.0858 56.0135 29.6738 56.062C21.8346 56.8011 15.5341 55.856 10.5907 54.2445C10.1666 54.0991 9.74254 53.9537 9.34271 53.8083C10.0333 53.3358 6.81041 51.4941 5.68359 50.8762C5.80476 50.9368 5.92592 50.9974 6.04709 51.0458C6.78618 51.4214 7.56162 51.7728 8.39764 52.0999C8.40976 52.0999 8.42187 52.1121 8.43399 52.1121C8.95499 52.3181 9.4881 52.524 10.0333 52.7058C15.0616 54.4384 21.5317 55.4804 29.6738 54.7171C29.6859 54.7171 29.6859 54.7171 29.698 54.7171C30.3523 54.6444 31.0187 54.5717 31.6972 54.4869C32.7634 54.3536 33.8054 54.2203 34.8111 54.0991C35.0534 54.0628 35.2958 54.0264 35.526 54.0022C35.5381 54.0022 35.5381 54.0022 35.5502 54.0022C46.6729 52.5725 55.0453 51.3488 61.6123 49.083C63.9386 48.2712 66.0347 47.3383 67.937 46.2236C72.1171 43.7397 75.3885 40.3714 78.1873 35.5128C82.4765 28.0613 85.8812 16.7205 88.1348 7.73018C88.2196 7.34246 88.3165 6.95475 88.4135 6.57914C88.5831 5.90063 88.7406 5.23424 88.8981 4.59208C89.2858 2.92003 89.6372 1.36914 89.9401 0C89.9522 0 89.9522 0 89.9643 0Z" fill="#FFD048" fill-opacity="0.12"></path><path opacity="0.4" d="M71.5963 1.40563C70.9687 0.914921 70.4198 0.622919 70.2999 1.40563C70.1545 2.3507 69.9849 3.42904 69.7547 4.61643C69.6698 5.06473 69.5729 5.52515 69.476 5.99769C69.4396 6.19155 69.3912 6.39752 69.3427 6.6035C69.27 6.96699 69.1973 7.35472 69.1004 7.75456C69.0883 7.82726 69.064 7.91207 69.0519 7.98477C68.9671 8.36038 68.8823 8.74809 68.7854 9.13581C65.4292 23.3361 56.972 45.4361 36.8105 46.0904C32.3154 46.2358 28.7653 45.5331 26.0028 44.2245C25.3486 43.9216 24.7306 43.5823 24.1612 43.2067C22.8162 42.3344 21.7015 41.2924 20.7807 40.1292C20.6111 39.9232 20.4536 39.7173 20.2961 39.4871C20.2718 39.4628 20.2597 39.4265 20.2355 39.4022C20.0901 39.1841 19.9447 38.9782 19.7993 38.748C17.4609 35.0283 16.7339 30.3393 16.7945 25.9047C16.8187 26.7892 16.8793 27.6616 16.9762 28.5461C17.0247 29.0549 17.0974 29.5638 17.1822 30.0727C17.2307 30.3756 17.2912 30.6785 17.3518 30.9814C17.4487 31.5024 17.5699 32.0113 17.7153 32.5202C17.8001 32.8352 17.8849 33.1381 17.994 33.441C18.0667 33.7197 18.1636 33.9742 18.2727 34.2407C18.3575 34.5073 18.4665 34.7738 18.5877 35.0404C18.6967 35.3069 18.8058 35.5614 18.939 35.8158C19.3025 36.6034 19.7387 37.3425 20.2355 38.0573C20.2355 38.0573 20.2355 38.0694 20.2476 38.0694C20.4172 38.3239 20.5869 38.5541 20.7807 38.7843V38.7964C21.7137 39.9596 22.8162 40.9895 24.1612 41.8618C24.1733 41.874 24.1975 41.8861 24.2096 41.8861C27.1902 43.8126 31.2734 44.9273 36.8105 44.7455C42.4931 44.5638 47.2548 42.6736 51.2289 39.7173C51.6408 39.4265 52.0528 39.1115 52.4405 38.7843C52.5132 38.7116 52.5859 38.6631 52.6586 38.6026C53.0221 38.2997 53.3735 37.9846 53.7248 37.6575C53.737 37.6454 53.7491 37.6333 53.7612 37.6211C53.9672 37.4394 54.161 37.2455 54.3549 37.0517C54.5487 36.8699 54.7305 36.6882 54.9001 36.5065C55.203 36.2035 55.5059 35.8764 55.7967 35.5493C56.245 35.0525 56.6812 34.5557 57.1053 34.0347C57.3597 33.7197 57.602 33.4047 57.8444 33.0897C58.1109 32.7383 58.3654 32.3869 58.6198 32.0355C58.8621 31.6963 59.0924 31.357 59.3226 31.0057C59.5649 30.6543 59.7951 30.3029 60.0253 29.9394C60.3282 29.4669 60.619 28.9944 60.8977 28.5097C61.1642 28.0493 61.4308 27.5889 61.6852 27.1285C61.7095 27.08 61.7337 27.0194 61.77 26.971C63.2846 24.1721 64.5568 21.2521 65.6109 18.3684C66.3863 16.2965 67.0406 14.2489 67.598 12.286C67.8282 11.5106 68.0342 10.7473 68.2401 9.99606C68.2401 9.99606 68.2401 9.98395 68.2401 9.97184C68.434 9.23275 68.6157 8.50577 68.7854 7.79091C68.7854 7.77879 68.7975 7.76668 68.7975 7.75456C68.8823 7.37895 68.9671 7.00335 69.0519 6.63986C69.0519 6.62775 69.0519 6.61562 69.064 6.6035C69.1367 6.26424 69.2094 5.925 69.27 5.60997C69.2821 5.59786 69.27 5.58574 69.27 5.58574C69.3427 5.2586 69.4154 4.9557 69.476 4.6528C69.476 4.64068 69.476 4.62855 69.4881 4.61643C69.5608 4.26506 69.6335 3.91369 69.6941 3.57443C69.9485 2.27799 70.1424 1.10273 70.2999 0.0849609C70.4089 0.230356 70.8451 0.775584 71.5963 1.40563Z" fill="#FFD048" fill-opacity="0.12"></path><path opacity="0.4" d="M54.0765 22.9119C54.2219 30.4967 51.7865 36.8335 43.4263 37.2575C37.7922 37.5362 33.7696 35.9005 30.898 33.3319C29.9772 32.5201 29.1775 31.6114 28.4748 30.6299C28.2688 30.3391 28.0628 30.0362 27.8811 29.7212C24.9974 25.1655 24.125 19.5436 23.8948 15.7996V15.7633C23.9191 15.2908 23.907 14.7334 23.8706 14.1155C24.0766 17.8473 24.9126 23.6752 27.8811 28.3763C28.0628 28.6913 28.2688 28.9942 28.4748 29.285C29.1775 30.2664 29.9772 31.1752 30.898 31.987C33.7696 34.5556 37.7922 36.1913 43.4263 35.9126C43.923 35.8884 44.3956 35.8399 44.8439 35.7794C44.9044 35.7672 44.9771 35.7551 45.0498 35.743C45.377 35.6945 45.7041 35.634 46.007 35.5492C46.2493 35.5007 46.5038 35.428 46.7461 35.3553C46.8915 35.3068 47.0369 35.2584 47.1702 35.2099C48.0547 34.8949 48.8422 34.4829 49.545 33.9861C49.6904 33.8892 49.8236 33.7802 49.9569 33.6711C50.0902 33.5621 50.2356 33.4409 50.3568 33.3197C50.5022 33.1986 50.6354 33.0532 50.7687 32.9199C50.902 32.7866 51.0353 32.6534 51.1443 32.508C51.2049 32.4474 51.2655 32.3747 51.3139 32.302C51.423 32.1808 51.5078 32.0597 51.6047 31.9264C52.0409 31.3085 52.4165 30.6421 52.7315 29.9272C52.8527 29.6485 52.9618 29.3698 53.0708 29.0791C53.1314 28.8852 53.192 28.6913 53.2525 28.5096C53.3252 28.2915 53.3858 28.0613 53.4464 27.8311C53.5433 27.4797 53.616 27.1162 53.6887 26.7406C53.7009 26.7164 53.7009 26.6922 53.7009 26.6679C53.7736 26.2802 53.8341 25.8925 53.8947 25.4927V25.4563C53.9432 25.0565 53.9795 24.6566 54.0159 24.2447C54.0401 23.8085 54.0643 23.3602 54.0765 22.9119Z" fill="#FFD048" fill-opacity="0.12"></path><path opacity="0.2" d="M89.8605 18.0496C77.039 19.2746 62.6752 25.9482 63.1138 31.2176C63.3901 34.5387 69.4797 36.5209 72.7838 37.5956C94.9299 44.8036 123.519 35.3965 123.398 28.1316C123.3 22.3691 105.123 16.5908 89.8605 18.0496Z" fill="#FFD048"></path><path opacity="0.2" d="M100.254 48.9522C97.9546 49.5617 96.4994 52.3545 97.1682 53.6848C97.9497 55.2394 101.85 55.2309 103.958 53.4789C104.313 53.1844 105.263 52.3945 105.193 51.4215C105.08 49.8852 102.458 48.3682 100.254 48.9522Z" fill="#FFD048"></path><path opacity="0.2" d="M145.735 50.4521C136.103 51.3487 127.212 61.4125 129.069 65.8834C130.974 70.4731 145.123 71.3781 152.319 64.6488C154.705 62.417 158.074 57.7122 156.433 54.1561C154.396 49.7397 146.163 50.4121 145.735 50.4521Z" fill="#FFD048"></path><path opacity="0.3" d="M211.771 31.4295C209.998 29.8023 207.911 27.8153 205.429 25.7603C196.204 18.1198 184.54 14.0451 172.563 13.9336L63.9586 12.9207C60.451 12.888 56.9409 13.4054 53.6574 14.6388C42.5916 18.7923 37.7075 26.4389 31.3853 31.4295C37.3828 24.5233 45.6703 16.0903 50.3593 11.3771C50.9651 10.7713 51.6315 10.2382 52.3464 9.77778C54.3335 8.48134 56.684 7.77859 59.1315 7.76647H59.8464C62.209 7.75436 65.2381 7.75436 68.7639 7.75436C68.7639 7.75436 68.776 7.75436 68.7882 7.75436H69.0668C73.1864 7.73013 77.9844 7.73013 83.2308 7.73013C84.818 7.71801 86.4658 7.71801 88.1378 7.73013C88.15 7.73013 88.15 7.73013 88.1621 7.73013H88.465C92.8511 7.71801 97.4674 7.71802 102.229 7.71802C125.286 7.73013 151.47 7.80283 168.335 8.05727H168.372C171.449 8.10574 174.224 8.15419 176.611 8.21477C181.603 8.33593 184.898 8.48133 185.795 8.67519C187.176 8.96598 189.272 10.2624 191.72 12.1647C194.555 14.3456 197.863 17.3262 201.134 20.4886C201.51 20.852 201.897 21.2276 202.273 21.6032C203.848 23.1299 205.399 24.6929 206.877 26.2195C208.657 28.0612 210.329 29.8302 211.771 31.4295Z" fill="#FFD048" fill-opacity="0.12"></path><path d="M162.396 71.389H162.384C160.954 71.4012 159.476 71.4133 157.961 71.4254C159.512 71.4254 161.014 71.4133 162.468 71.4012C162.444 71.4012 162.42 71.4012 162.396 71.389ZM105.074 71.1225C103.983 71.1104 102.893 71.0983 101.814 71.0861C102.893 71.0983 103.971 71.1225 105.062 71.1346C105.982 71.1467 106.927 71.1589 107.86 71.1589C106.927 71.1467 105.995 71.1346 105.074 71.1225ZM79.884 70.759C82.7677 70.8196 85.8452 70.868 89.056 70.9165C85.8452 70.8559 82.7677 70.8075 79.884 70.759ZM162.396 71.389H162.384C160.954 71.4012 159.476 71.4133 157.961 71.4254C159.512 71.4254 161.014 71.4133 162.468 71.4012C162.444 71.4012 162.42 71.4012 162.396 71.389ZM105.074 71.1225C103.983 71.1104 102.893 71.0983 101.814 71.0861C102.893 71.0983 103.971 71.1225 105.062 71.1346C105.982 71.1467 106.927 71.1589 107.86 71.1589C106.927 71.1467 105.995 71.1346 105.074 71.1225ZM79.884 70.759C82.7677 70.8196 85.8452 70.868 89.056 70.9165C85.8452 70.8559 82.7677 70.8075 79.884 70.759ZM162.396 71.389H162.384C160.954 71.4012 159.476 71.4133 157.961 71.4254C159.512 71.4254 161.014 71.4133 162.468 71.4012C162.444 71.4012 162.42 71.4012 162.396 71.389ZM105.074 71.1225C103.983 71.1104 102.893 71.0983 101.814 71.0861C102.893 71.0983 103.971 71.1225 105.062 71.1346C105.982 71.1467 106.927 71.1589 107.86 71.1589C106.927 71.1467 105.995 71.1346 105.074 71.1225ZM79.884 70.759C82.7677 70.8196 85.8452 70.868 89.056 70.9165C85.8452 70.8559 82.7677 70.8075 79.884 70.759ZM162.396 71.389H162.384C160.954 71.4012 159.476 71.4133 157.961 71.4254C159.512 71.4254 161.014 71.4133 162.468 71.4012C162.444 71.4012 162.42 71.4012 162.396 71.389ZM105.074 71.1225C103.983 71.1104 102.893 71.0983 101.814 71.0861C102.893 71.0983 103.971 71.1225 105.062 71.1346C105.982 71.1467 106.927 71.1589 107.86 71.1589C106.927 71.1467 105.995 71.1346 105.074 71.1225ZM79.884 70.759C82.7677 70.8196 85.8452 70.868 89.056 70.9165C85.8452 70.8559 82.7677 70.8075 79.884 70.759ZM162.396 71.389H162.384C160.954 71.4012 159.476 71.4133 157.961 71.4254C159.512 71.4254 161.014 71.4133 162.468 71.4012C162.444 71.4012 162.42 71.4012 162.396 71.389ZM105.074 71.1225C103.983 71.1104 102.893 71.0983 101.814 71.0861C102.893 71.0983 103.971 71.1225 105.062 71.1346C105.982 71.1467 106.927 71.1589 107.86 71.1589C106.927 71.1467 105.995 71.1346 105.074 71.1225ZM79.884 70.759C82.7677 70.8196 85.8452 70.868 89.056 70.9165C85.8452 70.8559 82.7677 70.8075 79.884 70.759ZM79.884 70.759C82.7677 70.8196 85.8452 70.868 89.056 70.9165C85.8452 70.8559 82.7677 70.8075 79.884 70.759ZM184.06 70.4803C184.011 70.5046 183.951 70.5288 183.866 70.553C183.951 70.5409 184.011 70.5167 184.06 70.4925C184.12 70.4682 184.193 70.4319 184.253 70.3955C184.181 70.4198 184.12 70.4561 184.06 70.4803ZM179.88 70.9771C180.631 70.9408 181.297 70.8923 181.867 70.8317C181.297 70.8923 180.631 70.9286 179.88 70.9771ZM162.396 71.389H162.384C160.954 71.4012 159.476 71.4133 157.961 71.4254C159.512 71.4254 161.014 71.4133 162.468 71.4012C162.965 71.4012 163.462 71.3891 163.947 71.3769C163.438 71.3769 162.929 71.3769 162.396 71.389ZM105.074 71.1225C103.983 71.1104 102.893 71.0983 101.814 71.0861C102.893 71.0983 103.971 71.1225 105.062 71.1346C105.982 71.1467 106.927 71.1589 107.86 71.1589C106.927 71.1467 105.995 71.1346 105.074 71.1225ZM79.884 70.759C82.7677 70.8196 85.8452 70.868 89.056 70.9165C85.8452 70.8559 82.7677 70.8075 79.884 70.759ZM222.468 36.894C222.117 36.373 221.559 35.6582 220.857 34.7858C220.154 33.9256 219.306 32.9199 218.349 31.7931C217.973 31.3811 217.597 30.945 217.21 30.5088C215.574 28.655 213.684 26.571 211.648 24.4143C210.194 22.8634 208.68 21.2883 207.141 19.7374C206.753 19.3376 206.354 18.9377 205.966 18.55C203.094 15.6906 200.211 12.9644 197.606 10.7714C194.322 7.97251 191.499 6.00969 189.742 5.63408C189.197 5.52504 187.804 5.40386 185.72 5.31905C183.308 5.21 179.94 5.11308 175.869 5.02827H175.857C175.845 5.02827 175.845 5.02827 175.833 5.02827H175.821C158.991 4.70113 129.936 4.59207 103.983 4.57996C98.8944 4.57996 93.9267 4.57997 89.2014 4.59208H88.9227C88.9106 4.59208 88.9106 4.59208 88.8985 4.59208C87.4809 4.57997 86.0633 4.57997 84.6941 4.59208C79.2539 4.59208 74.1893 4.59207 69.7184 4.6163H69.4761C69.464 4.6163 69.4519 4.6163 69.4519 4.6163C65.7807 4.6163 62.4971 4.61632 59.7346 4.62843C58.111 4.62843 56.6571 4.64054 55.397 4.64054C53.9309 4.64054 52.4891 4.89499 51.1442 5.36752C50.4657 5.60985 49.8114 5.90064 49.1814 6.25201C48.6119 6.56703 48.0788 6.9184 47.5578 7.30612C47.0368 7.69384 46.5521 8.13003 46.0917 8.60257V8.61468C45.9584 8.74795 45.8252 8.89336 45.6919 9.03875C45.5586 9.17203 45.4132 9.31741 45.2678 9.46281C40.7121 14.2124 33.6483 21.7002 27.881 28.3763C27.7235 28.558 27.5659 28.7519 27.4084 28.9337C26.6693 29.7818 25.9666 30.6178 25.3002 31.4296C23.2404 33.9134 21.4715 36.1792 20.2356 38.0209C20.2235 38.033 20.2114 38.0572 20.2114 38.0693C20.0417 38.2995 19.8963 38.5298 19.7631 38.7478C18.9997 39.9352 18.5151 40.9045 18.3697 41.5952V41.6073C18.2849 41.9829 18.297 42.2616 18.4303 42.4554C18.4303 42.4554 18.4303 42.4675 18.4424 42.4675C19.3875 43.873 24.0401 49.0224 29.6984 54.7171C30.0982 55.1169 30.4981 55.5167 30.91 55.9287C31.5401 56.5466 32.1822 57.1767 32.8244 57.8067C40.6515 65.4642 49.3873 73.0853 52.7435 73.2792C54.6337 73.3882 66.9438 73.6669 83.4462 73.9335H83.4583C83.4704 73.9335 83.4704 73.9335 83.4825 73.9335H83.4946C85.93 73.9698 88.4381 74.0183 91.0309 74.0546C94.5689 74.1031 98.2522 74.1516 102.008 74.2121C139.411 74.6847 184.847 74.9149 187.913 73.5215C188.591 73.2186 189.766 72.4311 191.281 71.3042C193.862 69.3656 197.448 66.385 201.265 62.9561C201.992 62.314 202.743 61.6355 203.482 60.9569C205.53 59.0668 207.602 57.104 209.601 55.129C212.702 52.0515 215.598 48.974 217.864 46.2236C219.366 44.4183 220.602 42.7462 221.438 41.3044C221.547 41.1347 221.644 40.9651 221.717 40.7955C221.923 40.4683 222.08 40.1412 222.214 39.8383C222.274 39.7171 222.323 39.5839 222.359 39.4627C222.371 39.4506 222.371 39.4385 222.383 39.4385C222.383 39.4263 222.395 39.4142 222.395 39.4021C222.395 39.39 222.395 39.39 222.395 39.39C222.432 39.3052 222.456 39.2204 222.48 39.1477C222.492 39.0992 222.505 39.0628 222.517 39.0144C222.529 39.0023 222.541 38.9902 222.541 38.978C222.553 38.9417 222.565 38.9053 222.565 38.869C222.589 38.7721 222.614 38.6872 222.638 38.6024C222.638 38.5903 222.65 38.5782 222.65 38.5661C222.723 38.2511 222.747 37.9603 222.723 37.7058C222.71 37.3908 222.626 37.1242 222.468 36.894ZM216.87 38.3238C216.858 38.4086 216.846 38.4934 216.822 38.5903C216.749 38.9538 216.604 39.3658 216.398 39.8141C216.337 39.9595 216.265 40.1049 216.192 40.2502C215.962 40.6864 215.683 41.159 215.368 41.6557C215.283 41.8011 215.198 41.9465 215.077 42.0919C215.065 42.1162 215.053 42.1404 215.029 42.1646C214.944 42.2858 214.859 42.4069 214.762 42.5281C214.605 42.7583 214.435 42.9885 214.253 43.2187C214.12 43.4005 213.975 43.5822 213.829 43.7761C212.812 45.0846 211.576 46.5022 210.207 47.9804L210.17 48.0168L210.158 48.0289C208.401 49.919 206.414 51.9182 204.33 53.9053C203.87 54.3415 203.385 54.7898 202.913 55.2381C202.343 55.7712 201.774 56.3043 201.192 56.8253C199.132 58.7033 197.048 60.5329 195.073 62.217C195.037 62.2413 195.013 62.2655 194.976 62.3018C194.964 62.3018 194.964 62.3018 194.964 62.3018C194.14 63.0046 193.329 63.6831 192.553 64.3132C190.554 65.961 188.737 67.3786 187.258 68.4448C187.052 68.5902 186.858 68.7356 186.665 68.8689C186.543 68.9537 186.422 69.0506 186.289 69.1354C186.071 69.2808 185.865 69.4262 185.671 69.5474C185.38 69.7534 185.102 69.923 184.859 70.0563C184.641 70.1774 184.459 70.2865 184.29 70.3713C184.278 70.3834 184.266 70.3955 184.253 70.3955C184.181 70.4198 184.12 70.4561 184.06 70.4803C184.011 70.5046 183.951 70.5288 183.866 70.553C183.793 70.5773 183.708 70.6015 183.611 70.6136C183.514 70.6378 183.405 70.6621 183.272 70.6742C183.03 70.7105 182.739 70.7469 182.412 70.7832C182.4 70.7832 182.4 70.7832 182.4 70.7832C182.23 70.7953 182.06 70.8196 181.867 70.8317C181.297 70.8923 180.631 70.9286 179.88 70.9771C179.383 71.0135 178.838 71.0377 178.256 71.0619C177.371 71.1104 176.402 71.1467 175.348 71.171C174.67 71.1952 173.967 71.2194 173.228 71.2316H173.155C171.653 71.2679 170.041 71.3043 168.296 71.3285H168.199C167.351 71.3406 166.479 71.3527 165.57 71.3648H165.461C164.964 71.3769 164.468 71.3769 163.947 71.3769C163.438 71.3769 162.929 71.3769 162.396 71.389H162.384C160.954 71.4012 159.476 71.4133 157.961 71.4254H157.888C152.218 71.4496 145.93 71.4496 139.351 71.4133C138.151 71.4133 136.927 71.4133 135.704 71.4012H135.304C132.977 71.3891 130.627 71.3769 128.252 71.3527C125.708 71.3406 123.151 71.3164 120.595 71.2921H120.086C118.983 71.28 117.893 71.2679 116.79 71.2558H116.318C114.573 71.2437 112.84 71.2194 111.108 71.1952H110.671C109.738 71.1831 108.793 71.171 107.86 71.1589C106.927 71.1467 105.995 71.1346 105.074 71.1225C103.983 71.1104 102.893 71.0983 101.814 71.0861C100.324 71.0619 98.8459 71.0498 97.3799 71.0256C95.6109 71.0013 93.8783 70.9771 92.1699 70.9529C91.6004 70.9529 91.0309 70.9408 90.4736 70.9286C90.4615 70.9286 90.4615 70.9286 90.4615 70.9286C90.4494 70.9286 90.4494 70.9286 90.4372 70.9286C90.4251 70.9286 90.4251 70.9286 90.4251 70.9286C89.9647 70.9286 89.5164 70.9165 89.056 70.9165C85.8452 70.8559 82.7677 70.8075 79.884 70.759C67.2467 70.553 58.1837 70.3471 56.6208 70.2622C53.5917 70.0926 45.9221 63.7316 38.7856 57.0797C38.1071 56.4497 37.4407 55.8197 36.7864 55.1896C36.3745 54.7898 35.9625 54.3899 35.5506 54.0022C33.2364 51.7607 31.0675 49.5919 29.2622 47.726C27.9537 46.3811 26.8269 45.1816 25.9666 44.2244C25.1306 43.2914 24.5369 42.5887 24.2703 42.201C24.234 42.1525 24.2097 42.0919 24.1855 42.0313C24.1734 41.9829 24.1734 41.9344 24.1734 41.886C24.1613 41.8738 24.1613 41.8496 24.1613 41.8254C24.1249 40.7228 25.7727 38.2389 28.305 35.0766C28.9108 34.3254 29.5651 33.5378 30.2558 32.7261C30.4738 32.4837 30.6798 32.2414 30.8979 31.987C36.9318 24.9838 45.5465 16.2116 50.3566 11.3772C50.9625 10.7714 51.6288 10.2383 52.3437 9.77784C54.3308 8.4814 56.6813 7.77866 59.1288 7.76654H59.8437C62.2064 7.75442 65.2354 7.75443 68.7613 7.75443C68.7613 7.75443 68.7734 7.75443 68.7855 7.75443H69.0642C73.1837 7.7302 77.9817 7.73019 83.2281 7.73019C84.8153 7.71808 86.4631 7.71808 88.1352 7.73019C88.1473 7.73019 88.1473 7.73019 88.1594 7.73019H88.4623C92.8484 7.71808 97.4647 7.71808 102.226 7.71808C125.284 7.7302 151.467 7.8029 168.333 8.05734H168.369C171.447 8.1058 174.221 8.15425 176.608 8.21484C181.6 8.336 184.896 8.4814 185.792 8.67526C187.173 8.96605 189.27 10.2625 191.717 12.1648C194.552 14.3457 197.86 17.3263 201.131 20.4886C201.507 20.8521 201.895 21.2277 202.27 21.6033C203.845 23.13 205.396 24.693 206.875 26.2196C208.91 28.3157 210.788 30.327 212.363 32.0839C212.375 32.0839 212.375 32.0839 212.375 32.0839C212.775 32.5201 213.151 32.9563 213.514 33.3561C214.544 34.5314 215.404 35.5491 216.01 36.3125C216.022 36.3125 216.022 36.3125 216.022 36.3125C216.265 36.6275 216.471 36.9062 216.64 37.1364C216.786 37.3424 216.87 37.5847 216.883 37.8633C216.895 38.0087 216.895 38.1663 216.87 38.3238ZM79.884 70.759C82.7677 70.8196 85.8452 70.868 89.056 70.9165C85.8452 70.8559 82.7677 70.8075 79.884 70.759ZM79.884 70.759C82.7677 70.8196 85.8452 70.868 89.056 70.9165C85.8452 70.8559 82.7677 70.8075 79.884 70.759ZM105.074 71.1225C103.983 71.1104 102.893 71.0983 101.814 71.0861C102.893 71.0983 103.971 71.1225 105.062 71.1346C105.982 71.1467 106.927 71.1589 107.86 71.1589C106.927 71.1467 105.995 71.1346 105.074 71.1225ZM162.396 71.389H162.384C160.954 71.4012 159.476 71.4133 157.961 71.4254C159.512 71.4254 161.014 71.4133 162.468 71.4012C162.444 71.4012 162.42 71.4012 162.396 71.389ZM79.884 70.759C82.7677 70.8196 85.8452 70.868 89.056 70.9165C85.8452 70.8559 82.7677 70.8075 79.884 70.759ZM105.074 71.1225C103.983 71.1104 102.893 71.0983 101.814 71.0861C102.893 71.0983 103.971 71.1225 105.062 71.1346C105.982 71.1467 106.927 71.1589 107.86 71.1589C106.927 71.1467 105.995 71.1346 105.074 71.1225ZM162.396 71.389H162.384C160.954 71.4012 159.476 71.4133 157.961 71.4254C159.512 71.4254 161.014 71.4133 162.468 71.4012C162.444 71.4012 162.42 71.4012 162.396 71.389ZM79.884 70.759C82.7677 70.8196 85.8452 70.868 89.056 70.9165C85.8452 70.8559 82.7677 70.8075 79.884 70.759ZM105.074 71.1225C103.983 71.1104 102.893 71.0983 101.814 71.0861C102.893 71.0983 103.971 71.1225 105.062 71.1346C105.982 71.1467 106.927 71.1589 107.86 71.1589C106.927 71.1467 105.995 71.1346 105.074 71.1225ZM162.396 71.389H162.384C160.954 71.4012 159.476 71.4133 157.961 71.4254C159.512 71.4254 161.014 71.4133 162.468 71.4012C162.444 71.4012 162.42 71.4012 162.396 71.389ZM79.884 70.759C82.7677 70.8196 85.8452 70.868 89.056 70.9165C85.8452 70.8559 82.7677 70.8075 79.884 70.759ZM105.074 71.1225C103.983 71.1104 102.893 71.0983 101.814 71.0861C102.893 71.0983 103.971 71.1225 105.062 71.1346C105.982 71.1467 106.927 71.1589 107.86 71.1589C106.927 71.1467 105.995 71.1346 105.074 71.1225ZM162.396 71.389H162.384C160.954 71.4012 159.476 71.4133 157.961 71.4254C159.512 71.4254 161.014 71.4133 162.468 71.4012C162.444 71.4012 162.42 71.4012 162.396 71.389ZM79.884 70.759C82.7677 70.8196 85.8452 70.868 89.056 70.9165C85.8452 70.8559 82.7677 70.8075 79.884 70.759ZM105.074 71.1225C103.983 71.1104 102.893 71.0983 101.814 71.0861C102.893 71.0983 103.971 71.1225 105.062 71.1346C105.982 71.1467 106.927 71.1589 107.86 71.1589C106.927 71.1467 105.995 71.1346 105.074 71.1225ZM162.396 71.389H162.384C160.954 71.4012 159.476 71.4133 157.961 71.4254C159.512 71.4254 161.014 71.4133 162.468 71.4012C162.444 71.4012 162.42 71.4012 162.396 71.389Z" fill="url(#paint1_linear_3_15448)"></path><path opacity="0.5" d="M222.468 36.894C222.117 36.373 221.559 35.6582 220.857 34.7858C220.154 33.9256 219.306 32.9199 218.349 31.7931C217.973 31.3811 217.597 30.945 217.21 30.5088C215.574 28.655 213.684 26.571 211.648 24.4143C210.194 22.8634 208.68 21.2883 207.141 19.7374C206.753 19.3376 206.354 18.9377 205.966 18.55C203.094 15.6906 200.211 12.9644 197.606 10.7714C194.322 7.97251 191.499 6.00969 189.742 5.63408C189.197 5.52504 187.804 5.40386 185.72 5.31905C183.308 5.21 179.94 5.11308 175.869 5.02827H175.857C175.845 5.02827 175.845 5.02827 175.833 5.02827H175.821C158.991 4.70113 129.936 4.59207 103.983 4.57996C98.8944 4.57996 93.9267 4.57997 89.2014 4.59208H88.9227C88.9106 4.59208 88.9106 4.59208 88.8985 4.59208C87.4809 4.57997 86.0633 4.57997 84.6941 4.59208C79.2539 4.59208 74.1893 4.59207 69.7184 4.6163H69.4761C69.464 4.6163 69.4519 4.6163 69.4519 4.6163C65.7807 4.6163 62.4971 4.61632 59.7346 4.62843C58.111 4.62843 56.6571 4.64054 55.397 4.64054C53.9309 4.64054 52.4891 4.89499 51.1442 5.36752C50.4657 5.60985 49.8114 5.90064 49.1814 6.25201C48.6119 6.56703 48.0788 6.9184 47.5578 7.30612C47.0368 7.70595 46.5521 8.14214 46.0917 8.61468C45.9584 8.74795 45.8252 8.89336 45.6919 9.03875C45.5586 9.17203 45.4132 9.31741 45.2678 9.46281C40.7121 14.2124 33.6483 21.7002 27.881 28.3763C27.7235 28.558 27.5659 28.7519 27.4084 28.9337C26.6693 29.7818 25.9666 30.6178 25.3002 31.4296C23.2404 33.9134 21.4715 36.1792 20.2356 38.0209C20.2235 38.033 20.2114 38.0572 20.2114 38.0693C20.0417 38.2995 19.8963 38.5298 19.7631 38.7478C18.9997 39.9352 18.5151 40.9045 18.3697 41.5952V41.6073C18.2849 41.9829 18.297 42.2616 18.4303 42.4554C18.4303 42.4554 18.4303 42.4675 18.4424 42.4675C18.5151 42.31 18.5999 42.1404 18.709 41.9586C19.0846 41.2438 19.6177 40.4078 20.2598 39.4869C20.4173 39.2567 20.5749 39.0265 20.7445 38.7963V38.7842C20.7566 38.7721 20.7687 38.76 20.7808 38.7478C22.1379 36.8698 23.9068 34.6647 25.906 32.302C26.5603 31.5023 27.263 30.7026 27.9779 29.8666C28.1354 29.6728 28.305 29.4789 28.4747 29.285C34.4116 22.4757 41.4875 15.0242 45.7525 10.6017C47.376 8.90546 49.4116 7.70596 51.641 7.10014C52.7435 6.78512 53.8825 6.62761 55.0456 6.62761C56.4148 6.62761 58.0141 6.6155 59.8194 6.6155C62.4729 6.60338 65.5747 6.60337 69.0278 6.60337C69.0278 6.60337 69.0399 6.60337 69.052 6.60337H69.3065C73.6441 6.59125 78.527 6.57915 83.7733 6.57915C85.2878 6.56703 86.8387 6.56703 88.4138 6.57915C88.4259 6.57915 88.4259 6.57915 88.4381 6.57915H88.741C93.2725 6.56703 98.022 6.56702 102.881 6.56702C126.835 6.57914 153.527 6.66397 170.901 6.94264C170.913 6.94264 170.913 6.94264 170.913 6.94264C170.926 6.94264 170.926 6.94264 170.938 6.94264C170.95 6.94264 170.95 6.94264 170.95 6.94264C174.27 6.99111 177.25 7.05168 179.807 7.12438C185.017 7.25766 188.458 7.41517 189.403 7.62115C190.82 7.92406 192.941 9.28108 195.449 11.256C198.102 13.3643 201.18 16.1752 204.282 19.2164C204.681 19.6041 205.081 20.004 205.469 20.3917C207.008 21.9183 208.534 23.4813 210.013 25.0322C211.988 27.1041 213.878 29.1517 215.562 31.0298C215.962 31.466 216.337 31.9021 216.713 32.3141C217.658 33.3924 218.518 34.386 219.282 35.2826C220.59 36.8456 221.584 38.0936 222.129 38.8811C222.238 39.0265 222.311 39.1961 222.335 39.39C222.347 39.4142 222.359 39.4385 222.359 39.4627C222.42 39.3052 222.468 39.1598 222.517 39.0144C222.541 38.9659 222.553 38.9175 222.565 38.869C222.589 38.7721 222.614 38.6872 222.638 38.6024C222.638 38.5903 222.638 38.5782 222.638 38.5782C222.65 38.5661 222.65 38.5661 222.65 38.5661C222.723 38.2511 222.747 37.9603 222.723 37.7058C222.71 37.3908 222.626 37.1242 222.468 36.894Z" fill="#FFD048" fill-opacity="0.12"></path><path d="M53.6282 28.4078C53.777 28.3086 53.9879 28.1846 54.2607 28.0357C54.5583 27.8869 55.2652 27.6389 56.3813 27.2916C57.4975 26.9196 58.75 26.6344 60.139 26.4359L61.8504 52.8884C60.6847 52.9628 59.6181 53 58.6508 53C57.7083 52.9752 56.9394 52.9256 56.3441 52.8512L55.4512 52.7768L53.6282 28.4078ZM68.0636 41.6526C68.1628 41.6774 68.2868 41.727 68.4356 41.8014C68.6092 41.8758 68.8945 42.0495 69.2913 42.3223C69.713 42.5951 70.085 42.8928 70.4075 43.2152C70.7299 43.5376 71.0275 43.9717 71.3004 44.5174C71.5732 45.0382 71.722 45.5963 71.7468 46.1916C71.7716 47.2333 71.5608 48.1634 71.1144 48.9819C70.6679 49.7756 70.023 50.4205 69.1797 50.9165C68.3612 51.4126 67.4807 51.8095 66.5382 52.1071C65.5957 52.3799 64.5539 52.5907 63.413 52.7396L63.1526 49.0191C64.2439 48.3742 64.7896 47.5185 64.7896 46.452C64.7648 45.2863 64.1075 44.3933 62.8177 43.7733L62.5201 39.1971C64.2563 37.5601 64.988 36.0099 64.7152 34.5465C64.4671 33.1824 63.5618 31.9546 61.9992 30.8633L61.7016 26.2499C63.0162 26.1507 64.3059 26.2251 65.5709 26.4731C66.8606 26.6964 68.0388 27.0808 69.1053 27.6265C70.1966 28.1473 71.1144 28.879 71.8584 29.8216C72.6025 30.7641 73.0738 31.843 73.2722 33.0583C73.4706 34.1745 73.421 35.241 73.1234 36.2579C72.8506 37.2501 72.4289 38.0686 71.8584 38.7134C71.3128 39.3335 70.7547 39.8792 70.1842 40.3504C69.6138 40.7969 69.1177 41.1193 68.6961 41.3178L68.0636 41.6526ZM74.2012 28.8914L83.6511 27.8497C83.6015 28.2962 83.5395 28.879 83.4651 29.5983C83.3907 30.3176 83.2915 31.6446 83.1675 33.5792C83.0435 35.5139 82.9566 37.2749 82.907 38.8623C82.8574 40.4497 82.8822 42.0247 82.9815 43.5872C83.1055 45.1498 83.3163 46.2288 83.6139 46.824V52.8884C82.349 52.8388 81.1088 52.5163 79.8935 51.9211C78.7029 51.3258 77.6488 50.4701 76.7311 49.354C75.987 48.4362 75.3917 47.1093 74.9453 45.3731C74.4988 43.6368 74.2136 41.8634 74.0896 40.0528C73.9903 38.2174 73.9407 36.444 73.9407 34.7326C73.9407 33.0211 73.9903 31.6198 74.0896 30.5284L74.2012 28.8914ZM93.2871 28.7426C93.3367 29.1147 93.3863 29.6355 93.4359 30.3052C93.5103 30.9501 93.5724 32.1778 93.622 33.9885C93.6964 35.7991 93.6964 37.4981 93.622 39.0855C93.5724 40.6729 93.3615 42.3595 92.9895 44.1453C92.6174 45.9311 92.109 47.3573 91.4641 48.4238C89.9511 50.9041 87.8801 52.3551 85.2509 52.7768V46.7496C85.5486 46.3032 85.7966 45.6335 85.995 44.7406C86.2182 43.8477 86.3671 42.8556 86.4415 41.7642C86.5159 40.6729 86.5655 39.5195 86.5903 38.3042C86.6151 37.0888 86.6027 35.9231 86.5531 34.807C86.5283 33.6908 86.4911 32.6739 86.4415 31.7562C86.4167 30.8385 86.3795 30.1068 86.3299 29.5611L86.2927 28.7426H93.2871ZM118.574 28.2218L110.314 41.7642L107.487 36.1463L110.947 26.808L118.574 28.2218ZM106.78 37.9694L110.612 45.6335L111.244 52.5907L102.167 52.2931L102.836 40.2388L93.6095 29.1147L102.427 27.3661L106.78 37.9694ZM141.967 29.0031H149.445L147.771 51.2514L142.711 37.6717L141.967 29.0031ZM130.582 28.2218L138.953 28.4078L146.32 52.1443L142.451 52.5535L138.247 40.7597L137.651 52.5535L131.996 51.9955L130.582 28.2218ZM150.165 27.2172L157.792 26.9568L158.387 42.9548V52.9628L151.765 52.3675L150.165 27.2172ZM159.057 26.9196L168.209 26.622L167.577 36.1463L159.168 35.5883L159.057 26.9196ZM159.28 42.8432L159.205 37.7089L164.935 37.3369L164.898 43.2152L159.28 42.8432ZM180.011 27.3288L180.643 38.1554L181.35 53.4465H174.17L174.579 35.9231L168.738 36.6672L167.845 27.8497L180.011 27.3288ZM181.797 27.2544L186.782 27.0312V36.2207L182.131 35.9603L181.797 27.2544Z" fill="#FFF3CF"></path><defs><linearGradient id="paint0_linear_3_15448" x1="120.526" y1="0.000484651" x2="120.526" y2="82.5445" gradientUnits="userSpaceOnUse"><stop offset="0.2173" stop-color="#BB5924"></stop><stop offset="0.4389" stop-color="#B65320"></stop><stop offset="0.7326" stop-color="#A64216"></stop><stop offset="1" stop-color="#932D09"></stop></linearGradient><linearGradient id="paint1_linear_3_15448" x1="120.524" y1="74.5779" x2="120.524" y2="4.58044" gradientUnits="userSpaceOnUse"><stop stop-color="#BB5924"></stop><stop offset="0.0356" stop-color="#B85622"></stop><stop offset="0.4443" stop-color="#963310"></stop><stop offset="0.7803" stop-color="#821E04"></stop><stop offset="1" stop-color="#7A1600"></stop></linearGradient></defs></svg> 