<?xml version="1.0" encoding="UTF-8"?> <svg xmlns="http://www.w3.org/2000/svg" width="263" height="72" viewBox="0 0 263 72" fill="none"><rect x="4.97021" y="5.6412" width="257.522" height="65.5684" rx="12.3535" fill="#2E2A1D"></rect><rect x="0.594274" y="1.26554" width="256.572" height="64.6181" rx="11.8783" fill="#FFF3CF" stroke="#2E2A1D" stroke-width="0.950266"></rect><path d="M78.8316 40.7957V25.5455H85.9121C87.7276 25.5455 89.1945 26.0611 90.3129 27.0923C91.4458 28.109 92.0122 29.3726 92.0122 30.8831C92.0122 32.3936 91.4458 33.6644 90.3129 34.6956C89.1945 35.7123 87.7276 36.2207 85.9121 36.2207H82.0995V40.7957H78.8316ZM82.0995 33.1706H85.8032C86.7037 33.1706 87.4008 32.96 87.8946 32.5388C88.3884 32.1176 88.6354 31.5657 88.6354 30.8831C88.6354 30.2005 88.3884 29.6485 87.8946 29.2273C87.4008 28.8062 86.7037 28.5956 85.8032 28.5956H82.0995V33.1706ZM92.9968 36.4385V29.6849H96.0469V36.0028C96.0469 36.8162 96.2429 37.4407 96.6351 37.8764C97.0418 38.2976 97.6082 38.5082 98.3344 38.5082C99.0606 38.5082 99.6779 38.2322 100.186 37.6803C100.695 37.1284 100.949 36.424 100.949 35.5671V29.6849H103.999V40.7957H100.949V39.2707H100.84C100.666 39.6048 100.397 39.917 100.034 40.2075C99.2494 40.8175 98.3562 41.1225 97.354 41.1225C95.9742 41.1225 94.8995 40.7231 94.1297 39.9243C93.3744 39.1255 92.9968 37.9636 92.9968 36.4385ZM105.529 40.7957V29.6849H108.579V31.2099H108.688C108.891 30.8468 109.138 30.5418 109.429 30.2949C110.14 29.6703 110.983 29.3581 111.956 29.3581C113.118 29.3581 114.091 29.7066 114.875 30.4038C115.195 30.7088 115.456 31.0501 115.659 31.4277H115.768C115.972 31.0501 116.233 30.7088 116.553 30.4038C117.337 29.7066 118.274 29.3581 119.363 29.3581C120.699 29.3581 121.738 29.7647 122.478 30.5781C123.234 31.3769 123.611 32.5316 123.611 34.0421V40.7957H120.561V34.3689C120.561 32.7712 119.871 31.9724 118.492 31.9724C117.823 31.9724 117.257 32.2338 116.792 32.7567C116.328 33.2796 116.095 33.9622 116.095 34.8046V40.7957H113.045V34.3689C113.045 32.7712 112.355 31.9724 110.975 31.9724C110.307 31.9724 109.741 32.2338 109.276 32.7567C108.811 33.2796 108.579 33.9622 108.579 34.8046V40.7957H105.529ZM125.018 44.9351V29.6849H128.068V31.1009H128.177C128.409 30.7959 128.693 30.5055 129.027 30.2295C129.811 29.6485 130.69 29.3581 131.663 29.3581C133.115 29.3581 134.328 29.9027 135.301 30.992C136.289 32.0668 136.783 33.4829 136.783 35.2403C136.783 36.9977 136.289 38.4211 135.301 39.5104C134.328 40.5851 133.115 41.1225 131.663 41.1225C130.69 41.1225 129.811 40.832 129.027 40.2511C128.693 39.9751 128.409 39.6846 128.177 39.3796H128.068V44.9351H125.018ZM128.852 32.8438C128.33 33.4103 128.068 34.2091 128.068 35.2403C128.068 36.2715 128.33 37.0776 128.852 37.6585C129.375 38.225 130.058 38.5082 130.9 38.5082C131.699 38.5082 132.353 38.2177 132.861 37.6368C133.369 37.0558 133.624 36.257 133.624 35.2403C133.624 34.2236 133.369 33.4248 132.861 32.8438C132.353 32.2629 131.699 31.9724 130.9 31.9724C130.058 31.9724 129.375 32.2629 128.852 32.8438ZM143.215 40.7957V25.5455H154.326V28.5956H146.483V32.2992H152.583V35.2403H146.483V40.7957H143.215ZM154.764 36.4385V29.6849H157.814V36.0028C157.814 36.8162 158.01 37.4407 158.402 37.8764C158.809 38.2976 159.375 38.5082 160.101 38.5082C160.827 38.5082 161.445 38.2322 161.953 37.6803C162.461 37.1284 162.716 36.424 162.716 35.5671V29.6849H165.766V40.7957H162.716V39.2707H162.607C162.432 39.6048 162.164 39.917 161.801 40.2075C161.016 40.8175 160.123 41.1225 159.121 41.1225C157.741 41.1225 156.666 40.7231 155.897 39.9243C155.141 39.1255 154.764 37.9636 154.764 36.4385ZM167.296 40.7957V29.6849H170.346V31.2099H170.455C170.644 30.8758 170.912 30.5708 171.261 30.2949C172.06 29.6703 172.953 29.3581 173.94 29.3581C175.32 29.3581 176.388 29.7575 177.143 30.5563C177.913 31.3551 178.298 32.517 178.298 34.0421V40.7957H175.248V34.4778C175.248 33.6644 175.044 33.0472 174.638 32.626C174.245 32.1902 173.686 31.9724 172.96 31.9724C172.234 31.9724 171.617 32.2483 171.108 32.8003C170.6 33.3522 170.346 34.0566 170.346 34.9135V40.7957H167.296Z" fill="#2E2A1D"></path></svg> 