<?xml version="1.0" encoding="UTF-8"?> <svg xmlns="http://www.w3.org/2000/svg" width="342" height="132" viewBox="0 0 342 132" fill="none"><rect x="6.35254" y="10.0573" width="335.619" height="121.755" rx="13.079" fill="#2E2A1D"></rect><rect x="0.50304" y="1.0316" width="334.613" height="122.866" rx="12.576" fill="#FFF3CF" stroke="#2E2A1D" stroke-width="1.00608"></rect><path d="M20.1951 65.2892L23.1305 54.1821H28.1287L31.0641 65.2892H28.6047L27.97 62.8298H23.2892L22.6545 65.2892H20.1951ZM23.8445 60.6084H27.4147L26.3039 56.4035H24.9552L23.8445 60.6084ZM32.0528 64.353C31.3441 63.5597 30.9897 62.523 30.9897 61.243C30.9897 59.9631 31.3441 58.9317 32.0528 58.1489C32.7722 57.3556 33.6607 56.9589 34.7185 56.9589C35.4273 56.9589 36.0673 57.1704 36.6385 57.5936C36.8818 57.7946 37.088 58.0061 37.2573 58.2283H37.3366V54.1821H39.558V65.2892H37.3366V64.2578H37.2573C37.088 64.48 36.8818 64.6915 36.6385 64.8925C36.0673 65.3156 35.4273 65.5272 34.7185 65.5272C33.6607 65.5272 32.7722 65.1358 32.0528 64.353ZM33.8458 59.4976C33.4756 59.9208 33.2905 60.5026 33.2905 61.243C33.2905 61.9835 33.4756 62.5653 33.8458 62.9884C34.2161 63.4116 34.6921 63.6231 35.2739 63.6231C35.8874 63.6231 36.3846 63.4169 36.7654 63.0043C37.1462 62.5812 37.3366 61.9941 37.3366 61.243C37.3366 60.492 37.1462 59.9102 36.7654 59.4976C36.3846 59.0745 35.8874 58.863 35.2739 58.863C34.6921 58.863 34.2161 59.0745 33.8458 59.4976ZM41.3352 64.353C40.6264 63.5597 40.2721 62.523 40.2721 61.243C40.2721 59.9631 40.6264 58.9317 41.3352 58.1489C42.0545 57.3556 42.9431 56.9589 44.0009 56.9589C44.7096 56.9589 45.3496 57.1704 45.9208 57.5936C46.1641 57.7946 46.3704 58.0061 46.5396 58.2283H46.619V54.1821H48.8404V65.2892H46.619V64.2578H46.5396C46.3704 64.48 46.1641 64.6915 45.9208 64.8925C45.3496 65.3156 44.7096 65.5272 44.0009 65.5272C42.9431 65.5272 42.0545 65.1358 41.3352 64.353ZM43.1282 59.4976C42.7579 59.9208 42.5728 60.5026 42.5728 61.243C42.5728 61.9835 42.7579 62.5653 43.1282 62.9884C43.4984 63.4116 43.9744 63.6231 44.5562 63.6231C45.1698 63.6231 45.6669 63.4169 46.0477 63.0043C46.4286 62.5812 46.619 61.9941 46.619 61.243C46.619 60.492 46.4286 59.9102 46.0477 59.4976C45.6669 59.0745 45.1698 58.863 44.5562 58.863C43.9744 58.863 43.4984 59.0745 43.1282 59.4976ZM53.2082 62.6711H55.509C55.583 62.8615 55.6994 63.036 55.858 63.1947C56.1965 63.5332 56.662 63.7025 57.2543 63.7025C58.1535 63.7025 58.6031 63.438 58.6031 62.9091C58.6031 62.8245 58.5819 62.7504 58.5396 62.687C58.4973 62.6129 58.4232 62.5494 58.3175 62.4966C58.2117 62.4331 58.1112 62.3802 58.016 62.3379C57.9208 62.2956 57.778 62.2533 57.5876 62.2109C57.4077 62.1581 57.2596 62.121 57.1433 62.0999C57.0375 62.0787 56.863 62.0417 56.6197 61.9888C56.3869 61.9359 56.2177 61.8989 56.1119 61.8777C54.4406 61.5181 53.6049 60.6983 53.6049 59.4183C53.6049 58.7413 53.9064 58.1648 54.5093 57.6888C55.1228 57.2022 55.9585 56.9589 57.0163 56.9589C58.4338 56.9589 59.4969 57.3979 60.2057 58.2759C60.5124 58.6567 60.7187 59.0904 60.8245 59.577H58.6031C58.529 59.4183 58.4338 59.2861 58.3175 59.1803C57.9895 58.9158 57.5558 58.7836 57.0163 58.7836C56.6355 58.7836 56.3552 58.8471 56.1754 58.974C55.9955 59.0904 55.9056 59.2385 55.9056 59.4183C55.9056 59.4818 55.9162 59.5452 55.9374 59.6087C55.9691 59.6616 56.0167 59.7145 56.0802 59.7674C56.1436 59.8097 56.2071 59.852 56.2706 59.8943C56.334 59.9261 56.424 59.9631 56.5403 60.0054C56.6567 60.0371 56.7572 60.0689 56.8418 60.1006C56.937 60.1323 57.0587 60.1641 57.2067 60.1958C57.3548 60.2275 57.4818 60.254 57.5876 60.2751C57.6933 60.2963 57.8309 60.328 58.0001 60.3703C58.1694 60.4021 58.3069 60.4285 58.4127 60.4497C60.0734 60.8199 60.9038 61.6397 60.9038 62.9091C60.9038 63.6178 60.5759 64.2314 59.92 64.7497C59.2642 65.268 58.3756 65.5272 57.2543 65.5272C55.7522 65.5272 54.6415 65.0512 53.9222 64.0991C53.5943 63.6654 53.3563 63.1894 53.2082 62.6711ZM62.3203 64.2895C61.4847 63.4539 61.0668 62.4384 61.0668 61.243C61.0668 60.0477 61.4847 59.0375 62.3203 58.2124C63.1666 57.3767 64.2032 56.9589 65.4303 56.9589C66.6785 56.9589 67.7046 57.3714 68.5086 58.1965C69.3125 59.0216 69.7145 60.0371 69.7145 61.243V61.7191H63.3676C63.4522 62.248 63.6902 62.6975 64.0816 63.0678C64.473 63.438 64.9226 63.6231 65.4303 63.6231C65.991 63.6231 66.4723 63.4645 66.8742 63.1471C67.0329 63.0096 67.1598 62.8509 67.255 62.6711H69.6351C69.4553 63.2106 69.1908 63.6866 68.8418 64.0991C67.9955 65.0512 66.8584 65.5272 65.4303 65.5272C64.2032 65.5272 63.1666 65.1146 62.3203 64.2895ZM63.4469 60.3703H67.3344C67.2498 59.9472 67.0329 59.5928 66.6838 59.3072C66.3453 59.011 65.9275 58.863 65.4303 58.863C64.9331 58.863 64.51 59.0058 64.1609 59.2914C63.8119 59.577 63.5738 59.9366 63.4469 60.3703ZM71.0887 64.353C70.38 63.5597 70.0256 62.523 70.0256 61.243C70.0256 59.9631 70.38 58.9317 71.0887 58.1489C71.808 57.3556 72.6966 56.9589 73.7544 56.9589C74.4631 56.9589 75.1031 57.1704 75.6743 57.5936C75.9176 57.7946 76.1239 58.0061 76.2932 58.2283H76.3725V57.1969H78.5939V65.2892H76.3725V64.2578H76.2932C76.1239 64.48 75.9176 64.6915 75.6743 64.8925C75.1031 65.3156 74.4631 65.5272 73.7544 65.5272C72.6966 65.5272 71.808 65.1358 71.0887 64.353ZM72.8817 59.4976C72.5115 59.9208 72.3264 60.5026 72.3264 61.243C72.3264 61.9835 72.5115 62.5653 72.8817 62.9884C73.2519 63.4116 73.728 63.6231 74.3098 63.6231C74.9233 63.6231 75.4205 63.4169 75.8013 63.0043C76.1821 62.5812 76.3725 61.9941 76.3725 61.243C76.3725 60.492 76.1821 59.9102 75.8013 59.4976C75.4205 59.0745 74.9233 58.863 74.3098 58.863C73.728 58.863 73.2519 59.0745 72.8817 59.4976ZM79.1493 62.6711H81.45C81.5241 62.8615 81.6404 63.036 81.7991 63.1947C82.1376 63.5332 82.603 63.7025 83.1954 63.7025C84.0946 63.7025 84.5441 63.438 84.5441 62.9091C84.5441 62.8245 84.523 62.7504 84.4807 62.687C84.4384 62.6129 84.3643 62.5494 84.2585 62.4966C84.1527 62.4331 84.0522 62.3802 83.957 62.3379C83.8618 62.2956 83.719 62.2533 83.5286 62.2109C83.3488 62.1581 83.2007 62.121 83.0843 62.0999C82.9786 62.0787 82.804 62.0417 82.5607 61.9888C82.328 61.9359 82.1588 61.8989 82.053 61.8777C80.3816 61.5181 79.546 60.6983 79.546 59.4183C79.546 58.7413 79.8474 58.1648 80.4504 57.6888C81.0639 57.2022 81.8996 56.9589 82.9574 56.9589C84.3749 56.9589 85.438 57.3979 86.1467 58.2759C86.4535 58.6567 86.6598 59.0904 86.7655 59.577H84.5441C84.4701 59.4183 84.3749 59.2861 84.2585 59.1803C83.9306 58.9158 83.4969 58.7836 82.9574 58.7836C82.5766 58.7836 82.2963 58.8471 82.1164 58.974C81.9366 59.0904 81.8467 59.2385 81.8467 59.4183C81.8467 59.4818 81.8573 59.5452 81.8784 59.6087C81.9102 59.6616 81.9578 59.7145 82.0212 59.7674C82.0847 59.8097 82.1482 59.852 82.2116 59.8943C82.2751 59.9261 82.365 59.9631 82.4814 60.0054C82.5978 60.0371 82.6982 60.0689 82.7829 60.1006C82.8781 60.1323 82.9997 60.1641 83.1478 60.1958C83.2959 60.2275 83.4228 60.254 83.5286 60.2751C83.6344 60.2963 83.7719 60.328 83.9412 60.3703C84.1104 60.4021 84.2479 60.4285 84.3537 60.4497C86.0145 60.8199 86.8449 61.6397 86.8449 62.9091C86.8449 63.6178 86.517 64.2314 85.8611 64.7497C85.2053 65.268 84.3167 65.5272 83.1954 65.5272C81.6933 65.5272 80.5826 65.0512 79.8633 64.0991C79.5354 63.6654 79.2974 63.1894 79.1493 62.6711ZM88.2773 64.2895C87.431 63.4539 87.0079 62.4384 87.0079 61.243C87.0079 60.0477 87.431 59.0375 88.2773 58.2124C89.1235 57.3767 90.1813 56.9589 91.4507 56.9589C92.7095 56.9589 93.762 57.3767 94.6083 58.2124C95.4651 59.0375 95.8935 60.0477 95.8935 61.243C95.8935 62.4384 95.4651 63.4539 94.6083 64.2895C93.762 65.1146 92.7095 65.5272 91.4507 65.5272C90.1813 65.5272 89.1235 65.1146 88.2773 64.2895ZM89.9275 59.5294C89.5149 59.9737 89.3086 60.5449 89.3086 61.243C89.3086 61.9412 89.5149 62.5124 89.9275 62.9567C90.34 63.401 90.8478 63.6231 91.4507 63.6231C92.0537 63.6231 92.5614 63.401 92.974 62.9567C93.3865 62.5124 93.5928 61.9412 93.5928 61.243C93.5928 60.5449 93.3865 59.9737 92.974 59.5294C92.5614 59.0851 92.0537 58.863 91.4507 58.863C90.8478 58.863 90.34 59.0851 89.9275 59.5294ZM96.5338 65.2892V57.1969H98.7552V58.3076H98.8346C98.9721 58.0643 99.1678 57.8422 99.4216 57.6412C100.003 57.1863 100.654 56.9589 101.373 56.9589C102.378 56.9589 103.156 57.2498 103.706 57.8316C104.266 58.4134 104.547 59.2596 104.547 60.3703V65.2892H102.325V60.6877C102.325 60.0953 102.177 59.6457 101.881 59.339C101.595 59.0216 101.188 58.863 100.659 58.863C100.13 58.863 99.6808 59.0639 99.3106 59.4659C98.9403 59.8679 98.7552 60.3809 98.7552 61.005V65.2892H96.5338ZM106.25 64.353C105.541 63.5597 105.187 62.523 105.187 61.243C105.187 59.9631 105.541 58.9317 106.25 58.1489C106.969 57.3556 107.858 56.9589 108.916 56.9589C109.625 56.9589 110.265 57.1704 110.836 57.5936C111.079 57.7946 111.285 58.0061 111.455 58.2283H111.534V57.1969H113.755V65.2892H111.534V64.2578H111.455C111.285 64.48 111.079 64.6915 110.836 64.8925C110.265 65.3156 109.625 65.5272 108.916 65.5272C107.858 65.5272 106.969 65.1358 106.25 64.353ZM108.043 59.4976C107.673 59.9208 107.488 60.5026 107.488 61.243C107.488 61.9835 107.673 62.5653 108.043 62.9884C108.413 63.4116 108.889 63.6231 109.471 63.6231C110.085 63.6231 110.582 63.4169 110.963 63.0043C111.344 62.5812 111.534 61.9941 111.534 61.243C111.534 60.492 111.344 59.9102 110.963 59.4976C110.582 59.0745 110.085 58.863 109.471 58.863C108.889 58.863 108.413 59.0745 108.043 59.4976ZM114.866 65.2892V54.1821H117.087V63.3851H118.912V65.2892H114.866ZM123.126 65.2892V57.1969H125.348V58.3076H125.427C125.575 58.0431 125.755 57.821 125.967 57.6412C126.485 57.1863 127.098 56.9589 127.807 56.9589C128.653 56.9589 129.362 57.2128 129.933 57.7205C130.166 57.9427 130.356 58.1912 130.505 58.4663H130.584C130.732 58.1912 130.922 57.9427 131.155 57.7205C131.726 57.2128 132.409 56.9589 133.202 56.9589C134.175 56.9589 134.932 57.2551 135.471 57.8475C136.021 58.4292 136.296 59.2702 136.296 60.3703V65.2892H134.075V60.6084C134.075 59.4448 133.572 58.863 132.567 58.863C132.081 58.863 131.668 59.0534 131.33 59.4342C130.991 59.815 130.822 60.3122 130.822 60.9257V65.2892H128.601V60.6084C128.601 59.4448 128.098 58.863 127.093 58.863C126.607 58.863 126.194 59.0534 125.855 59.4342C125.517 59.815 125.348 60.3122 125.348 60.9257V65.2892H123.126ZM137.987 64.353C137.278 63.5597 136.924 62.523 136.924 61.243C136.924 59.9631 137.278 58.9317 137.987 58.1489C138.706 57.3556 139.595 56.9589 140.653 56.9589C141.362 56.9589 142.001 57.1704 142.573 57.5936C142.816 57.7946 143.022 58.0061 143.192 58.2283H143.271V57.1969H145.492V65.2892H143.271V64.2578H143.192C143.022 64.48 142.816 64.6915 142.573 64.8925C142.001 65.3156 141.362 65.5272 140.653 65.5272C139.595 65.5272 138.706 65.1358 137.987 64.353ZM139.78 59.4976C139.41 59.9208 139.225 60.5026 139.225 61.243C139.225 61.9835 139.41 62.5653 139.78 62.9884C140.15 63.4116 140.626 63.6231 141.208 63.6231C141.822 63.6231 142.319 63.4169 142.7 63.0043C143.08 62.5812 143.271 61.9941 143.271 61.243C143.271 60.492 143.08 59.9102 142.7 59.4976C142.319 59.0745 141.822 58.863 141.208 58.863C140.626 58.863 140.15 59.0745 139.78 59.4976ZM147.285 64.1943C146.566 63.4116 146.206 62.4013 146.206 61.1637C146.206 59.9261 146.566 58.9158 147.285 58.1331C148.005 57.3503 148.888 56.9589 149.935 56.9589C150.633 56.9589 151.273 57.1757 151.855 57.6094C152.098 57.8104 152.305 58.022 152.474 58.2441H152.553V57.1969H154.775V68.304H147.396V66.3999H152.553V64.0833H152.474C152.294 64.3372 152.088 64.554 151.855 64.7338C151.284 65.157 150.644 65.3685 149.935 65.3685C148.888 65.3685 148.005 64.9771 147.285 64.1943ZM149.078 59.4818C148.697 59.8943 148.507 60.455 148.507 61.1637C148.507 61.8724 148.697 62.4331 149.078 62.8456C149.459 63.2582 149.956 63.4645 150.57 63.4645C151.152 63.4645 151.628 63.2582 151.998 62.8456C152.368 62.4331 152.553 61.8724 152.553 61.1637C152.553 60.455 152.368 59.8943 151.998 59.4818C151.628 59.0692 151.152 58.863 150.57 58.863C149.956 58.863 149.459 59.0692 149.078 59.4818ZM156.092 55.8164C155.848 55.5731 155.727 55.2928 155.727 54.9755C155.727 54.6581 155.848 54.3831 156.092 54.1504C156.345 53.9071 156.647 53.7854 156.996 53.7854C157.345 53.7854 157.641 53.9071 157.885 54.1504C158.138 54.3831 158.265 54.6581 158.265 54.9755C158.265 55.2928 158.138 55.5731 157.885 55.8164C157.641 56.0492 157.345 56.1655 156.996 56.1655C156.647 56.1655 156.345 56.0492 156.092 55.8164ZM155.885 65.2892V57.1969H158.107V65.2892H155.885ZM159.995 64.2895C159.159 63.4539 158.741 62.4384 158.741 61.243C158.741 60.0477 159.159 59.0375 159.995 58.2124C160.841 57.3767 161.878 56.9589 163.105 56.9589C164.575 56.9589 165.697 57.4878 166.469 58.5456C166.818 59.0005 167.072 59.5294 167.23 60.1323H164.93C164.834 59.8996 164.708 59.6881 164.549 59.4976C164.147 59.0745 163.666 58.863 163.105 58.863C162.544 58.863 162.058 59.0851 161.645 59.5294C161.243 59.9737 161.042 60.5449 161.042 61.243C161.042 61.9412 161.243 62.5124 161.645 62.9567C162.058 63.401 162.544 63.6231 163.105 63.6231C163.666 63.6231 164.147 63.4116 164.549 62.9884C164.708 62.798 164.834 62.5865 164.93 62.3537H167.23C167.082 62.9673 166.839 63.4962 166.501 63.9405C165.728 64.9983 164.596 65.5272 163.105 65.5272C161.878 65.5272 160.841 65.1146 159.995 64.2895ZM167.912 65.1622C167.669 64.9189 167.547 64.6175 167.547 64.2578C167.547 63.8982 167.669 63.5967 167.912 63.3534C168.155 63.1101 168.457 62.9884 168.817 62.9884C169.176 62.9884 169.478 63.1101 169.721 63.3534C169.964 63.5967 170.086 63.8982 170.086 64.2578C170.086 64.6175 169.964 64.9189 169.721 65.1622C169.478 65.4055 169.176 65.5272 168.817 65.5272C168.457 65.5272 168.155 65.4055 167.912 65.1622ZM174.223 61.7984H176.683C176.778 62.1157 176.931 62.3961 177.143 62.6394C177.608 63.1894 178.301 63.4645 179.221 63.4645C180.596 63.4645 181.284 63.0413 181.284 62.1951C181.284 61.9835 181.21 61.7931 181.062 61.6239C180.924 61.4546 180.702 61.3065 180.395 61.1796C180.099 61.0526 179.808 60.9521 179.523 60.8781C179.248 60.7935 178.888 60.693 178.444 60.5766C178.38 60.566 178.327 60.5555 178.285 60.5449C178.253 60.5343 178.206 60.5237 178.142 60.5131C178.089 60.492 178.042 60.4761 178 60.4655C175.799 59.9366 174.699 58.8735 174.699 57.2762C174.699 56.3242 175.085 55.5203 175.857 54.8644C176.64 54.198 177.682 53.8648 178.983 53.8648C180.676 53.8648 181.956 54.436 182.823 55.5784C183.183 56.0862 183.437 56.6521 183.585 57.2762H181.125C181.062 57.0541 180.94 56.8425 180.76 56.6415C180.358 56.2184 179.766 56.0069 178.983 56.0069C178.38 56.0069 177.925 56.1232 177.619 56.3559C177.312 56.5781 177.159 56.8584 177.159 57.1969C177.159 57.8104 177.857 58.2759 179.253 58.5932C179.613 58.6778 179.835 58.7307 179.919 58.7519C180.015 58.773 180.232 58.8312 180.57 58.9264C180.919 59.0216 181.152 59.101 181.268 59.1644C181.395 59.2173 181.601 59.3072 181.887 59.4342C182.183 59.5505 182.389 59.6616 182.506 59.7674C182.633 59.8732 182.791 60.016 182.982 60.1958C183.183 60.3651 183.326 60.5396 183.41 60.7194C183.495 60.8992 183.569 61.1108 183.632 61.3541C183.706 61.5868 183.743 61.8407 183.743 62.1157C183.743 63.0995 183.347 63.9299 182.553 64.6069C181.76 65.2733 180.649 65.6065 179.221 65.6065C177.338 65.6065 175.958 64.9718 175.08 63.7025C174.667 63.1524 174.382 62.5177 174.223 61.7984ZM183.905 57.1969H186.205L187.316 63.0678H187.554L188.744 57.1969H191.6L192.79 63.0678H193.028L194.139 57.1969H196.44L194.694 65.2892H191.362L190.252 59.7357H190.093L188.982 65.2892H185.65L183.905 57.1969ZM197.587 64.353C196.878 63.5597 196.524 62.523 196.524 61.243C196.524 59.9631 196.878 58.9317 197.587 58.1489C198.306 57.3556 199.195 56.9589 200.253 56.9589C200.962 56.9589 201.602 57.1704 202.173 57.5936C202.416 57.7946 202.622 58.0061 202.792 58.2283H202.871V57.1969H205.092V65.2892H202.871V64.2578H202.792C202.622 64.48 202.416 64.6915 202.173 64.8925C201.602 65.3156 200.962 65.5272 200.253 65.5272C199.195 65.5272 198.306 65.1358 197.587 64.353ZM199.38 59.4976C199.01 59.9208 198.825 60.5026 198.825 61.243C198.825 61.9835 199.01 62.5653 199.38 62.9884C199.75 63.4116 200.226 63.6231 200.808 63.6231C201.422 63.6231 201.919 63.4169 202.3 63.0043C202.681 62.5812 202.871 61.9941 202.871 61.243C202.871 60.492 202.681 59.9102 202.3 59.4976C201.919 59.0745 201.422 58.863 200.808 58.863C200.226 58.863 199.75 59.0745 199.38 59.4976ZM206.203 68.304V57.1969H208.424V58.2283H208.504C208.673 58.0061 208.879 57.7946 209.123 57.5936C209.694 57.1704 210.334 56.9589 211.043 56.9589C212.1 56.9589 212.984 57.3556 213.692 58.1489C214.412 58.9317 214.771 59.9631 214.771 61.243C214.771 62.523 214.412 63.5597 213.692 64.353C212.984 65.1358 212.1 65.5272 211.043 65.5272C210.334 65.5272 209.694 65.3156 209.123 64.8925C208.879 64.6915 208.673 64.48 208.504 64.2578H208.424V68.304H206.203ZM208.996 59.4976C208.615 59.9102 208.424 60.492 208.424 61.243C208.424 61.9941 208.615 62.5812 208.996 63.0043C209.376 63.4169 209.874 63.6231 210.487 63.6231C211.069 63.6231 211.545 63.4116 211.915 62.9884C212.285 62.5653 212.471 61.9835 212.471 61.243C212.471 60.5026 212.285 59.9208 211.915 59.4976C211.545 59.0745 211.069 58.863 210.487 58.863C209.874 58.863 209.376 59.0745 208.996 59.4976ZM218.584 57.1969H220.885L222.471 63.3851H223.106L224.851 57.1969H227.152L223.899 68.304H221.599L222.471 65.2892H220.726L218.584 57.1969ZM228.18 64.2895C227.334 63.4539 226.911 62.4384 226.911 61.243C226.911 60.0477 227.334 59.0375 228.18 58.2124C229.027 57.3767 230.084 56.9589 231.354 56.9589C232.613 56.9589 233.665 57.3767 234.511 58.2124C235.368 59.0375 235.797 60.0477 235.797 61.243C235.797 62.4384 235.368 63.4539 234.511 64.2895C233.665 65.1146 232.613 65.5272 231.354 65.5272C230.084 65.5272 229.027 65.1146 228.18 64.2895ZM229.831 59.5294C229.418 59.9737 229.212 60.5449 229.212 61.243C229.212 61.9412 229.418 62.5124 229.831 62.9567C230.243 63.401 230.751 63.6231 231.354 63.6231C231.957 63.6231 232.465 63.401 232.877 62.9567C233.29 62.5124 233.496 61.9412 233.496 61.243C233.496 60.5449 233.29 59.9737 232.877 59.5294C232.465 59.0851 231.957 58.863 231.354 58.863C230.751 58.863 230.243 59.0851 229.831 59.5294ZM236.437 62.1157V57.1969H238.658V61.7984C238.658 62.3908 238.801 62.8456 239.087 63.163C239.383 63.4697 239.796 63.6231 240.324 63.6231C240.853 63.6231 241.303 63.4221 241.673 63.0202C242.043 62.6182 242.228 62.1052 242.228 61.481V57.1969H244.45V65.2892H242.228V64.1785H242.149C242.022 64.4218 241.827 64.6492 241.562 64.8608C240.991 65.3051 240.34 65.5272 239.61 65.5272C238.605 65.5272 237.823 65.2363 237.262 64.6545C236.712 64.0727 236.437 63.2264 236.437 62.1157ZM245.564 65.2892V57.1969H247.786V58.3869H247.865C247.96 58.1331 248.103 57.9109 248.293 57.7205C248.727 57.2657 249.272 57.0382 249.928 57.0382H250.88V59.1803H249.69C249.087 59.1803 248.616 59.3443 248.278 59.6722C247.95 59.9895 247.786 60.4338 247.786 61.005V65.2892H245.564ZM254.697 61.7984H257.156C257.251 62.1157 257.405 62.3961 257.616 62.6394C258.082 63.1894 258.775 63.4645 259.695 63.4645C261.07 63.4645 261.758 63.0413 261.758 62.1951C261.758 61.9835 261.684 61.7931 261.535 61.6239C261.398 61.4546 261.176 61.3065 260.869 61.1796C260.573 61.0526 260.282 60.9521 259.996 60.8781C259.721 60.7935 259.362 60.693 258.917 60.5766C258.854 60.566 258.801 60.5555 258.759 60.5449C258.727 60.5343 258.679 60.5237 258.616 60.5131C258.563 60.492 258.515 60.4761 258.473 60.4655C256.273 59.9366 255.173 58.8735 255.173 57.2762C255.173 56.3242 255.559 55.5203 256.331 54.8644C257.114 54.198 258.156 53.8648 259.457 53.8648C261.149 53.8648 262.429 54.436 263.297 55.5784C263.656 56.0862 263.91 56.6521 264.058 57.2762H261.599C261.535 57.0541 261.414 56.8425 261.234 56.6415C260.832 56.2184 260.24 56.0069 259.457 56.0069C258.854 56.0069 258.399 56.1232 258.092 56.3559C257.785 56.5781 257.632 56.8584 257.632 57.1969C257.632 57.8104 258.33 58.2759 259.727 58.5932C260.086 58.6778 260.308 58.7307 260.393 58.7519C260.488 58.773 260.705 58.8312 261.044 58.9264C261.393 59.0216 261.625 59.101 261.742 59.1644C261.869 59.2173 262.075 59.3072 262.361 59.4342C262.657 59.5505 262.863 59.6616 262.979 59.7674C263.106 59.8732 263.265 60.016 263.455 60.1958C263.656 60.3651 263.799 60.5396 263.884 60.7194C263.968 60.8992 264.042 61.1108 264.106 61.3541C264.18 61.5868 264.217 61.8407 264.217 62.1157C264.217 63.0995 263.82 63.9299 263.027 64.6069C262.234 65.2733 261.123 65.6065 259.695 65.6065C257.812 65.6065 256.431 64.9718 255.553 63.7025C255.141 63.1524 254.855 62.5177 254.697 61.7984ZM265.806 64.2895C264.96 63.4539 264.537 62.4384 264.537 61.243C264.537 60.0477 264.96 59.0375 265.806 58.2124C266.652 57.3767 267.71 56.9589 268.98 56.9589C270.238 56.9589 271.291 57.3767 272.137 58.2124C272.994 59.0375 273.422 60.0477 273.422 61.243C273.422 62.4384 272.994 63.4539 272.137 64.2895C271.291 65.1146 270.238 65.5272 268.98 65.5272C267.71 65.5272 266.652 65.1146 265.806 64.2895ZM267.456 59.5294C267.044 59.9737 266.838 60.5449 266.838 61.243C266.838 61.9412 267.044 62.5124 267.456 62.9567C267.869 63.401 268.377 63.6231 268.98 63.6231C269.583 63.6231 270.09 63.401 270.503 62.9567C270.915 62.5124 271.122 61.9412 271.122 61.243C271.122 60.5449 270.915 59.9737 270.503 59.5294C270.09 59.0851 269.583 58.863 268.98 58.863C268.377 58.863 267.869 59.0851 267.456 59.5294ZM274.063 65.2892V54.1821H276.284V63.3851H278.109V65.2892H274.063ZM279.177 64.353C278.468 63.5597 278.114 62.523 278.114 61.243C278.114 59.9631 278.468 58.9317 279.177 58.1489C279.896 57.3556 280.785 56.9589 281.843 56.9589C282.551 56.9589 283.191 57.1704 283.763 57.5936C284.006 57.7946 284.212 58.0061 284.381 58.2283H284.461V57.1969H286.682V65.2892H284.461V64.2578H284.381C284.212 64.48 284.006 64.6915 283.763 64.8925C283.191 65.3156 282.551 65.5272 281.843 65.5272C280.785 65.5272 279.896 65.1358 279.177 64.353ZM280.97 59.4976C280.6 59.9208 280.415 60.5026 280.415 61.243C280.415 61.9835 280.6 62.5653 280.97 62.9884C281.34 63.4116 281.816 63.6231 282.398 63.6231C283.012 63.6231 283.509 63.4169 283.89 63.0043C284.27 62.5812 284.461 61.9941 284.461 61.243C284.461 60.492 284.27 59.9102 283.89 59.4976C283.509 59.0745 283.012 58.863 282.398 58.863C281.816 58.863 281.34 59.0745 280.97 59.4976ZM287.793 65.2892V57.1969H290.014V58.3076H290.094C290.231 58.0643 290.427 57.8422 290.681 57.6412C291.262 57.1863 291.913 56.9589 292.632 56.9589C293.637 56.9589 294.415 57.2498 294.965 57.8316C295.525 58.4134 295.806 59.2596 295.806 60.3703V65.2892H293.584V60.6877C293.584 60.0953 293.436 59.6457 293.14 59.339C292.855 59.0216 292.447 58.863 291.918 58.863C291.389 58.863 290.94 59.0639 290.57 59.4659C290.199 59.8679 290.014 60.3809 290.014 61.005V65.2892H287.793ZM297.509 64.353C296.8 63.5597 296.446 62.523 296.446 61.243C296.446 59.9631 296.8 58.9317 297.509 58.1489C298.228 57.3556 299.117 56.9589 300.175 56.9589C300.884 56.9589 301.524 57.1704 302.095 57.5936C302.338 57.7946 302.544 58.0061 302.714 58.2283H302.793V57.1969H305.014V65.2892H302.793V64.2578H302.714C302.544 64.48 302.338 64.6915 302.095 64.8925C301.524 65.3156 300.884 65.5272 300.175 65.5272C299.117 65.5272 298.228 65.1358 297.509 64.353ZM299.302 59.4976C298.932 59.9208 298.747 60.5026 298.747 61.243C298.747 61.9835 298.932 62.5653 299.302 62.9884C299.672 63.4116 300.148 63.6231 300.73 63.6231C301.344 63.6231 301.841 63.4169 302.222 63.0043C302.603 62.5812 302.793 61.9941 302.793 61.243C302.793 60.492 302.603 59.9102 302.222 59.4976C301.841 59.0745 301.344 58.863 300.73 58.863C300.148 58.863 299.672 59.0745 299.302 59.4976ZM20.3537 79.2596V77.3556H21.3851V74.1821H25.9073V76.0862H23.6065V77.3556H25.4312V79.2596H23.6065V85.2892H21.3851V79.2596H20.3537ZM26.8649 84.2895C26.0186 83.4539 25.5955 82.4384 25.5955 81.243C25.5955 80.0477 26.0186 79.0375 26.8649 78.2124C27.7111 77.3767 28.7689 76.9589 30.0383 76.9589C31.2971 76.9589 32.3496 77.3767 33.1959 78.2124C34.0527 79.0375 34.4811 80.0477 34.4811 81.243C34.4811 82.4384 34.0527 83.4539 33.1959 84.2895C32.3496 85.1146 31.2971 85.5272 30.0383 85.5272C28.7689 85.5272 27.7111 85.1146 26.8649 84.2895ZM28.5151 79.5294C28.1025 79.9737 27.8962 80.5449 27.8962 81.243C27.8962 81.9412 28.1025 82.5124 28.5151 82.9567C28.9276 83.401 29.4354 83.6231 30.0383 83.6231C30.6413 83.6231 31.149 83.401 31.5616 82.9567C31.9741 82.5124 32.1804 81.9412 32.1804 81.243C32.1804 80.5449 31.9741 79.9737 31.5616 79.5294C31.149 79.0851 30.6413 78.863 30.0383 78.863C29.4354 78.863 28.9276 79.0851 28.5151 79.5294ZM35.1214 85.2892V77.1969H37.3428V78.3869H37.4222C37.5174 78.1331 37.6602 77.9109 37.8506 77.7205C38.2843 77.2657 38.8291 77.0382 39.4849 77.0382H40.4369V79.1803H39.2469C38.6439 79.1803 38.1732 79.3443 37.8347 79.6722C37.5068 79.9895 37.3428 80.4338 37.3428 81.005V85.2892H35.1214ZM44.2538 81.7984H46.7132C46.8084 82.1157 46.9618 82.3961 47.1733 82.6394C47.6388 83.1894 48.3316 83.4645 49.2519 83.4645C50.6271 83.4645 51.3147 83.0413 51.3147 82.1951C51.3147 81.9835 51.2406 81.7931 51.0925 81.6239C50.955 81.4546 50.7329 81.3065 50.4261 81.1796C50.1299 81.0526 49.839 80.9521 49.5534 80.8781C49.2784 80.7935 48.9187 80.693 48.4744 80.5766C48.411 80.566 48.3581 80.5555 48.3158 80.5449C48.284 80.5343 48.2364 80.5237 48.173 80.5131C48.1201 80.492 48.0725 80.4761 48.0302 80.4655C45.8299 79.9366 44.7298 78.8735 44.7298 77.2762C44.7298 76.4511 45.0365 75.7265 45.6501 75.1024C46.2636 74.4677 47.094 74.0763 48.1412 73.9282V72.4367H50.3626V74.0076C51.558 74.2932 52.4624 74.9173 53.0759 75.8799C53.3298 76.2925 53.5096 76.7579 53.6154 77.2762H51.156C51.0925 77.0541 50.9709 76.8425 50.7911 76.6415C50.3891 76.2184 49.7967 76.0069 49.0139 76.0069C48.411 76.0069 47.9561 76.1232 47.6493 76.3559C47.3426 76.5781 47.1892 76.8584 47.1892 77.1969C47.1892 77.8104 47.8873 78.2759 49.2837 78.5932C49.6433 78.6778 49.8655 78.7307 49.9501 78.7519C50.0453 78.773 50.2621 78.8312 50.6006 78.9264C50.9497 79.0216 51.1824 79.101 51.2988 79.1644C51.4257 79.2173 51.632 79.3072 51.9176 79.4342C52.2138 79.5505 52.4201 79.6616 52.5364 79.7674C52.6634 79.8732 52.8221 80.016 53.0125 80.1958C53.2135 80.3651 53.3563 80.5396 53.4409 80.7194C53.5255 80.8992 53.5996 81.1108 53.663 81.3541C53.7371 81.5868 53.7741 81.8407 53.7741 82.1157C53.7741 82.9514 53.4726 83.6919 52.8697 84.3372C52.2667 84.9718 51.431 85.3685 50.3626 85.5272V87.0346H48.1412V85.5113C46.7343 85.2575 45.6659 84.5699 44.936 83.4486C44.6081 82.9514 44.3807 82.4013 44.2538 81.7984ZM54.0939 81.7984H56.5533C56.6485 82.1157 56.8019 82.3961 57.0135 82.6394C57.4789 83.1894 58.1718 83.4645 59.0921 83.4645C60.4673 83.4645 61.1548 83.0413 61.1548 82.1951C61.1548 81.9835 61.0808 81.7931 60.9327 81.6239C60.7952 81.4546 60.573 81.3065 60.2663 81.1796C59.9701 81.0526 59.6792 80.9521 59.3936 80.8781C59.1185 80.7935 58.7589 80.693 58.3146 80.5766C58.2511 80.566 58.1982 80.5555 58.1559 80.5449C58.1242 80.5343 58.0766 80.5237 58.0131 80.5131C57.9602 80.492 57.9126 80.4761 57.8703 80.4655C55.6701 79.9366 54.5699 78.8735 54.5699 77.2762C54.5699 76.3242 54.956 75.5203 55.7282 74.8644C56.511 74.198 57.553 73.8648 58.8541 73.8648C60.5466 73.8648 61.8265 74.436 62.694 75.5784C63.0536 76.0862 63.3075 76.6521 63.4556 77.2762H60.9962C60.9327 77.0541 60.811 76.8425 60.6312 76.6415C60.2292 76.2184 59.6369 76.0069 58.8541 76.0069C58.2511 76.0069 57.7963 76.1232 57.4895 76.3559C57.1827 76.5781 57.0294 76.8584 57.0294 77.1969C57.0294 77.8104 57.7275 78.2759 59.1238 78.5932C59.4835 78.6778 59.7056 78.7307 59.7903 78.7519C59.8855 78.773 60.1023 78.8312 60.4408 78.9264C60.7899 79.0216 61.0226 79.101 61.139 79.1644C61.2659 79.2173 61.4722 79.3072 61.7578 79.4342C62.054 79.5505 62.2603 79.6616 62.3766 79.7674C62.5036 79.8732 62.6622 80.016 62.8526 80.1958C63.0536 80.3651 63.1964 80.5396 63.281 80.7194C63.3657 80.8992 63.4397 81.1108 63.5032 81.3541C63.5772 81.5868 63.6143 81.8407 63.6143 82.1157C63.6143 83.0995 63.2176 83.9299 62.4242 84.6069C61.6309 85.2733 60.5201 85.6065 59.0921 85.6065C57.2092 85.6065 55.8287 84.9718 54.9507 83.7025C54.5382 83.1524 54.2526 82.5177 54.0939 81.7984ZM64.0928 79.7357C64.0928 78.096 64.6746 76.7103 65.8381 75.5784C67.0123 74.436 68.4668 73.8648 70.2016 73.8648C71.9365 73.8648 73.3857 74.436 74.5493 75.5784C75.7234 76.7103 76.3105 78.096 76.3105 79.7357C76.3105 81.1637 75.8451 82.4172 74.9142 83.4962C73.9939 84.5752 72.8197 85.2416 71.3917 85.4955V88.542H69.0116V85.4955C67.5835 85.2416 66.4041 84.5752 65.4732 83.4962C64.5529 82.4172 64.0928 81.1637 64.0928 79.7357ZM67.6311 77.1176C66.9647 77.7946 66.6315 78.6673 66.6315 79.7357C66.6315 80.804 66.9647 81.682 67.6311 82.3696C68.3081 83.0466 69.165 83.3851 70.2016 83.3851C71.2383 83.3851 72.0898 83.0466 72.7563 82.3696C73.4333 81.682 73.7718 80.804 73.7718 79.7357C73.7718 78.6673 73.4333 77.7946 72.7563 77.1176C72.0898 76.43 71.2383 76.0862 70.2016 76.0862C69.165 76.0862 68.3081 76.43 67.6311 77.1176ZM77.1807 80.9257V74.1821H79.5608V80.9257C79.5608 81.6873 79.7724 82.2903 80.1955 82.7346C80.6292 83.1683 81.211 83.3851 81.9409 83.3851C82.6708 83.3851 83.2473 83.1683 83.6704 82.7346C84.1041 82.2903 84.321 81.6873 84.321 80.9257V74.1821H86.7011V80.9257C86.7011 82.3537 86.2727 83.4909 85.4158 84.3372C84.559 85.1834 83.4007 85.6065 81.9409 85.6065C80.4811 85.6065 79.3228 85.1834 78.466 84.3372C77.6092 83.4909 77.1807 82.3537 77.1807 80.9257ZM88.0455 85.2892V74.1821H90.4255V85.2892H88.0455ZM91.8579 85.2892V74.1821H97.0941C98.4164 74.1821 99.4742 74.5418 100.268 75.2611C101.061 75.9698 101.458 76.8531 101.458 77.9109C101.458 78.736 101.225 79.4395 100.759 80.0213C100.294 80.6031 99.6805 81.0368 98.9189 81.3224L101.458 85.2892H98.7602L96.4594 81.6397H94.238V85.2892H91.8579ZM94.238 79.4183H97.0148C97.6706 79.4183 98.1625 79.2861 98.4904 79.0216C98.8289 78.7466 98.9982 78.3764 98.9982 77.9109C98.9982 77.4455 98.8289 77.0805 98.4904 76.8161C98.1625 76.541 97.6706 76.4035 97.0148 76.4035H94.238V79.4183ZM102.411 85.2892V74.1821H107.647C108.969 74.1821 110.027 74.5418 110.821 75.2611C111.614 75.9698 112.011 76.8531 112.011 77.9109C112.011 78.736 111.778 79.4395 111.312 80.0213C110.847 80.6031 110.233 81.0368 109.472 81.3224L112.011 85.2892H109.313L107.012 81.6397H104.791V85.2892H102.411ZM104.791 79.4183H107.568C108.224 79.4183 108.715 79.2861 109.043 79.0216C109.382 78.7466 109.551 78.3764 109.551 77.9109C109.551 77.4455 109.382 77.0805 109.043 76.8161C108.715 76.541 108.224 76.4035 107.568 76.4035H104.791V79.4183ZM112.964 85.2892V74.1821H121.294V76.4035H115.344V78.6249H120.104V80.6877H115.344V83.0678H121.294V85.2892H112.964ZM122.324 85.2892V74.1821H124.704V83.0678H130.178V85.2892H122.324ZM130.262 84.2578C130.262 83.8982 130.384 83.5967 130.627 83.3534C130.87 83.1101 131.172 82.9884 131.532 82.9884C131.912 82.9884 132.219 83.1365 132.452 83.4327C132.685 83.7183 132.801 84.152 132.801 84.7338C132.801 85.633 132.589 86.3206 132.166 86.7966C131.743 87.2726 131.161 87.5106 130.421 87.5106V86.5586C130.77 86.5586 131.04 86.4634 131.23 86.273C131.431 86.0931 131.532 85.8445 131.532 85.5272V85.3685L131.468 85.4161C131.384 85.4373 131.299 85.4479 131.214 85.4479C130.96 85.4479 130.738 85.3368 130.548 85.1146C130.357 84.8925 130.262 84.6069 130.262 84.2578ZM136.78 79.2596V77.3556H137.811V74.1821H143.84V76.0862H140.032V77.3556H145.189V85.2892H142.968V79.2596H140.032V85.2892H137.811V79.2596H136.78ZM146.294 85.2892V74.1821H148.515V83.3851H150.34V85.2892H146.294ZM150.741 85.2892V74.1821H152.963V83.3851H154.788V85.2892H150.741ZM155.396 75.8164C155.152 75.5731 155.031 75.2928 155.031 74.9755C155.031 74.6581 155.152 74.3831 155.396 74.1504C155.649 73.9071 155.951 73.7854 156.3 73.7854C156.649 73.7854 156.945 73.9071 157.189 74.1504C157.442 74.3831 157.569 74.6581 157.569 74.9755C157.569 75.2928 157.442 75.5731 157.189 75.8164C156.945 76.0492 156.649 76.1655 156.3 76.1655C155.951 76.1655 155.649 76.0492 155.396 75.8164ZM155.189 85.2892V77.1969H157.411V85.2892H155.189ZM158.521 85.2892V77.1969H160.743V78.3076H160.822C160.96 78.0643 161.155 77.8422 161.409 77.6412C161.991 77.1863 162.642 76.9589 163.361 76.9589C164.366 76.9589 165.143 77.2498 165.693 77.8316C166.254 78.4134 166.534 79.2596 166.534 80.3703V85.2892H164.313V80.6877C164.313 80.0953 164.165 79.6457 163.869 79.339C163.583 79.0216 163.176 78.863 162.647 78.863C162.118 78.863 161.668 79.0639 161.298 79.4659C160.928 79.8679 160.743 80.3809 160.743 81.005V85.2892H158.521ZM168.254 84.1943C167.534 83.4116 167.175 82.4013 167.175 81.1637C167.175 79.9261 167.534 78.9158 168.254 78.1331C168.973 77.3503 169.856 76.9589 170.903 76.9589C171.602 76.9589 172.242 77.1757 172.823 77.6094C173.067 77.8104 173.273 78.022 173.442 78.2441H173.522V77.1969H175.743V88.304H168.365V86.3999H173.522V84.0833H173.442C173.262 84.3372 173.056 84.554 172.823 84.7338C172.252 85.157 171.612 85.3685 170.903 85.3685C169.856 85.3685 168.973 84.9771 168.254 84.1943ZM170.047 79.4818C169.666 79.8943 169.475 80.455 169.475 81.1637C169.475 81.8724 169.666 82.4331 170.047 82.8456C170.427 83.2582 170.925 83.4645 171.538 83.4645C172.12 83.4645 172.596 83.2582 172.966 82.8456C173.336 82.4331 173.522 81.8724 173.522 81.1637C173.522 80.455 173.336 79.8943 172.966 79.4818C172.596 79.0692 172.12 78.863 171.538 78.863C170.925 78.863 170.427 79.0692 170.047 79.4818ZM179.952 77.1969H182.253L183.84 83.3851H184.474L186.22 77.1969H188.52L185.268 88.304H182.967L183.84 85.2892H182.094L179.952 77.1969ZM189.549 84.2895C188.702 83.4539 188.279 82.4384 188.279 81.243C188.279 80.0477 188.702 79.0375 189.549 78.2124C190.395 77.3767 191.453 76.9589 192.722 76.9589C193.981 76.9589 195.033 77.3767 195.88 78.2124C196.737 79.0375 197.165 80.0477 197.165 81.243C197.165 82.4384 196.737 83.4539 195.88 84.2895C195.033 85.1146 193.981 85.5272 192.722 85.5272C191.453 85.5272 190.395 85.1146 189.549 84.2895ZM191.199 79.5294C190.786 79.9737 190.58 80.5449 190.58 81.243C190.58 81.9412 190.786 82.5124 191.199 82.9567C191.611 83.401 192.119 83.6231 192.722 83.6231C193.325 83.6231 193.833 83.401 194.245 82.9567C194.658 82.5124 194.864 81.9412 194.864 81.243C194.864 80.5449 194.658 79.9737 194.245 79.5294C193.833 79.0851 193.325 78.863 192.722 78.863C192.119 78.863 191.611 79.0851 191.199 79.5294ZM197.805 82.1157V77.1969H200.027V81.7984C200.027 82.3908 200.169 82.8456 200.455 83.163C200.751 83.4697 201.164 83.6231 201.693 83.6231C202.222 83.6231 202.671 83.4221 203.041 83.0202C203.412 82.6182 203.597 82.1052 203.597 81.481V77.1969H205.818V85.2892H203.597V84.1785H203.517C203.39 84.4218 203.195 84.6492 202.93 84.8608C202.359 85.3051 201.709 85.5272 200.979 85.5272C199.974 85.5272 199.191 85.2363 198.63 84.6545C198.08 84.0727 197.805 83.2264 197.805 82.1157ZM206.933 85.2892V77.1969H209.154V78.3869H209.233C209.329 78.1331 209.471 77.9109 209.662 77.7205C210.095 77.2657 210.64 77.0382 211.296 77.0382H212.248V79.1803H211.058C210.455 79.1803 209.984 79.3443 209.646 79.6722C209.318 79.9895 209.154 80.4338 209.154 81.005V85.2892H206.933ZM216.541 88.304V77.1969H218.762V78.2283H218.842C219.011 78.0061 219.217 77.7946 219.46 77.5936C220.032 77.1704 220.672 76.9589 221.38 76.9589C222.438 76.9589 223.322 77.3556 224.03 78.1489C224.75 78.9317 225.109 79.9631 225.109 81.243C225.109 82.523 224.75 83.5597 224.03 84.353C223.322 85.1358 222.438 85.5272 221.38 85.5272C220.672 85.5272 220.032 85.3156 219.46 84.8925C219.217 84.6915 219.011 84.48 218.842 84.2578H218.762V88.304H216.541ZM219.334 79.4976C218.953 79.9102 218.762 80.492 218.762 81.243C218.762 81.9941 218.953 82.5812 219.334 83.0043C219.714 83.4169 220.212 83.6231 220.825 83.6231C221.407 83.6231 221.883 83.4116 222.253 82.9884C222.623 82.5653 222.808 81.9835 222.808 81.243C222.808 80.5026 222.623 79.9208 222.253 79.4976C221.883 79.0745 221.407 78.863 220.825 78.863C220.212 78.863 219.714 79.0745 219.334 79.4976ZM226.617 84.2895C225.77 83.4539 225.347 82.4384 225.347 81.243C225.347 80.0477 225.77 79.0375 226.617 78.2124C227.463 77.3767 228.521 76.9589 229.79 76.9589C231.049 76.9589 232.101 77.3767 232.948 78.2124C233.804 79.0375 234.233 80.0477 234.233 81.243C234.233 82.4384 233.804 83.4539 232.948 84.2895C232.101 85.1146 231.049 85.5272 229.79 85.5272C228.521 85.5272 227.463 85.1146 226.617 84.2895ZM228.267 79.5294C227.854 79.9737 227.648 80.5449 227.648 81.243C227.648 81.9412 227.854 82.5124 228.267 82.9567C228.679 83.401 229.187 83.6231 229.79 83.6231C230.393 83.6231 230.901 83.401 231.313 82.9567C231.726 82.5124 231.932 81.9412 231.932 81.243C231.932 80.5449 231.726 79.9737 231.313 79.5294C230.901 79.0851 230.393 78.863 229.79 78.863C229.187 78.863 228.679 79.0851 228.267 79.5294ZM234.873 85.2892V77.1969H237.095V78.3869H237.174C237.269 78.1331 237.412 77.9109 237.602 77.7205C238.036 77.2657 238.581 77.0382 239.237 77.0382H240.189V79.1803H238.999C238.396 79.1803 237.925 79.3443 237.586 79.6722C237.259 79.9895 237.095 80.4338 237.095 81.005V85.2892H234.873ZM240.034 79.101V77.1969H241.066V75.4515H243.287V77.1969H245.572V79.101H243.287V83.3851H245.667V85.2892H241.066V79.101H240.034ZM245.66 79.2596V77.3556H246.691V74.1821H251.213V76.0862H248.913V77.3556H250.737V79.2596H248.913V85.2892H246.691V79.2596H245.66ZM252.171 84.2895C251.325 83.4539 250.902 82.4384 250.902 81.243C250.902 80.0477 251.325 79.0375 252.171 78.2124C253.017 77.3767 254.075 76.9589 255.344 76.9589C256.603 76.9589 257.656 77.3767 258.502 78.2124C259.359 79.0375 259.787 80.0477 259.787 81.243C259.787 82.4384 259.359 83.4539 258.502 84.2895C257.656 85.1146 256.603 85.5272 255.344 85.5272C254.075 85.5272 253.017 85.1146 252.171 84.2895ZM253.821 79.5294C253.409 79.9737 253.202 80.5449 253.202 81.243C253.202 81.9412 253.409 82.5124 253.821 82.9567C254.234 83.401 254.741 83.6231 255.344 83.6231C255.947 83.6231 256.455 83.401 256.868 82.9567C257.28 82.5124 257.486 81.9412 257.486 81.243C257.486 80.5449 257.28 79.9737 256.868 79.5294C256.455 79.0851 255.947 78.863 255.344 78.863C254.741 78.863 254.234 79.0851 253.821 79.5294ZM260.427 85.2892V74.1821H262.649V83.3851H264.474V85.2892H260.427ZM265.082 75.8164C264.838 75.5731 264.717 75.2928 264.717 74.9755C264.717 74.6581 264.838 74.3831 265.082 74.1504C265.335 73.9071 265.637 73.7854 265.986 73.7854C266.335 73.7854 266.631 73.9071 266.875 74.1504C267.128 74.3831 267.255 74.6581 267.255 74.9755C267.255 75.2928 267.128 75.5731 266.875 75.8164C266.631 76.0492 266.335 76.1655 265.986 76.1655C265.637 76.1655 265.335 76.0492 265.082 75.8164ZM264.875 85.2892V77.1969H267.097V85.2892H264.875ZM269.001 84.2895C268.154 83.4539 267.731 82.4384 267.731 81.243C267.731 80.0477 268.154 79.0375 269.001 78.2124C269.847 77.3767 270.905 76.9589 272.174 76.9589C273.433 76.9589 274.486 77.3767 275.332 78.2124C276.189 79.0375 276.617 80.0477 276.617 81.243C276.617 82.4384 276.189 83.4539 275.332 84.2895C274.486 85.1146 273.433 85.5272 272.174 85.5272C270.905 85.5272 269.847 85.1146 269.001 84.2895ZM270.651 79.5294C270.238 79.9737 270.032 80.5449 270.032 81.243C270.032 81.9412 270.238 82.5124 270.651 82.9567C271.063 83.401 271.571 83.6231 272.174 83.6231C272.777 83.6231 273.285 83.401 273.697 82.9567C274.11 82.5124 274.316 81.9412 274.316 81.243C274.316 80.5449 274.11 79.9737 273.697 79.5294C273.285 79.0851 272.777 78.863 272.174 78.863C271.571 78.863 271.063 79.0851 270.651 79.5294ZM280.435 77.1969H282.736L283.847 83.0678H284.085L285.275 77.1969H288.131L289.321 83.0678H289.559L290.669 77.1969H292.97L291.225 85.2892H287.893L286.782 79.7357H286.623L285.513 85.2892H282.18L280.435 77.1969ZM293.657 75.8164C293.414 75.5731 293.292 75.2928 293.292 74.9755C293.292 74.6581 293.414 74.3831 293.657 74.1504C293.911 73.9071 294.213 73.7854 294.562 73.7854C294.911 73.7854 295.207 73.9071 295.45 74.1504C295.704 74.3831 295.831 74.6581 295.831 74.9755C295.831 75.2928 295.704 75.5731 295.45 75.8164C295.207 76.0492 294.911 76.1655 294.562 76.1655C294.213 76.1655 293.911 76.0492 293.657 75.8164ZM293.451 85.2892V77.1969H295.673V85.2892H293.451ZM296.149 79.101V77.1969H297.18V75.4515H299.401V77.1969H301.686V79.101H299.401V83.3851H301.781V85.2892H297.18V79.101H296.149ZM302.409 85.2892V74.1821H304.63V78.3076H304.709C304.847 78.0643 305.043 77.8422 305.297 77.6412C305.878 77.1863 306.529 76.9589 307.248 76.9589C308.253 76.9589 309.031 77.2498 309.581 77.8316C310.141 78.4134 310.422 79.2596 310.422 80.3703V85.2892H308.2V80.6877C308.2 80.0953 308.052 79.6457 307.756 79.339C307.47 79.0216 307.063 78.863 306.534 78.863C306.005 78.863 305.556 79.0639 305.185 79.4659C304.815 79.8679 304.63 80.3809 304.63 81.005V85.2892H302.409ZM20.3537 97.1969H22.6545L23.7652 103.068H24.0032L25.1932 97.1969H28.0493L29.2394 103.068H29.4774L30.5881 97.1969H32.8888L31.1435 105.289H27.8113L26.7006 99.7357H26.542L25.4312 105.289H22.0991L20.3537 97.1969ZM34.0362 104.353C33.3275 103.56 32.9731 102.523 32.9731 101.243C32.9731 99.9631 33.3275 98.9317 34.0362 98.1489C34.7556 97.3556 35.6441 96.9589 36.7019 96.9589C37.4107 96.9589 38.0507 97.1704 38.6219 97.5936C38.8652 97.7946 39.0714 98.0061 39.2407 98.2283H39.32V97.1969H41.5414V105.289H39.32V104.258H39.2407C39.0714 104.48 38.8652 104.692 38.6219 104.893C38.0507 105.316 37.4107 105.527 36.7019 105.527C35.6441 105.527 34.7556 105.136 34.0362 104.353ZM35.8292 99.4976C35.459 99.9208 35.2739 100.503 35.2739 101.243C35.2739 101.984 35.459 102.565 35.8292 102.988C36.1995 103.412 36.6755 103.623 37.2573 103.623C37.8708 103.623 38.368 103.417 38.7488 103.004C39.1296 102.581 39.32 101.994 39.32 101.243C39.32 100.492 39.1296 99.9102 38.7488 99.4976C38.368 99.0745 37.8708 98.863 37.2573 98.863C36.6755 98.863 36.1995 99.0745 35.8292 99.4976ZM42.6522 105.289V97.1969H44.8736V98.3869H44.9529C45.0481 98.1331 45.1909 97.9109 45.3813 97.7205C45.815 97.2657 46.3598 97.0382 47.0156 97.0382H47.9677V99.1803H46.7776C46.1747 99.1803 45.704 99.3443 45.3655 99.6722C45.0375 99.9895 44.8736 100.434 44.8736 101.005V105.289H42.6522ZM48.448 105.289V97.1969H50.6694V98.3076H50.7488C50.8969 98.0431 51.0767 97.821 51.2883 97.6412C51.8066 97.1863 52.4201 96.9589 53.1289 96.9589C53.9751 96.9589 54.6839 97.2128 55.2551 97.7205C55.4878 97.9427 55.6782 98.1912 55.8263 98.4663H55.9056C56.0537 98.1912 56.2441 97.9427 56.4769 97.7205C57.0481 97.2128 57.7304 96.9589 58.5237 96.9589C59.4969 96.9589 60.2533 97.2551 60.7927 97.8475C61.3428 98.4292 61.6178 99.2702 61.6178 100.37V105.289H59.3964V100.608C59.3964 99.4448 58.894 98.863 57.889 98.863C57.4024 98.863 56.9899 99.0534 56.6514 99.4342C56.3129 99.815 56.1436 100.312 56.1436 100.926V105.289H53.9222V100.608C53.9222 99.4448 53.4198 98.863 52.4148 98.863C51.9282 98.863 51.5157 99.0534 51.1772 99.4342C50.8387 99.815 50.6694 100.312 50.6694 100.926V105.289H48.448ZM62.0077 99.101V97.1969H63.0391V95.4515H65.2605V97.1969H67.5454V99.101H65.2605V103.385H67.6406V105.289H63.0391V99.101H62.0077ZM68.2678 105.289V94.1821H70.4892V98.3076H70.5686C70.7061 98.0643 70.9018 97.8422 71.1557 97.6412C71.7375 97.1863 72.388 96.9589 73.1073 96.9589C74.1123 96.9589 74.8897 97.2498 75.4398 97.8316C76.0005 98.4134 76.2808 99.2596 76.2808 100.37V105.289H74.0594V100.688C74.0594 100.095 73.9113 99.6457 73.6151 99.339C73.3295 99.0216 72.9222 98.863 72.3933 98.863C71.8644 98.863 71.4148 99.0639 71.0446 99.4659C70.6744 99.8679 70.4892 100.381 70.4892 101.005V105.289H68.2678ZM81.7966 104.353C81.0879 103.56 80.7335 102.523 80.7335 101.243C80.7335 99.9631 81.0879 98.9317 81.7966 98.1489C82.5159 97.3556 83.4045 96.9589 84.4623 96.9589C85.1711 96.9589 85.811 97.1704 86.3823 97.5936C86.6255 97.7946 86.8318 98.0061 87.0011 98.2283H87.0804V97.1969H89.3018V105.289H87.0804V104.258H87.0011C86.8318 104.48 86.6255 104.692 86.3823 104.893C85.811 105.316 85.1711 105.527 84.4623 105.527C83.4045 105.527 82.5159 105.136 81.7966 104.353ZM83.5896 99.4976C83.2194 99.9208 83.0343 100.503 83.0343 101.243C83.0343 101.984 83.2194 102.565 83.5896 102.988C83.9599 103.412 84.4359 103.623 85.0177 103.623C85.6312 103.623 86.1284 103.417 86.5092 103.004C86.89 102.581 87.0804 101.994 87.0804 101.243C87.0804 100.492 86.89 99.9102 86.5092 99.4976C86.1284 99.0745 85.6312 98.863 85.0177 98.863C84.4359 98.863 83.9599 99.0745 83.5896 99.4976ZM90.4125 105.289V97.1969H92.6339V98.3076H92.7133C92.8508 98.0643 93.0465 97.8422 93.3004 97.6412C93.8822 97.1863 94.5327 96.9589 95.252 96.9589C96.257 96.9589 97.0345 97.2498 97.5845 97.8316C98.1452 98.4134 98.4255 99.2596 98.4255 100.37V105.289H96.2041V100.688C96.2041 100.095 96.056 99.6457 95.7598 99.339C95.4742 99.0216 95.0669 98.863 94.538 98.863C94.0091 98.863 93.5595 99.0639 93.1893 99.4659C92.8191 99.8679 92.6339 100.381 92.6339 101.005V105.289H90.4125ZM100.129 104.353C99.4201 103.56 99.0658 102.523 99.0658 101.243C99.0658 99.9631 99.4201 98.9317 100.129 98.1489C100.848 97.3556 101.737 96.9589 102.795 96.9589C103.503 96.9589 104.143 97.1704 104.714 97.5936C104.958 97.7946 105.164 98.0061 105.333 98.2283H105.413V94.1821H107.634V105.289H105.413V104.258H105.333C105.164 104.48 104.958 104.692 104.714 104.893C104.143 105.316 103.503 105.527 102.795 105.527C101.737 105.527 100.848 105.136 100.129 104.353ZM101.922 99.4976C101.552 99.9208 101.367 100.503 101.367 101.243C101.367 101.984 101.552 102.565 101.922 102.988C102.292 103.412 102.768 103.623 103.35 103.623C103.963 103.623 104.461 103.417 104.841 103.004C105.222 102.581 105.413 101.994 105.413 101.243C105.413 100.492 105.222 99.9102 104.841 99.4976C104.461 99.0745 103.963 98.863 103.35 98.863C102.768 98.863 102.292 99.0745 101.922 99.4976ZM113.335 104.29C112.499 103.454 112.081 102.438 112.081 101.243C112.081 100.048 112.499 99.0375 113.335 98.2124C114.181 97.3767 115.218 96.9589 116.445 96.9589C117.693 96.9589 118.719 97.3714 119.523 98.1965C120.327 99.0216 120.729 100.037 120.729 101.243V101.719H114.382C114.467 102.248 114.705 102.698 115.096 103.068C115.487 103.438 115.937 103.623 116.445 103.623C117.005 103.623 117.487 103.464 117.889 103.147C118.047 103.01 118.174 102.851 118.269 102.671H120.65C120.47 103.211 120.205 103.687 119.856 104.099C119.01 105.051 117.873 105.527 116.445 105.527C115.218 105.527 114.181 105.115 113.335 104.29ZM114.461 100.37H118.349C118.264 99.9472 118.047 99.5928 117.698 99.3072C117.36 99.011 116.942 98.863 116.445 98.863C115.948 98.863 115.524 99.0058 115.175 99.2914C114.826 99.577 114.588 99.9366 114.461 100.37ZM121.437 105.289V97.1969H123.658V98.3076H123.737C123.875 98.0643 124.071 97.8422 124.325 97.6412C124.906 97.1863 125.557 96.9589 126.276 96.9589C127.281 96.9589 128.059 97.2498 128.609 97.8316C129.169 98.4134 129.45 99.2596 129.45 100.37V105.289H127.228V100.688C127.228 100.095 127.08 99.6457 126.784 99.339C126.498 99.0216 126.091 98.863 125.562 98.863C125.033 98.863 124.584 99.0639 124.213 99.4659C123.843 99.8679 123.658 100.381 123.658 101.005V105.289H121.437ZM131.153 104.353C130.444 103.56 130.09 102.523 130.09 101.243C130.09 99.9631 130.444 98.9317 131.153 98.1489C131.872 97.3556 132.761 96.9589 133.819 96.9589C134.527 96.9589 135.167 97.1704 135.739 97.5936C135.982 97.7946 136.188 98.0061 136.357 98.2283H136.437V94.1821H138.658V105.289H136.437V104.258H136.357C136.188 104.48 135.982 104.692 135.739 104.893C135.167 105.316 134.527 105.527 133.819 105.527C132.761 105.527 131.872 105.136 131.153 104.353ZM132.946 99.4976C132.576 99.9208 132.391 100.503 132.391 101.243C132.391 101.984 132.576 102.565 132.946 102.988C133.316 103.412 133.792 103.623 134.374 103.623C134.988 103.623 135.485 103.417 135.866 103.004C136.246 102.581 136.437 101.994 136.437 101.243C136.437 100.492 136.246 99.9102 135.866 99.4976C135.485 99.0745 134.988 98.863 134.374 98.863C133.792 98.863 133.316 99.0745 132.946 99.4976ZM139.769 105.289V94.1821H141.99V103.385H143.815V105.289H139.769ZM144.994 104.29C144.159 103.454 143.741 102.438 143.741 101.243C143.741 100.048 144.159 99.0375 144.994 98.2124C145.84 97.3767 146.877 96.9589 148.104 96.9589C149.352 96.9589 150.378 97.3714 151.182 98.1965C151.986 99.0216 152.388 100.037 152.388 101.243V101.719H146.041C146.126 102.248 146.364 102.698 146.755 103.068C147.147 103.438 147.596 103.623 148.104 103.623C148.665 103.623 149.146 103.464 149.548 103.147C149.707 103.01 149.834 102.851 149.929 102.671H152.309C152.129 103.211 151.865 103.687 151.516 104.099C150.669 105.051 149.532 105.527 148.104 105.527C146.877 105.527 145.84 105.115 144.994 104.29ZM146.121 100.37H150.008C149.924 99.9472 149.707 99.5928 149.358 99.3072C149.019 99.011 148.601 98.863 148.104 98.863C147.607 98.863 147.184 99.0058 146.835 99.2914C146.486 99.577 146.248 99.9366 146.121 100.37ZM152.541 102.671H154.842C154.916 102.861 155.032 103.036 155.191 103.195C155.529 103.533 155.995 103.702 156.587 103.702C157.486 103.702 157.936 103.438 157.936 102.909C157.936 102.824 157.915 102.75 157.872 102.687C157.83 102.613 157.756 102.549 157.65 102.497C157.544 102.433 157.444 102.38 157.349 102.338C157.253 102.296 157.111 102.253 156.92 102.211C156.74 102.158 156.592 102.121 156.476 102.1C156.37 102.079 156.196 102.042 155.952 101.989C155.72 101.936 155.55 101.899 155.445 101.878C153.773 101.518 152.937 100.698 152.937 99.4183C152.937 98.7413 153.239 98.1648 153.842 97.6888C154.455 97.2022 155.291 96.9589 156.349 96.9589C157.766 96.9589 158.83 97.3979 159.538 98.2759C159.845 98.6567 160.051 99.0904 160.157 99.577H157.936C157.862 99.4183 157.766 99.2861 157.65 99.1803C157.322 98.9158 156.888 98.7836 156.349 98.7836C155.968 98.7836 155.688 98.8471 155.508 98.974C155.328 99.0904 155.238 99.2385 155.238 99.4183C155.238 99.4818 155.249 99.5452 155.27 99.6087C155.302 99.6616 155.349 99.7145 155.413 99.7674C155.476 99.8097 155.54 99.852 155.603 99.8943C155.667 99.9261 155.757 99.9631 155.873 100.005C155.989 100.037 156.09 100.069 156.174 100.101C156.27 100.132 156.391 100.164 156.539 100.196C156.687 100.228 156.814 100.254 156.92 100.275C157.026 100.296 157.163 100.328 157.333 100.37C157.502 100.402 157.639 100.429 157.745 100.45C159.406 100.82 160.236 101.64 160.236 102.909C160.236 103.618 159.908 104.231 159.253 104.75C158.597 105.268 157.708 105.527 156.587 105.527C155.085 105.527 153.974 105.051 153.255 104.099C152.927 103.665 152.689 103.189 152.541 102.671ZM160.32 102.671H162.621C162.695 102.861 162.811 103.036 162.97 103.195C163.308 103.533 163.774 103.702 164.366 103.702C165.265 103.702 165.715 103.438 165.715 102.909C165.715 102.824 165.694 102.75 165.651 102.687C165.609 102.613 165.535 102.549 165.429 102.497C165.324 102.433 165.223 102.38 165.128 102.338C165.033 102.296 164.89 102.253 164.699 102.211C164.52 102.158 164.372 102.121 164.255 102.1C164.149 102.079 163.975 102.042 163.732 101.989C163.499 101.936 163.33 101.899 163.224 101.878C161.552 101.518 160.717 100.698 160.717 99.4183C160.717 98.7413 161.018 98.1648 161.621 97.6888C162.235 97.2022 163.07 96.9589 164.128 96.9589C165.546 96.9589 166.609 97.3979 167.318 98.2759C167.624 98.6567 167.831 99.0904 167.936 99.577H165.715C165.641 99.4183 165.546 99.2861 165.429 99.1803C165.101 98.9158 164.668 98.7836 164.128 98.7836C163.747 98.7836 163.467 98.8471 163.287 98.974C163.107 99.0904 163.018 99.2385 163.018 99.4183C163.018 99.4818 163.028 99.5452 163.049 99.6087C163.081 99.6616 163.129 99.7145 163.192 99.7674C163.256 99.8097 163.319 99.852 163.382 99.8943C163.446 99.9261 163.536 99.9631 163.652 100.005C163.769 100.037 163.869 100.069 163.954 100.101C164.049 100.132 164.171 100.164 164.319 100.196C164.467 100.228 164.594 100.254 164.699 100.275C164.805 100.296 164.943 100.328 165.112 100.37C165.281 100.402 165.419 100.429 165.525 100.45C167.185 100.82 168.016 101.64 168.016 102.909C168.016 103.618 167.688 104.231 167.032 104.75C166.376 105.268 165.488 105.527 164.366 105.527C162.864 105.527 161.753 105.051 161.034 104.099C160.706 103.665 160.468 103.189 160.32 102.671ZM172.467 108.304V97.1969H174.689V98.2283H174.768C174.937 98.0061 175.143 97.7946 175.387 97.5936C175.958 97.1704 176.598 96.9589 177.307 96.9589C178.365 96.9589 179.248 97.3556 179.957 98.1489C180.676 98.9317 181.036 99.9631 181.036 101.243C181.036 102.523 180.676 103.56 179.957 104.353C179.248 105.136 178.365 105.527 177.307 105.527C176.598 105.527 175.958 105.316 175.387 104.893C175.143 104.692 174.937 104.48 174.768 104.258H174.689V108.304H172.467ZM175.26 99.4976C174.879 99.9102 174.689 100.492 174.689 101.243C174.689 101.994 174.879 102.581 175.26 103.004C175.641 103.417 176.138 103.623 176.751 103.623C177.333 103.623 177.809 103.412 178.179 102.988C178.55 102.565 178.735 101.984 178.735 101.243C178.735 100.503 178.55 99.9208 178.179 99.4976C177.809 99.0745 177.333 98.863 176.751 98.863C176.138 98.863 175.641 99.0745 175.26 99.4976ZM182.543 104.29C181.697 103.454 181.274 102.438 181.274 101.243C181.274 100.048 181.697 99.0375 182.543 98.2124C183.389 97.3767 184.447 96.9589 185.716 96.9589C186.975 96.9589 188.028 97.3767 188.874 98.2124C189.731 99.0375 190.159 100.048 190.159 101.243C190.159 102.438 189.731 103.454 188.874 104.29C188.028 105.115 186.975 105.527 185.716 105.527C184.447 105.527 183.389 105.115 182.543 104.29ZM184.193 99.5294C183.781 99.9737 183.574 100.545 183.574 101.243C183.574 101.941 183.781 102.512 184.193 102.957C184.606 103.401 185.113 103.623 185.716 103.623C186.319 103.623 186.827 103.401 187.24 102.957C187.652 102.512 187.858 101.941 187.858 101.243C187.858 100.545 187.652 99.9737 187.24 99.5294C186.827 99.0851 186.319 98.863 185.716 98.863C185.113 98.863 184.606 99.0851 184.193 99.5294ZM190.244 102.671H192.545C192.619 102.861 192.735 103.036 192.894 103.195C193.232 103.533 193.698 103.702 194.29 103.702C195.189 103.702 195.639 103.438 195.639 102.909C195.639 102.824 195.618 102.75 195.575 102.687C195.533 102.613 195.459 102.549 195.353 102.497C195.248 102.433 195.147 102.38 195.052 102.338C194.957 102.296 194.814 102.253 194.623 102.211C194.444 102.158 194.296 102.121 194.179 102.1C194.073 102.079 193.899 102.042 193.656 101.989C193.423 101.936 193.254 101.899 193.148 101.878C191.476 101.518 190.641 100.698 190.641 99.4183C190.641 98.7413 190.942 98.1648 191.545 97.6888C192.159 97.2022 192.994 96.9589 194.052 96.9589C195.47 96.9589 196.533 97.3979 197.242 98.2759C197.548 98.6567 197.755 99.0904 197.86 99.577H195.639C195.565 99.4183 195.47 99.2861 195.353 99.1803C195.025 98.9158 194.592 98.7836 194.052 98.7836C193.671 98.7836 193.391 98.8471 193.211 98.974C193.031 99.0904 192.942 99.2385 192.942 99.4183C192.942 99.4818 192.952 99.5452 192.973 99.6087C193.005 99.6616 193.053 99.7145 193.116 99.7674C193.18 99.8097 193.243 99.852 193.306 99.8943C193.37 99.9261 193.46 99.9631 193.576 100.005C193.693 100.037 193.793 100.069 193.878 100.101C193.973 100.132 194.095 100.164 194.243 100.196C194.391 100.228 194.518 100.254 194.623 100.275C194.729 100.296 194.867 100.328 195.036 100.37C195.205 100.402 195.343 100.429 195.449 100.45C197.109 100.82 197.94 101.64 197.94 102.909C197.94 103.618 197.612 104.231 196.956 104.75C196.3 105.268 195.412 105.527 194.29 105.527C192.788 105.527 191.677 105.051 190.958 104.099C190.63 103.665 190.392 103.189 190.244 102.671ZM198.023 102.671H200.324C200.398 102.861 200.515 103.036 200.673 103.195C201.012 103.533 201.477 103.702 202.07 103.702C202.969 103.702 203.418 103.438 203.418 102.909C203.418 102.824 203.397 102.75 203.355 102.687C203.312 102.613 203.238 102.549 203.133 102.497C203.027 102.433 202.926 102.38 202.831 102.338C202.736 102.296 202.593 102.253 202.403 102.211C202.223 102.158 202.075 102.121 201.958 102.1C201.853 102.079 201.678 102.042 201.435 101.989C201.202 101.936 201.033 101.899 200.927 101.878C199.256 101.518 198.42 100.698 198.42 99.4183C198.42 98.7413 198.722 98.1648 199.324 97.6888C199.938 97.2022 200.774 96.9589 201.832 96.9589C203.249 96.9589 204.312 97.3979 205.021 98.2759C205.328 98.6567 205.534 99.0904 205.64 99.577H203.418C203.344 99.4183 203.249 99.2861 203.133 99.1803C202.805 98.9158 202.371 98.7836 201.832 98.7836C201.451 98.7836 201.17 98.8471 200.991 98.974C200.811 99.0904 200.721 99.2385 200.721 99.4183C200.721 99.4818 200.731 99.5452 200.753 99.6087C200.784 99.6616 200.832 99.7145 200.895 99.7674C200.959 99.8097 201.022 99.852 201.086 99.8943C201.149 99.9261 201.239 99.9631 201.355 100.005C201.472 100.037 201.572 100.069 201.657 100.101C201.752 100.132 201.874 100.164 202.022 100.196C202.17 100.228 202.297 100.254 202.403 100.275C202.509 100.296 202.646 100.328 202.815 100.37C202.985 100.402 203.122 100.429 203.228 100.45C204.889 100.82 205.719 101.64 205.719 102.909C205.719 103.618 205.391 104.231 204.735 104.75C204.079 105.268 203.191 105.527 202.07 105.527C200.567 105.527 199.457 105.051 198.737 104.099C198.409 103.665 198.171 103.189 198.023 102.671ZM206.564 95.8164C206.321 95.5731 206.199 95.2928 206.199 94.9755C206.199 94.6581 206.321 94.3831 206.564 94.1504C206.818 93.9071 207.12 93.7854 207.469 93.7854C207.818 93.7854 208.114 93.9071 208.357 94.1504C208.611 94.3831 208.738 94.6581 208.738 94.9755C208.738 95.2928 208.611 95.5731 208.357 95.8164C208.114 96.0492 207.818 96.1655 207.469 96.1655C207.12 96.1655 206.818 96.0492 206.564 95.8164ZM206.358 105.289V97.1969H208.579V105.289H206.358ZM209.69 105.289V94.1821H211.912V98.2283H211.991C212.16 98.0061 212.366 97.7946 212.61 97.5936C213.181 97.1704 213.821 96.9589 214.53 96.9589C215.587 96.9589 216.471 97.3556 217.179 98.1489C217.899 98.9317 218.258 99.9631 218.258 101.243C218.258 102.523 217.899 103.56 217.179 104.353C216.471 105.136 215.587 105.527 214.53 105.527C213.821 105.527 213.181 105.316 212.61 104.893C212.366 104.692 212.16 104.48 211.991 104.258H211.912V105.289H209.69ZM212.483 99.4976C212.102 99.9102 211.912 100.492 211.912 101.243C211.912 101.994 212.102 102.581 212.483 103.004C212.864 103.417 213.361 103.623 213.974 103.623C214.556 103.623 215.032 103.412 215.402 102.988C215.773 102.565 215.958 101.984 215.958 101.243C215.958 100.503 215.773 99.9208 215.402 99.4976C215.032 99.0745 214.556 98.863 213.974 98.863C213.361 98.863 212.864 99.0745 212.483 99.4976ZM219.179 95.8164C218.935 95.5731 218.814 95.2928 218.814 94.9755C218.814 94.6581 218.935 94.3831 219.179 94.1504C219.433 93.9071 219.734 93.7854 220.083 93.7854C220.432 93.7854 220.728 93.9071 220.972 94.1504C221.226 94.3831 221.353 94.6581 221.353 94.9755C221.353 95.2928 221.226 95.5731 220.972 95.8164C220.728 96.0492 220.432 96.1655 220.083 96.1655C219.734 96.1655 219.433 96.0492 219.179 95.8164ZM218.972 105.289V97.1969H221.194V105.289H218.972ZM222.305 105.289V94.1821H224.526V103.385H226.351V105.289H222.305ZM226.959 95.8164C226.715 95.5731 226.594 95.2928 226.594 94.9755C226.594 94.6581 226.715 94.3831 226.959 94.1504C227.213 93.9071 227.514 93.7854 227.863 93.7854C228.212 93.7854 228.508 93.9071 228.752 94.1504C229.005 94.3831 229.132 94.6581 229.132 94.9755C229.132 95.2928 229.005 95.5731 228.752 95.8164C228.508 96.0492 228.212 96.1655 227.863 96.1655C227.514 96.1655 227.213 96.0492 226.959 95.8164ZM226.752 105.289V97.1969H228.974V105.289H226.752ZM229.45 99.101V97.1969H230.481V95.4515H232.703V97.1969H234.987V99.101H232.703V103.385H235.083V105.289H230.481V99.101H229.45ZM235.916 95.8164C235.673 95.5731 235.551 95.2928 235.551 94.9755C235.551 94.6581 235.673 94.3831 235.916 94.1504C236.17 93.9071 236.472 93.7854 236.821 93.7854C237.17 93.7854 237.466 93.9071 237.709 94.1504C237.963 94.3831 238.09 94.6581 238.09 94.9755C238.09 95.2928 237.963 95.5731 237.709 95.8164C237.466 96.0492 237.17 96.1655 236.821 96.1655C236.472 96.1655 236.17 96.0492 235.916 95.8164ZM235.71 105.289V97.1969H237.931V105.289H235.71ZM239.82 104.29C238.984 103.454 238.566 102.438 238.566 101.243C238.566 100.048 238.984 99.0375 239.82 98.2124C240.666 97.3767 241.702 96.9589 242.929 96.9589C244.178 96.9589 245.204 97.3714 246.008 98.1965C246.812 99.0216 247.214 100.037 247.214 101.243V101.719H240.867C240.951 102.248 241.189 102.698 241.581 103.068C241.972 103.438 242.422 103.623 242.929 103.623C243.49 103.623 243.971 103.464 244.373 103.147C244.532 103.01 244.659 102.851 244.754 102.671H247.134C246.954 103.211 246.69 103.687 246.341 104.099C245.495 105.051 244.358 105.527 242.929 105.527C241.702 105.527 240.666 105.115 239.82 104.29ZM240.946 100.37H244.834C244.749 99.9472 244.532 99.5928 244.183 99.3072C243.845 99.011 243.427 98.863 242.929 98.863C242.432 98.863 242.009 99.0058 241.66 99.2914C241.311 99.577 241.073 99.9366 240.946 100.37ZM247.366 102.671H249.667C249.741 102.861 249.857 103.036 250.016 103.195C250.354 103.533 250.82 103.702 251.412 103.702C252.311 103.702 252.761 103.438 252.761 102.909C252.761 102.824 252.74 102.75 252.698 102.687C252.655 102.613 252.581 102.549 252.475 102.497C252.37 102.433 252.269 102.38 252.174 102.338C252.079 102.296 251.936 102.253 251.745 102.211C251.566 102.158 251.418 102.121 251.301 102.1C251.195 102.079 251.021 102.042 250.778 101.989C250.545 101.936 250.376 101.899 250.27 101.878C248.598 101.518 247.763 100.698 247.763 99.4183C247.763 98.7413 248.064 98.1648 248.667 97.6888C249.281 97.2022 250.116 96.9589 251.174 96.9589C252.592 96.9589 253.655 97.3979 254.364 98.2759C254.67 98.6567 254.877 99.0904 254.982 99.577H252.761C252.687 99.4183 252.592 99.2861 252.475 99.1803C252.147 98.9158 251.714 98.7836 251.174 98.7836C250.793 98.7836 250.513 98.8471 250.333 98.974C250.153 99.0904 250.064 99.2385 250.064 99.4183C250.064 99.4818 250.074 99.5452 250.095 99.6087C250.127 99.6616 250.175 99.7145 250.238 99.7674C250.302 99.8097 250.365 99.852 250.429 99.8943C250.492 99.9261 250.582 99.9631 250.698 100.005C250.815 100.037 250.915 100.069 251 100.101C251.095 100.132 251.217 100.164 251.365 100.196C251.513 100.228 251.64 100.254 251.745 100.275C251.851 100.296 251.989 100.328 252.158 100.37C252.327 100.402 252.465 100.429 252.571 100.45C254.231 100.82 255.062 101.64 255.062 102.909C255.062 103.618 254.734 104.231 254.078 104.75C253.422 105.268 252.534 105.527 251.412 105.527C249.91 105.527 248.799 105.051 248.08 104.099C247.752 103.665 247.514 103.189 247.366 102.671ZM255.748 105.162C255.505 104.919 255.383 104.617 255.383 104.258C255.383 103.898 255.505 103.597 255.748 103.353C255.992 103.11 256.293 102.988 256.653 102.988C257.012 102.988 257.314 103.11 257.557 103.353C257.801 103.597 257.922 103.898 257.922 104.258C257.922 104.617 257.801 104.919 257.557 105.162C257.314 105.406 257.012 105.527 256.653 105.527C256.293 105.527 255.992 105.406 255.748 105.162Z" fill="#2E2A1D"></path><path d="M20.6535 34.2847H24.7409C24.8699 34.6433 25.0636 34.9516 25.3217 35.2098C25.924 35.8121 26.7702 36.1133 27.8602 36.1133C28.6203 36.1133 29.1867 35.9914 29.5596 35.7476C29.9325 35.5038 30.1189 35.1954 30.1189 34.8225C30.1189 34.6648 30.0759 34.5214 29.9899 34.3923C29.9182 34.2489 29.7891 34.1198 29.6027 34.0051C29.4306 33.8903 29.2585 33.7971 29.0864 33.7254C28.9143 33.6394 28.6633 33.5533 28.3334 33.4673C28.0179 33.3669 27.7526 33.288 27.5375 33.2306C27.3223 33.1733 27.0068 33.0944 26.5909 32.994C26.1894 32.8936 25.881 32.8147 25.6659 32.7574C24.3035 32.3845 23.2135 31.8682 22.396 31.2085C21.5929 30.5488 21.1913 29.6022 21.1913 28.3688C21.1913 27.0638 21.7507 25.9523 22.8693 25.0344C24.0023 24.1022 25.5225 23.6361 27.4299 23.6361C29.868 23.6361 31.6893 24.4249 32.894 26.0025C33.4247 26.6909 33.7904 27.4797 33.9912 28.3688H29.9038C29.8178 28.1394 29.6744 27.9243 29.4736 27.7235C29.0146 27.2932 28.3334 27.0781 27.4299 27.0781C26.7272 27.0781 26.2109 27.1857 25.881 27.4008C25.5512 27.6016 25.3862 27.8525 25.3862 28.1537C25.3862 28.5553 25.6229 28.878 26.0961 29.1218C26.5838 29.3512 27.2937 29.5735 28.2259 29.7887C28.7708 29.9177 29.1581 30.0181 29.3875 30.0898C29.6313 30.1472 30.0114 30.2619 30.5277 30.434C31.0583 30.5918 31.4599 30.7424 31.7324 30.8858C32.0049 31.0292 32.3275 31.23 32.7004 31.4881C33.0876 31.7319 33.3745 31.9973 33.5609 32.2841C33.7617 32.5566 33.9338 32.8936 34.0772 33.2952C34.235 33.6967 34.3138 34.1341 34.3138 34.6074C34.3138 35.9842 33.7474 37.153 32.6144 38.1139C31.4814 39.0748 29.8967 39.5552 27.8602 39.5552C25.3074 39.5552 23.3426 38.6804 21.9658 36.9307C21.3778 36.1706 20.9404 35.2886 20.6535 34.2847ZM34.3231 27.7235V24.0664H47.7683V27.7235H43.0356V39.125H39.0558V27.7235H34.3231ZM48.5111 39.125V24.0664H60.1278V27.7235H52.4909V29.9823H58.6219V33.2091H52.4909V35.4679H60.1278V39.125H48.5111ZM61.516 39.125V24.0664H68.8302C70.6802 24.0664 72.1789 24.597 73.3262 25.6583C74.4879 26.7052 75.0687 28.0031 75.0687 29.552C75.0687 31.1009 74.4879 32.406 73.3262 33.4673C72.1789 34.5142 70.6802 35.0377 68.8302 35.0377H65.4958V39.125H61.516ZM65.4958 31.3806H68.7226C69.4684 31.3806 70.0277 31.2156 70.4006 30.8858C70.7878 30.5559 70.9814 30.1113 70.9814 29.552C70.9814 28.9927 70.7878 28.5481 70.4006 28.2183C70.0277 27.8884 69.4684 27.7235 68.7226 27.7235H65.4958V31.3806ZM79.7931 34.3923H83.8804C83.9664 34.7221 84.1242 35.009 84.3537 35.2528C84.8413 35.8264 85.544 36.1133 86.4619 36.1133C87.1933 36.1133 87.7669 35.9412 88.1829 35.597C88.6131 35.2384 88.8282 34.801 88.8282 34.2847C88.8282 33.7828 88.6131 33.3525 88.1829 32.994C87.7669 32.6355 87.1933 32.4562 86.4619 32.4562H83.0199V29.8747L86.4619 27.7235V27.5084H80.6535V24.0664H91.9475V27.5084L88.6131 29.552L88.3765 29.6381V29.8962L88.4195 29.8747C89.6959 29.8747 90.7643 30.2978 91.6248 31.1439C92.4853 31.9901 92.9156 33.037 92.9156 34.2847C92.9156 35.7906 92.3347 37.0455 91.1731 38.0494C90.0114 39.0533 88.441 39.5552 86.4619 39.5552C83.9234 39.5552 82.059 38.6948 80.8687 36.9738C80.3237 36.2137 79.9651 35.3532 79.7931 34.3923ZM94.016 38.8884C93.6432 38.5155 93.4567 38.0566 93.4567 37.5116C93.4567 36.9666 93.6432 36.5077 94.016 36.1348C94.3889 35.7619 94.8479 35.5755 95.3928 35.5755C95.9378 35.5755 96.3967 35.7619 96.7696 36.1348C97.1425 36.5077 97.3289 36.9666 97.3289 37.5116C97.3289 38.0566 97.1425 38.5155 96.7696 38.8884C96.3967 39.2612 95.9378 39.4477 95.3928 39.4477C94.8479 39.4477 94.3889 39.2612 94.016 38.8884ZM94.016 31.0579C93.6432 30.685 93.4567 30.2261 93.4567 29.6811C93.4567 29.1361 93.6432 28.6772 94.016 28.3043C94.3889 27.9314 94.8479 27.745 95.3928 27.745C95.9378 27.745 96.3967 27.9314 96.7696 28.3043C97.1425 28.6772 97.3289 29.1361 97.3289 29.6811C97.3289 30.2261 97.1425 30.685 96.7696 31.0579C96.3967 31.4308 95.9378 31.6172 95.3928 31.6172C94.8479 31.6172 94.3889 31.4308 94.016 31.0579Z" fill="#2E2A1D"></path></svg> 