<?xml version="1.0" encoding="UTF-8"?> <svg xmlns="http://www.w3.org/2000/svg" width="263" height="72" viewBox="0 0 263 72" fill="none"><rect x="4.85059" y="5.6412" width="257.522" height="65.5684" rx="12.3535" fill="#2E2A1D"></rect><rect x="0.475133" y="1.26554" width="256.572" height="64.6181" rx="11.8783" fill="#FFF3CF" stroke="#2E2A1D" stroke-width="0.950266"></rect><path d="M52.1829 28.5956V25.5455H65.2545V28.5956H60.3526V40.7957H57.0847V28.5956H52.1829ZM66.0187 39.4232C64.8568 38.2758 64.2758 36.8815 64.2758 35.2403C64.2758 33.5991 64.8568 32.212 66.0187 31.0792C67.1806 29.9318 68.633 29.3581 70.3759 29.3581C72.1043 29.3581 73.5494 29.9318 74.7114 31.0792C75.8878 32.212 76.476 33.5991 76.476 35.2403C76.476 36.8815 75.8878 38.2758 74.7114 39.4232C73.5494 40.5561 72.1043 41.1225 70.3759 41.1225C68.633 41.1225 67.1806 40.5561 66.0187 39.4232ZM68.2845 32.8874C67.718 33.4974 67.4348 34.2817 67.4348 35.2403C67.4348 36.1989 67.718 36.9832 68.2845 37.5932C68.8509 38.2032 69.5481 38.5082 70.3759 38.5082C71.2038 38.5082 71.901 38.2032 72.4674 37.5932C73.0338 36.9832 73.317 36.1989 73.317 35.2403C73.317 34.2817 73.0338 33.4974 72.4674 32.8874C71.901 32.2774 71.2038 31.9724 70.3759 31.9724C69.5481 31.9724 68.8509 32.2774 68.2845 32.8874ZM76.4837 32.2992V29.6849H77.8998V27.2884H80.9498V29.6849H84.087V32.2992H80.9498V38.1814H84.2177V40.7957H77.8998V32.2992H76.4837ZM85.994 39.5104C85.0209 38.4211 84.5343 36.9977 84.5343 35.2403C84.5343 33.4829 85.0209 32.0668 85.994 30.992C86.9816 29.9027 88.2016 29.3581 89.654 29.3581C90.6271 29.3581 91.5058 29.6485 92.2901 30.2295C92.6242 30.5055 92.9074 30.7959 93.1398 31.1009H93.2487V29.6849H96.2988V40.7957H93.2487V39.3796H93.1398C92.9074 39.6846 92.6242 39.9751 92.2901 40.2511C91.5058 40.832 90.6271 41.1225 89.654 41.1225C88.2016 41.1225 86.9816 40.5851 85.994 39.5104ZM88.4558 32.8438C87.9475 33.4248 87.6933 34.2236 87.6933 35.2403C87.6933 36.257 87.9475 37.0558 88.4558 37.6368C88.9641 38.2177 89.6177 38.5082 90.4165 38.5082C91.2589 38.5082 91.9416 38.225 92.4644 37.6585C92.9873 37.0776 93.2487 36.2715 93.2487 35.2403C93.2487 34.2091 92.9873 33.4103 92.4644 32.8438C91.9416 32.2629 91.2589 31.9724 90.4165 31.9724C89.6177 31.9724 88.9641 32.2629 88.4558 32.8438ZM97.8238 40.7957V25.5455H100.874V38.1814H103.379V40.7957H97.8238ZM108.512 36.0028H111.889C112.019 36.4385 112.23 36.8234 112.52 37.1575C113.159 37.9127 114.111 38.2903 115.374 38.2903C117.262 38.2903 118.207 37.7094 118.207 36.5475C118.207 36.257 118.105 35.9955 117.902 35.7632C117.713 35.5308 117.408 35.3274 116.986 35.1532C116.58 34.9789 116.18 34.8409 115.788 34.7392C115.411 34.623 114.917 34.485 114.307 34.3253C114.22 34.3108 114.147 34.2962 114.089 34.2817C114.045 34.2672 113.98 34.2527 113.893 34.2381C113.82 34.2091 113.755 34.1873 113.697 34.1728C110.676 33.4466 109.165 31.9869 109.165 29.7938C109.165 28.4866 109.695 27.3828 110.756 26.4823C111.83 25.5673 113.261 25.1098 115.048 25.1098C117.371 25.1098 119.129 25.8941 120.32 27.4627C120.814 28.1598 121.162 28.9369 121.365 29.7938H117.989C117.902 29.4888 117.734 29.1983 117.488 28.9223C116.936 28.3414 116.122 28.0509 115.048 28.0509C114.22 28.0509 113.595 28.2107 113.174 28.5302C112.753 28.8352 112.542 29.2201 112.542 29.6849C112.542 30.5272 113.501 31.1663 115.418 31.602C115.912 31.7182 116.217 31.7908 116.333 31.8199C116.464 31.8489 116.761 31.9288 117.226 32.0595C117.705 32.1902 118.025 32.2992 118.185 32.3863C118.359 32.4589 118.642 32.5824 119.034 32.7567C119.441 32.9165 119.724 33.069 119.884 33.2142C120.058 33.3594 120.276 33.5555 120.538 33.8024C120.814 34.0348 121.01 34.2744 121.126 34.5214C121.242 34.7683 121.344 35.0587 121.431 35.3928C121.533 35.7123 121.583 36.0609 121.583 36.4385C121.583 37.7893 121.039 38.9294 119.949 39.8589C118.86 40.774 117.335 41.2315 115.374 41.2315C112.789 41.2315 110.894 40.36 109.688 38.6171C109.122 37.8619 108.73 36.9904 108.512 36.0028ZM122.676 36.4385V29.6849H125.726V36.0028C125.726 36.8162 125.922 37.4407 126.314 37.8764C126.721 38.2976 127.287 38.5082 128.014 38.5082C128.74 38.5082 129.357 38.2322 129.865 37.6803C130.374 37.1284 130.628 36.424 130.628 35.5671V29.6849H133.678V40.7957H130.628V39.2707H130.519C130.345 39.6048 130.076 39.917 129.713 40.2075C128.929 40.8175 128.035 41.1225 127.033 41.1225C125.653 41.1225 124.579 40.7231 123.809 39.9243C123.054 39.1255 122.676 37.9636 122.676 36.4385ZM135.208 44.9351V29.6849H138.258V31.1009H138.367C138.599 30.7959 138.883 30.5055 139.217 30.2295C140.001 29.6485 140.88 29.3581 141.853 29.3581C143.305 29.3581 144.518 29.9027 145.491 30.992C146.479 32.0668 146.973 33.4829 146.973 35.2403C146.973 36.9977 146.479 38.4211 145.491 39.5104C144.518 40.5851 143.305 41.1225 141.853 41.1225C140.88 41.1225 140.001 40.832 139.217 40.2511C138.883 39.9751 138.599 39.6846 138.367 39.3796H138.258V44.9351H135.208ZM139.042 32.8438C138.52 33.4103 138.258 34.2091 138.258 35.2403C138.258 36.2715 138.52 37.0776 139.042 37.6585C139.565 38.225 140.248 38.5082 141.09 38.5082C141.889 38.5082 142.543 38.2177 143.051 37.6368C143.559 37.0558 143.814 36.257 143.814 35.2403C143.814 34.2236 143.559 33.4248 143.051 32.8438C142.543 32.2629 141.889 31.9724 141.09 31.9724C140.248 31.9724 139.565 32.2629 139.042 32.8438ZM147.953 44.9351V29.6849H151.003V31.1009H151.112C151.344 30.7959 151.628 30.5055 151.962 30.2295C152.746 29.6485 153.625 29.3581 154.598 29.3581C156.05 29.3581 157.263 29.9027 158.236 30.992C159.224 32.0668 159.717 33.4829 159.717 35.2403C159.717 36.9977 159.224 38.4211 158.236 39.5104C157.263 40.5851 156.05 41.1225 154.598 41.1225C153.625 41.1225 152.746 40.832 151.962 40.2511C151.628 39.9751 151.344 39.6846 151.112 39.3796H151.003V44.9351H147.953ZM151.787 32.8438C151.264 33.4103 151.003 34.2091 151.003 35.2403C151.003 36.2715 151.264 37.0776 151.787 37.6585C152.31 38.225 152.993 38.5082 153.835 38.5082C154.634 38.5082 155.288 38.2177 155.796 37.6368C156.304 37.0558 156.558 36.257 156.558 35.2403C156.558 34.2236 156.304 33.4248 155.796 32.8438C155.288 32.2629 154.634 31.9724 153.835 31.9724C152.993 31.9724 152.31 32.2629 151.787 32.8438ZM160.698 40.7957V25.5455H163.748V38.1814H166.253V40.7957H160.698ZM165.824 29.6849H168.983L171.162 38.1814H172.033L174.43 29.6849H177.589L173.123 44.9351H169.964L171.162 40.7957H168.765L165.824 29.6849ZM182.601 31.3188V27.7241L185.542 25.5455H188.484V40.7957H185.216V29.3581L182.601 31.3188ZM190.556 40.7957V25.5455H198.399C199.924 25.5455 201.122 25.9159 201.993 26.6566C202.865 27.3973 203.301 28.3341 203.301 29.467C203.301 30.5563 202.901 31.4132 202.102 32.0377C201.725 32.2992 201.325 32.4953 200.904 32.626V32.7349C201.412 32.8366 201.899 33.0399 202.364 33.3449C203.351 33.9985 203.845 34.9934 203.845 36.3296C203.845 37.6368 203.351 38.7115 202.364 39.5539C201.391 40.3818 200.033 40.7957 198.29 40.7957H190.556ZM193.824 31.5367H197.963C198.588 31.5367 199.067 31.3987 199.401 31.1227C199.749 30.8323 199.924 30.4619 199.924 30.0116C199.924 29.5614 199.749 29.1983 199.401 28.9223C199.067 28.6319 198.588 28.4866 197.963 28.4866H193.824V31.5367ZM193.824 37.8546H198.072C198.871 37.8546 199.466 37.6949 199.858 37.3753C200.265 37.0558 200.468 36.6346 200.468 36.1117C200.468 35.5889 200.265 35.1677 199.858 34.8481C199.466 34.5286 198.871 34.3689 198.072 34.3689H193.824V37.8546Z" fill="#2E2A1D"></path></svg> 